<?xml version="1.0" encoding="utf-8"?>
<!-- Generator: Adobe Illustrator 26.0.1, SVG Export Plug-In . SVG Version: 6.00 Build 0)  -->
<svg version="1.1" id="Layer_1" xmlns="http://www.w3.org/2000/svg" xmlns:xlink="http://www.w3.org/1999/xlink" x="0px" y="0px"
	 viewBox="0 0 68 44.3" style="enable-background:new 0 0 68 44.3;" xml:space="preserve">
<style type="text/css">
	.st0{fill:#F6AC19;}
	.st1{fill:url(#SVGID_1_);}
	.st2{fill:url(#SVGID_00000078737553495373366680000007979669898198827178_);}
	.st3{fill:url(#SVGID_00000092434973433407275740000009241125467483127224_);}
	.st4{fill:none;stroke:#FFFFFF;stroke-miterlimit:10;}
</style>
<g>
	<g>
		<path class="st0" d="M61.9,27.9c-0.8,1.5-1.6,2.9-2.3,4.4c-0.5,1-1,2.1-1.4,3.2c-0.2,0.5-0.1,1.1-0.1,1.7c0.6,0,1.1,0,1.7-0.1
			c0.1,0,0.3-0.1,0.5-0.1c-1.2,1.5-2.6,2.8-4.5,3c-1.2,0.2-1.8-0.3-2.5-1.7c-4.4,2.6-5.7,2.4-6.8-0.8c-0.4,0.4-0.8,0.8-1.2,1.2
			c-1,0.9-2.2,1.5-3.6,1.4c-1,0-1.7-0.6-1.6-1.6c0.1-0.9,0.3-1.8,0.6-2.6c0.6-1.5,1.5-3,2.1-4.5c0.2-0.6,0.4-1.7,0.1-2
			c-0.7-0.6-1.5,0.1-2,0.6c-1,1.2-2,2.4-2.8,3.7c-1,1.7-1.8,3.6-2.6,5.4c-0.2,0.5-0.5,0.8-1.1,0.7c-1,0-1.9,0-3,0
			c0.2-0.5,0.3-0.8,0.4-1.2c-4.1,2.1-4.7,2.1-6-0.2c-0.8,0.5-1.6,1.1-2.5,1.4c-2.3,1-4-0.1-4.2-2.7c-0.3-4.2,3.5-9.3,7.6-10.2
			c1.3-0.3,2.7-0.1,3.8,0.6c1.5-0.9,3-0.3,4.3-0.5c-1.3,2.8-2.7,5.6-4,8.4c-0.3,0.6-0.6,1.3,0.2,1.8c0.5,0.3,1.6-0.1,1.9-0.8
			c1.1-2.3,2.2-4.6,3.3-7c0.3-0.7,0.4-1.5,0.7-2.4c1.3,0,2.6,0,4.1,0c-0.2,0.5-0.4,1-0.7,1.7c0.5-0.3,0.8-0.6,1.1-0.8
			c1.1-0.8,2.3-1.4,3.8-1.4c1,0,1.9,0.7,1.9,1.8c0,0.8-0.2,1.7-0.4,2.4c-0.6,1.7-1.5,3.3-2.1,5c-0.1,0.4-0.1,1.1,0.2,1.2
			c0.4,0.2,1,0.1,1.4,0c0.2-0.1,0.4-0.5,0.5-0.8c0.5-4.1,2.6-7,6.3-8.8c1.7-0.9,3.6-0.9,5.3,0.1c1.3-0.9,2.7-0.3,4-0.5
			C61.9,27.3,61.9,27.6,61.9,27.9z M22.8,35.4c-0.1,1.8,1,2.5,2.3,1.7c0.6-0.3,1.2-0.8,1.5-1.4c1-1.9,1.9-3.8,2.7-5.8
			c0.2-0.4,0.1-1.3-0.2-1.5c-0.3-0.3-1.1-0.2-1.5,0C24.8,30.1,23.3,32.6,22.8,35.4z M50.1,35.9c0.2,0.4,0.4,1.1,0.8,1.3
			c0.4,0.2,1.2,0.1,1.7-0.2c0.6-0.3,1.1-0.8,1.4-1.3c1-1.9,1.9-3.9,2.8-5.9c0.2-0.4,0-1.2-0.2-1.4c-0.3-0.3-1.1-0.3-1.4,0
			C52.3,30,50.7,32.5,50.1,35.9z"/>
		<path class="st0" d="M7.1,35.9c-0.2,0.9-0.6,1.8-0.6,2.6c0,1.2,0.6,2.2,1.8,2.6c1.4,0.5,2.8,0.3,3.9-0.8c1.4-1.4,1.9-4,0.8-5.7
			c-0.6-1-1.4-1.8-2-2.8c-0.7-1.1-1.6-2.3-2-3.5c-1-2.5-0.2-5.2,1.9-6.9c2.2-1.8,4.7-2.4,7.5-1.8c2.2,0.5,3.6,2.3,3.7,4.5
			c0,0.3-0.3,0.7-0.5,0.8c-1.2,0.5-2.4,0.8-3.7,1.2c0.1-0.6,0.2-1.2,0.3-1.7c0.1-1.8-0.8-2.9-2.3-3c-1.6-0.1-3.3,1.3-3.4,2.9
			c-0.1,1.2,0.4,2.2,1.1,3c0.7,0.8,1.5,1.6,2.2,2.4c2.6,2.8,2.9,6.5,0.7,9.6c-2.3,3.2-5.4,4.7-9.3,4.1c-2.7-0.4-4.6-2.9-4.4-5.7
			c0.1-1.2,0.7-1.8,1.9-1.9C5.5,35.9,6.4,35.9,7.1,35.9z"/>
	</g>
	<linearGradient id="SVGID_1_" gradientUnits="userSpaceOnUse" x1="24.05" y1="22.3502" x2="64.6966" y2="22.3502">
		<stop  offset="0.2867" style="stop-color:#FDAF33"/>
		<stop  offset="0.6995" style="stop-color:#FBC344"/>
	</linearGradient>
	<path class="st1" d="M24.1,25.7c0.1,0.1,0.5,0,0.5,0c10.2-1.9,14.6-2.5,23-2.3c4.3,0.1,7.6,0,12.7,2c1.3,0.5,2.5,1.3,3.7,2.1
		c-0.4-0.3-0.6-1-0.9-1.3c-0.9-1.2-2-2.2-3.1-3.1c-3.4-2.8-7.8-4.6-12.1-5.4c-2.8-0.5-5.7-0.5-8.6-0.1c-2.9,0.4-5.7,1.3-8.2,2.7
		c-1.3,0.7-2.5,1.4-3.6,2.3c-0.6,0.5-1.1,1-1.7,1.5c-0.5,0.5-1.1,1-1.5,1.6C24,25.6,24,25.7,24.1,25.7z"/>
	
		<linearGradient id="SVGID_00000005224494558129216950000011062566881997012138_" gradientUnits="userSpaceOnUse" x1="41.0531" y1="17.6831" x2="45.5469" y2="17.6831">
		<stop  offset="6.216100e-03" style="stop-color:#000000;stop-opacity:0.57"/>
		<stop  offset="0.5" style="stop-color:#FFDA33"/>
		<stop  offset="1" style="stop-color:#000000"/>
	</linearGradient>
	<ellipse style="fill:url(#SVGID_00000005224494558129216950000011062566881997012138_);" cx="43.3" cy="17.7" rx="2.2" ry="0.3"/>
	
		<linearGradient id="SVGID_00000153667153987398826340000014157562056522617789_" gradientUnits="userSpaceOnUse" x1="5.9539" y1="1029.8644" x2="30.8336" y2="1029.8644" gradientTransform="matrix(1 0 0 1 26.9558 -1020)">
		<stop  offset="0" style="stop-color:#C2E800"/>
		<stop  offset="1" style="stop-color:#6FAD03"/>
	</linearGradient>
	<path style="fill:url(#SVGID_00000153667153987398826340000014157562056522617789_);" d="M43,14.1c0,0,0-2.7,1-4.5s2.7-3,5.2-3.8
		s2.8-0.8,4.5-1.5c1.6-0.7,4-2.5,4-2.5s0.1,2.4-1,5.5s-3.1,5.7-6.4,7c-3.3,1.3-5.9,0.9-5.9,0.9l-1.2,2.6l-0.9-1.5
		c0,0-3.1,0.4-5.3-0.9s-2.9-3-3.3-4c-0.4-0.9-0.8-3.1-0.8-3.1s0.5,0.6,2.9,1.3c2.4,0.7,4.1,0.7,5.2,1.7c1,0.8,1.9,2.2,2.1,4
		c0,0-1.2-1.7-2.5-2.6c-1.4-1-3.5-1.1-4-1c0,0,2.9,0.4,4.3,1.9s2.2,2.9,2.2,2.9s0.8-2.8,2.2-4.3s2.4-2.5,3.9-3.3
		c1.5-0.8,3.7-1.3,3.7-1.3s-4.2,0.2-6.6,2.6S43,14.1,43,14.1z"/>
	<path class="st4" d="M29,23.5"/>
</g>
</svg>
