<?xml version="1.0" encoding="utf-8"?>
<!-- Generator: Adobe Illustrator 26.0.1, SVG Export Plug-In . SVG Version: 6.00 Build 0)  -->
<svg version="1.1" id="Layer_1" xmlns="http://www.w3.org/2000/svg" xmlns:xlink="http://www.w3.org/1999/xlink" x="0px" y="0px"
	 viewBox="0 0 120 31" style="enable-background:new 0 0 120 31;" xml:space="preserve">
<style type="text/css">
	.st0{clip-path:url(#SVGID_00000130639665788927163400000001353995177898659485_);enable-background:new    ;}
	.st1{clip-path:url(#SVGID_00000065058545456188775720000004811185596655144341_);fill:#FFFFFF;}
	.st2{clip-path:url(#SVGID_00000065058545456188775720000004811185596655144341_);fill:#FAFAFC;}
</style>
<g>
	<defs>
		<rect id="SVGID_1_" x="1.5" y="7.1" width="117.5" height="18.6"/>
	</defs>
	<clipPath id="SVGID_00000020373728643436099370000011428850936189361805_">
		<use xlink:href="#SVGID_1_"  style="overflow:visible;"/>
	</clipPath>
	<g style="clip-path:url(#SVGID_00000020373728643436099370000011428850936189361805_);enable-background:new    ;">
		<g>
			<defs>
				<rect id="SVGID_00000116933644275874458470000018155877191797542021_" x="1.4" y="7.1" width="117.7" height="18.7"/>
			</defs>
			<clipPath id="SVGID_00000119835245382712129760000007735978834348471999_">
				<use xlink:href="#SVGID_00000116933644275874458470000018155877191797542021_"  style="overflow:visible;"/>
			</clipPath>
			<path style="clip-path:url(#SVGID_00000119835245382712129760000007735978834348471999_);fill:#FFFFFF;" d="M20.8,11.5
				c0,0.6,0,1.3,0,1.9c0,0.1,0,0.2,0.2,0.2c0.8,0,1.6,0,2.3,0c0.3,0,0.6-0.1,1-0.2c0.6-0.2,1-0.6,1.2-1.2c0.1-0.4,0.1-0.7,0.1-1.1
				c-0.1-0.5-0.3-1-0.8-1.3c-0.5-0.3-1-0.4-1.5-0.4c-0.8,0-1.5,0-2.3,0c-0.1,0-0.2,0-0.2,0.2C20.8,10.2,20.8,10.9,20.8,11.5
				 M18,13.2V7.5c0,0,0-0.1,0-0.1c0-0.1,0-0.1,0.1-0.1c0,0,0.1,0,0.1,0c1.7,0,3.4,0,5.1,0c1.1,0,2.2,0.2,3.1,0.8
				c1.1,0.7,1.7,1.7,1.9,3c0.1,0.8,0,1.5-0.3,2.2c-0.4,0.9-1.1,1.6-2,2c-0.2,0.1-0.2,0.1-0.1,0.2c0.4,0.6,0.8,1.1,1.2,1.7
				c0.4,0.6,0.9,1.2,1.3,1.8c0,0,0.1,0.1,0.1,0.1c0,0-0.1,0-0.1,0c-0.9,0-1.8,0-2.7,0c-0.1,0-0.2,0-0.2-0.1c-0.7-1-1.4-2-2.1-3
				c-0.1-0.2-0.2-0.2-0.4-0.2c-0.7,0-1.4,0-2.1,0c-0.2,0-0.2,0-0.2,0.2c0,1,0,2,0,2.9c0,0.2,0,0.2-0.2,0.2c-0.8,0-1.6,0-2.4,0
				c-0.2,0-0.2,0-0.2-0.2C18,17,18,15.1,18,13.2L18,13.2z"/>
			<path style="clip-path:url(#SVGID_00000119835245382712129760000007735978834348471999_);fill:#FFFFFF;" d="M59.7,11.5
				c0,0.6,0,1.2,0,1.8c0,0.3,0,0.3,0.2,0.3c0.8,0,1.5,0,2.3,0c0.1,0,0.3,0,0.4,0c0.7-0.1,1.4-0.5,1.7-1.2c0.2-0.4,0.2-0.8,0.1-1.2
				c-0.1-0.6-0.4-1.1-1-1.4c-0.4-0.2-0.9-0.3-1.3-0.3c-0.8,0-1.5,0-2.3,0c-0.2,0-0.2,0-0.2,0.2C59.7,10.3,59.7,10.9,59.7,11.5
				 M56.9,13.2c0-1.9,0-3.8,0-5.7c0-0.3,0-0.3,0.3-0.3c1.8,0,3.5,0,5.3,0c1.1,0,2.1,0.3,3,0.8c1.1,0.7,1.7,1.7,1.9,3
				c0.1,0.7,0,1.4-0.2,2c-0.1,0.4-0.4,0.8-0.7,1.2c-0.4,0.5-0.9,0.8-1.4,1c-0.1,0-0.1,0.1,0,0.2c0.6,0.8,1.1,1.6,1.7,2.4
				c0.3,0.4,0.6,0.8,0.8,1.2c0,0,0.1,0.1,0.1,0.1c0,0-0.1,0-0.1,0c-0.9,0-1.8,0-2.7,0c-0.1,0-0.2,0-0.2-0.1
				c-0.6-0.8-1.1-1.7-1.7-2.5c-0.1-0.2-0.3-0.4-0.4-0.6c-0.1-0.1-0.2-0.1-0.3-0.1c-0.7,0-1.5,0-2.2,0c-0.1,0-0.1,0.1-0.1,0.2
				c0,1,0,2,0,2.9c0,0.2,0,0.2-0.2,0.2c-0.8,0-1.6,0-2.4,0c-0.2,0-0.2,0-0.2-0.2C56.9,17,56.9,15.1,56.9,13.2L56.9,13.2z"/>
			<path style="clip-path:url(#SVGID_00000119835245382712129760000007735978834348471999_);fill:#FFFFFF;" d="M109.7,13.2
				c0-1.9,0-3.8,0-5.7c0-0.3,0-0.3,0.2-0.3h8.6c0.3,0,0.2,0,0.2,0.2c0,0.6,0,1.2,0,1.8c0,0.2,0,0.2-0.2,0.2c-0.6,0-1.2,0-1.8,0
				c-1.3,0-2.7,0-4,0c-0.2,0-0.2,0-0.2,0.2c0,0.7,0,1.4,0,2.2c0,0.2,0,0.2,0.2,0.2c1.7,0,3.4,0,5.2,0c0.2,0,0.2,0,0.2,0.2
				c0,0.6,0,1.2,0,1.9c0,0.1,0,0.1-0.1,0.1c-0.2,0-0.4,0-0.6,0c-1.5,0-3.1,0-4.6,0c-0.2,0-0.2,0-0.2,0.2c0,0.8,0,1.6,0,2.3
				c0,0.2,0,0.2,0.2,0.2c2,0,4,0,6.1,0c0.3,0,0.3,0,0.3,0.3c0,0.6,0,1.2,0,1.8c0,0.2,0,0.2-0.2,0.2c-3,0-6,0-8.9,0
				c-0.2,0-0.2,0-0.2-0.2C109.7,17,109.7,15.1,109.7,13.2L109.7,13.2z"/>
			<path style="clip-path:url(#SVGID_00000119835245382712129760000007735978834348471999_);fill:#FFFFFF;" d="M89.8,11.5
				c0,0.6,0,1.3,0,1.9c0,0.2,0,0.2,0.2,0.2c0.8,0,1.5,0,2.3,0c0.3,0,0.5,0,0.8-0.1c0.6-0.2,1.1-0.5,1.3-1.1c0.1-0.4,0.2-0.7,0.2-1.1
				c-0.1-0.7-0.4-1.3-1.1-1.6c-0.4-0.2-0.8-0.2-1.2-0.2c-0.7,0-1.5,0-2.2,0c-0.2,0-0.2,0-0.2,0.2C89.8,10.3,89.8,10.9,89.8,11.5
				 M87,13.2V7.4c0-0.2,0-0.2,0.2-0.2c1.8,0,3.6,0,5.4,0c1.2,0,2.4,0.3,3.4,1.1c0.8,0.6,1.3,1.5,1.4,2.5c0.1,0.7,0.1,1.4-0.2,2.1
				c-0.3,1-1,1.7-1.9,2.2c-0.9,0.5-1.9,0.7-3,0.7c-0.8,0-1.6,0-2.4,0c-0.1,0-0.2,0-0.2,0.2c0,1,0,2,0,3c0,0.2,0,0.2-0.2,0.2
				c-0.8,0-1.6,0-2.4,0c-0.2,0-0.2,0-0.2-0.2L87,13.2L87,13.2z"/>
			<path style="clip-path:url(#SVGID_00000119835245382712129760000007735978834348471999_);fill:#FFFFFF;" d="M77.4,11.5
				c0,0.6,0,1.3,0,1.9c0,0.2,0,0.2,0.2,0.2c0.8,0,1.5,0,2.3,0c0.3,0,0.7-0.1,1-0.2c0.7-0.2,1.1-0.7,1.3-1.4c0.1-0.3,0.1-0.5,0-0.8
				c-0.1-0.6-0.3-1-0.8-1.4c-0.5-0.3-1-0.4-1.5-0.4c-0.7,0-1.5,0-2.2,0c-0.1,0-0.2,0-0.2,0.2C77.4,10.3,77.4,10.9,77.4,11.5
				 M74.6,13.2c0-1.9,0-3.8,0-5.7c0-0.2,0-0.2,0.2-0.2c1.8,0,3.6,0,5.3,0c1.2,0,2.4,0.3,3.4,1.1c0.6,0.5,1,1.1,1.2,1.8
				c0.4,1.2,0.3,2.3-0.2,3.4c-0.4,0.9-1.2,1.5-2.1,1.9c-0.8,0.3-1.6,0.5-2.4,0.5c-0.8,0-1.7,0-2.5,0c-0.2,0-0.2,0-0.2,0.2
				c0,1,0,2,0,2.9c0,0.2,0,0.2-0.2,0.2c-0.8,0-1.6,0-2.4,0c-0.2,0-0.2,0-0.2-0.2C74.6,17,74.6,15.1,74.6,13.2L74.6,13.2z"/>
			<path style="clip-path:url(#SVGID_00000119835245382712129760000007735978834348471999_);fill:#FFFFFF;" d="M34.6,19.3
				c-1.3,0-2.4-0.2-3.5-0.6c-0.4-0.2-0.9-0.4-1.3-0.7c-0.1-0.1-0.1-0.1-0.1-0.3c0.3-0.6,0.6-1.2,0.8-1.8c0.1-0.2,0.1-0.2,0.2-0.1
				c1,0.7,2,1,3.2,1.1c0.6,0.1,1.2,0.1,1.8-0.1c0.4-0.1,0.7-0.2,0.9-0.6c0.3-0.4,0.2-0.9-0.2-1.3c-0.4-0.3-0.9-0.4-1.3-0.5
				c-1-0.3-2.1-0.4-3-0.8c-0.8-0.3-1.5-0.7-1.9-1.5c-0.5-1-0.5-2.1,0.1-3.1c0.4-0.7,1-1.1,1.7-1.5c0.7-0.3,1.4-0.5,2.1-0.5
				C35.6,7,37,7.2,38.3,7.7c0.3,0.1,0.5,0.2,0.8,0.4c0.1,0,0.1,0.1,0.1,0.2c-0.3,0.6-0.5,1.3-0.8,1.9c-0.1,0.1-0.1,0.1-0.2,0.1
				c-0.7-0.4-1.5-0.7-2.4-0.8c-0.6-0.1-1.2-0.1-1.8,0c-0.4,0.1-0.9,0.3-1.1,0.7c-0.3,0.5-0.2,1.1,0.4,1.4c0.5,0.3,1.1,0.4,1.7,0.6
				c0.9,0.2,1.8,0.4,2.7,0.7c0.6,0.2,1.1,0.6,1.5,1.1c0.3,0.4,0.5,0.9,0.5,1.4c0.1,0.7-0.1,1.4-0.4,2.1c-0.4,0.7-1,1.1-1.7,1.4
				C36.6,19.2,35.6,19.3,34.6,19.3"/>
			<path style="clip-path:url(#SVGID_00000119835245382712129760000007735978834348471999_);fill:#FAFAFC;" d="M1.5,13.2V7.5
				c0-0.3,0-0.3,0.3-0.3h8.6c0.3,0,0.3,0,0.3,0.3c0,0.6,0,1.2,0,1.8c0,0.2,0,0.2-0.2,0.2c-0.1,0-0.2,0-0.3,0c-1.9,0-3.7,0-5.6,0
				c-0.2,0-0.2,0-0.2,0.2c0,0.9,0,1.8,0,2.8c0,0.2,0,0.2,0.2,0.2c1.7,0,3.4,0,5.2,0c0.2,0,0.2,0,0.2,0.2c0,0.6,0,1.2,0,1.8
				c0,0.2,0,0.2-0.2,0.2c-0.8,0-1.7,0-2.5,0c-0.9,0-1.7,0-2.6,0c-0.3,0-0.3,0-0.3,0.3c0,1.3,0,2.6,0,3.9c0,0.2,0,0.2-0.2,0.2
				c-0.8,0-1.6,0-2.4,0c-0.2,0-0.2,0-0.2-0.2C1.5,17,1.5,15.1,1.5,13.2L1.5,13.2z"/>
			<path style="clip-path:url(#SVGID_00000119835245382712129760000007735978834348471999_);fill:#FFFFFF;" d="M45.3,7.2
				c1.7,0,3.3,0,5,0c0.2,0,0.2,0,0.2,0.2c0,0.6,0,1.2,0,1.9c0,0.1,0,0.1-0.1,0.1c-1.2,0-2.4,0-3.5,0c-0.1,0-0.2,0-0.2,0.2
				c0,0.1,0,0.3,0,0.4c0,3,0,5.9,0,8.9c0,0.3,0,0.3-0.3,0.3c-0.8,0-1.5,0-2.3,0c-0.3,0-0.3,0-0.3-0.3c0-3.1,0-6.1,0-9.2
				c0-0.3,0-0.3-0.3-0.3c-1.1,0-2.2,0-3.3,0c-0.2,0-0.2,0-0.2-0.2c0-0.6,0-1.2,0-1.8c0-0.2,0-0.2,0.2-0.2
				C41.9,7.2,43.6,7.2,45.3,7.2"/>
			<path style="clip-path:url(#SVGID_00000119835245382712129760000007735978834348471999_);fill:#FFFFFF;" d="M99.3,13.2V7.5
				c0,0,0-0.1,0-0.1c0-0.1,0-0.2,0.2-0.2c0.7,0,1.3,0,2,0c0.2,0,0.3,0,0.5,0c0.1,0,0.1,0,0.1,0.1c0,0,0,0.1,0,0.1v9.2
				c0,0.3,0,0.3,0.3,0.3c1.8,0,3.7,0,5.5,0c0.3,0,0.3,0,0.3,0.3c0,0.6,0,1.2,0,1.7c0,0.2,0,0.2-0.2,0.2c-2.8,0-5.6,0-8.4,0
				c-0.2,0-0.2,0-0.2-0.2C99.3,17,99.3,15.1,99.3,13.2L99.3,13.2z"/>
			<path style="clip-path:url(#SVGID_00000119835245382712129760000007735978834348471999_);fill:#FFFFFF;" d="M15.2,13.2
				c0,1.9,0,3.8,0,5.8c0,0.2,0,0.2-0.2,0.2c-0.8,0-1.6,0-2.4,0c-0.2,0-0.2,0-0.2-0.2c0-3.9,0-7.7,0-11.6c0-0.2,0-0.2,0.2-0.2
				c0.8,0,1.6,0,2.4,0c0.2,0,0.2,0,0.2,0.2C15.2,9.3,15.2,11.3,15.2,13.2"/>
			<path style="clip-path:url(#SVGID_00000119835245382712129760000007735978834348471999_);fill:#FFFFFF;" d="M69.5,11.8
				c0-1.5,0-2.9,0-4.4c0-0.2,0-0.2,0.2-0.2c0.8,0,1.5,0,2.3,0c0.2,0,0.2,0,0.2,0.2c0,2.9,0,5.9,0,8.8c0,0.2-0.1,0.2-0.2,0.2
				c-0.8,0-1.5,0-2.3,0c-0.1,0-0.2,0-0.2-0.2C69.5,14.8,69.5,13.3,69.5,11.8L69.5,11.8z"/>
			<path style="clip-path:url(#SVGID_00000119835245382712129760000007735978834348471999_);fill:#FFFFFF;" d="M72.1,19
				c-0.1-0.3-0.3-0.5-0.5-0.8c0,0,0,0,0,0c0,0,0,0,0,0c0,0,0,0,0,0c0,0,0,0,0,0c0,0,0,0,0,0c0,0,0,0,0,0c0,0,0,0,0,0c0,0,0,0,0,0
				l0,0c0,0,0,0,0,0c0,0,0,0,0,0c0,0,0,0,0,0c0,0,0,0,0,0c0,0,0,0,0,0c0,0,0,0,0,0c0,0,0,0,0,0c0,0,0,0,0,0c0,0,0,0,0,0c0,0,0,0,0,0
				c0,0,0,0,0,0c0,0,0,0,0,0c0,0,0,0,0,0l0,0l0,0c0,0,0,0,0,0c0,0,0,0,0,0c0,0,0,0,0,0c0,0,0,0,0,0c0,0,0,0,0,0c0,0,0,0,0,0
				c0,0,0,0,0,0c0,0,0,0.1-0.1,0.1c0,0.1-0.1,0.1-0.1,0.2c0,0,0,0,0,0c0,0,0,0,0,0c0,0,0,0,0,0c0,0,0,0,0,0c0,0,0,0,0,0c0,0,0,0,0,0
				l0,0c0,0,0,0,0,0c0,0,0,0,0,0l0,0c0,0,0,0,0,0l0,0c0,0,0,0,0,0c0,0,0,0,0,0c0,0,0,0,0,0c0,0,0,0,0,0c0,0,0,0,0,0l0,0c0,0,0,0,0,0
				c0,0,0,0,0,0c-0.2,0.2-0.4,0.5-0.5,0.8c-0.1,0.2-0.1,0.5,0,0.7c0.1,0.5,0.6,0.8,1.1,0.9c0,0,0.1,0,0.1,0h0c0,0,0.1,0,0.1,0
				c0.5,0,0.9-0.4,1.1-0.9C72.2,19.5,72.2,19.3,72.1,19"/>
			<path style="clip-path:url(#SVGID_00000119835245382712129760000007735978834348471999_);fill:#FFFFFF;" d="M67.7,21.9
				c-0.4,0.1-0.7,0.2-1,0.3c-0.4,0.1-0.7,0.3-1,0.5c-0.4,0.3-0.5,0.7-0.1,1.1c0.2,0.3,0.5,0.4,0.8,0.5c0.9,0.3,1.9,0.6,2.8,0.7
				c0.7,0.1,1.3,0.1,2,0.1c0.8,0,1.6-0.1,2.4-0.3c0.7-0.1,1.4-0.3,2.1-0.6c0.2-0.1,0.4-0.3,0.6-0.4c0.3-0.3,0.3-0.7-0.1-1
				c-0.3-0.3-0.7-0.5-1.2-0.6c-0.3-0.1-0.5-0.2-0.8-0.3c0,0-0.1,0-0.1,0c0-0.1,0.1,0,0.1,0c0.9,0.1,1.7,0.4,2.4,1
				c0.1,0.1,0.2,0.2,0.3,0.3c0.1,0.2,0.2,0.3,0.1,0.5c-0.1,0.3-0.4,0.5-0.7,0.7c-0.7,0.4-1.4,0.6-2.1,0.7c-1.2,0.2-2.4,0.4-3.6,0.3
				c-1,0-2-0.1-3-0.3c-0.7-0.1-1.4-0.3-2-0.6c-0.3-0.2-0.6-0.4-0.8-0.7c-0.2-0.3-0.2-0.5,0.1-0.8c0.3-0.3,0.7-0.5,1.1-0.7
				c0.4-0.2,0.9-0.3,1.4-0.4C67.5,21.8,67.6,21.8,67.7,21.9"/>
			<path style="clip-path:url(#SVGID_00000119835245382712129760000007735978834348471999_);fill:#FFFFFF;" d="M73.3,24.4
				c0.1-0.1,0.1-0.1,0.2-0.1c0.3-0.1,0.5-0.2,0.8-0.3c0.1-0.1,0.2-0.1,0.3-0.2c0.2-0.2,0.2-0.3,0-0.5c-0.2-0.2-0.5-0.4-0.7-0.5
				c-0.7-0.3-1.4-0.4-2.2-0.4c-0.6,0-1.2,0-1.8,0c-0.8,0-1.6,0.2-2.4,0.5c-0.2,0.1-0.3,0.2-0.4,0.3c-0.2,0.2-0.2,0.4,0,0.6
				c0.2,0.2,0.3,0.3,0.5,0.3c0.2,0.1,0.4,0.2,0.7,0.2c0.1,0,0.1,0.1,0.2,0.1c-0.2,0-0.3,0-0.4,0c-0.5-0.1-1-0.3-1.4-0.6
				c-0.4-0.3-0.4-0.6,0-0.9c0.4-0.3,0.8-0.4,1.2-0.5c1.1-0.3,2.3-0.4,3.4-0.3c0.9,0,1.9,0.1,2.8,0.4c0.3,0.1,0.5,0.2,0.7,0.3
				c0.1,0.1,0.2,0.2,0.3,0.3c0.1,0.2,0.1,0.3,0,0.5c-0.2,0.2-0.5,0.4-0.7,0.5C74.1,24.2,73.7,24.3,73.3,24.4
				C73.3,24.4,73.3,24.4,73.3,24.4"/>
			<path style="clip-path:url(#SVGID_00000119835245382712129760000007735978834348471999_);fill:#FFFFFF;" d="M69.4,23
				c-0.1,0.1-0.2,0.1-0.2,0.2c-0.2,0.2-0.2,0.3,0,0.5c0.3,0.2,0.6,0.2,0.9,0.3c0.7,0.1,1.4,0.1,2.1-0.1c0.2,0,0.4-0.1,0.5-0.2
				c0.3-0.2,0.3-0.4,0-0.5c-0.1,0-0.2-0.1-0.3-0.2c0.1,0,0.2,0,0.3,0.1c0.3,0.1,0.6,0.2,0.8,0.4c0.1,0.1,0.1,0.2,0,0.3
				c-0.1,0.1-0.2,0.2-0.3,0.3c-0.3,0.2-0.7,0.3-1.1,0.3c-1,0.2-1.9,0.1-2.9-0.1c-0.3-0.1-0.6-0.2-0.8-0.3c-0.4-0.3-0.4-0.4,0-0.7
				C68.7,23.2,69.1,23,69.4,23"/>
			<path style="clip-path:url(#SVGID_00000119835245382712129760000007735978834348471999_);fill:#FFFFFF;" d="M70.9,23.8
				c-0.3,0-0.6,0-0.9-0.2c-0.2-0.1-0.2-0.1-0.1-0.3c0.2-0.4,0.6-0.7,1-0.7c0.4,0,0.8,0.3,0.9,0.7c0,0.1,0,0.2-0.1,0.2
				C71.5,23.7,71.2,23.8,70.9,23.8"/>
			<path style="clip-path:url(#SVGID_00000119835245382712129760000007735978834348471999_);fill:#FFFFFF;" d="M68.2,25.7
				c-0.6,0.2-4-0.5-4.4-1.9c-0.2-1,0.7-1.5,1.5-1.8c0,0,0.1,0,0,0.1c-0.6,0.5-1.4,0.9-1.2,1.7C64.4,24.8,67.1,25.5,68.2,25.7"/>
			<path style="clip-path:url(#SVGID_00000119835245382712129760000007735978834348471999_);fill:#FFFFFF;" d="M73.6,25.7
				c0.6,0.2,4-0.5,4.4-1.9c0.2-1-0.7-1.5-1.5-1.8c0,0-0.1,0,0,0.1c0.6,0.5,1.4,0.9,1.2,1.7C77.3,24.8,74.6,25.5,73.6,25.7"/>
		</g>
	</g>
</g>
<g>
</g>
<g>
</g>
<g>
</g>
<g>
</g>
<g>
</g>
<g>
</g>
<g>
</g>
<g>
</g>
<g>
</g>
<g>
</g>
<g>
</g>
<g>
</g>
<g>
</g>
<g>
</g>
<g>
</g>
</svg>
