<svg width="260" height="91" viewBox="0 0 260 91" fill="none" xmlns="http://www.w3.org/2000/svg">
<path d="M68.0219 34.2507C70.3931 35.313 72.3525 36.9891 73.8974 39.2816C75.2903 41.3039 76.1926 43.6462 76.607 46.3112C76.8457 47.8745 76.9454 50.125 76.9008 53.0602H52.1345C52.2709 56.4727 53.4565 58.8622 55.6886 60.2367C57.0473 61.0891 58.6815 61.5167 60.591 61.5167C62.6159 61.5167 64.2632 60.9973 65.5275 59.956C66.2173 59.3947 66.8285 58.6157 67.3583 57.6163H76.4365C76.1978 59.6334 75.0988 61.6819 73.1394 63.762C70.0915 67.0696 65.8291 68.7247 60.3444 68.7247C55.8171 68.7247 51.8249 67.3292 48.3652 64.541C44.9055 61.7501 43.1743 57.2124 43.1743 50.925C43.1743 45.0338 44.735 40.517 47.859 37.3747C50.983 34.2323 55.0355 32.6611 60.0192 32.6611C62.9858 32.6585 65.6508 33.1884 68.0219 34.2507ZM54.7181 41.9334C53.4617 43.2292 52.6722 44.9813 52.3522 47.1951H67.6705C67.5078 44.8345 66.7183 43.0456 65.3019 41.8233C63.8829 40.6009 62.1281 39.9898 60.0297 39.9898C57.745 39.9898 55.9771 40.6377 54.7181 41.9334Z" fill="white"/>
<path d="M101.741 45.7591C101.575 44.4922 101.145 43.3459 100.458 42.3282C99.4587 40.9537 97.9059 40.2691 95.7996 40.2691C92.7989 40.2691 90.7451 41.7538 89.6408 44.7282C89.0559 46.3073 88.7648 48.4004 88.7648 51.0156C88.7648 53.5048 89.0559 55.5087 89.6408 57.0222C90.7032 59.8524 92.7045 61.2662 95.6449 61.2662C97.7275 61.2662 99.2095 60.7049 100.086 59.5822C100.962 58.457 101.492 57.0038 101.68 55.215H110.759C110.549 57.9193 109.57 60.4767 107.821 62.8898C105.03 66.7797 100.899 68.7234 95.4245 68.7234C89.9477 68.7234 85.9188 67.0998 83.3378 63.8551C80.7568 60.6078 79.4636 56.4032 79.4636 51.2333C79.4636 45.3997 80.8905 40.8619 83.7417 37.6147C86.5929 34.37 90.5274 32.749 95.5452 32.749C99.8128 32.749 103.307 33.7038 106.024 35.6186C108.739 37.5334 110.349 40.9118 110.848 45.7591H101.741Z" fill="white"/>
<path d="M141.374 33.7487C143.082 34.4779 144.485 35.5926 145.584 37.0904C146.515 38.3625 147.084 39.6688 147.291 41.0091C147.499 42.3521 147.604 44.5449 147.604 47.5823V67.5669H138.523V46.8584C138.523 45.0249 138.213 43.5455 137.594 42.4229C136.789 40.8386 135.262 40.0491 133.012 40.0491C130.677 40.0491 128.91 40.836 127.7 42.4072C126.494 43.9783 125.888 46.221 125.888 49.1378V67.5669H116.999V21.7354H125.888V37.9586C127.173 35.9835 128.66 34.6038 130.347 33.8247C132.036 33.0457 133.812 32.6549 135.677 32.6549C137.765 32.6575 139.666 33.0195 141.374 33.7487Z" fill="white"/>
<path d="M178.125 34.2507C180.496 35.313 182.456 36.9891 184.001 39.2816C185.393 41.3039 186.298 43.6462 186.71 46.3112C186.951 47.8745 187.046 50.125 187.001 53.0602H162.235C162.374 56.4727 163.56 58.8622 165.792 60.2367C167.15 61.0891 168.782 61.5167 170.694 61.5167C172.716 61.5167 174.364 60.9973 175.631 59.956C176.32 59.3947 176.932 58.6157 177.461 57.6163H186.54C186.298 59.6334 185.199 61.6819 183.242 63.762C180.195 67.0696 175.93 68.7247 170.448 68.7247C165.92 68.7247 161.928 67.3292 158.468 64.541C155.009 61.7501 153.28 57.2124 153.28 50.925C153.28 45.0338 154.843 40.517 157.965 37.3747C161.089 34.2323 165.141 32.6611 170.125 32.6611C173.086 32.6585 175.751 33.1884 178.125 34.2507ZM164.824 41.9334C163.565 43.2292 162.778 44.9813 162.453 47.1951H177.771C177.611 44.8345 176.821 43.0456 175.405 41.8233C173.986 40.6009 172.229 39.9898 170.13 39.9898C167.848 39.9898 166.078 40.6377 164.824 41.9334Z" fill="white"/>
<path d="M218.923 35.511C221.15 37.3524 222.262 40.4055 222.262 44.6679V67.5666H213.152V46.8843C213.152 45.0955 212.916 43.721 212.442 42.7636C211.576 41.0167 209.921 40.1432 207.487 40.1432C204.491 40.1432 202.437 41.4233 201.325 43.9807C200.746 45.3341 200.457 47.0601 200.457 49.1585V67.5666H191.565V33.6225H200.179V38.5826C201.317 36.8356 202.396 35.5792 203.411 34.8081C205.231 33.4362 207.542 32.749 210.341 32.749C213.832 32.749 216.696 33.6697 218.923 35.511Z" fill="white"/>
<path d="M237.426 56.7105C237.612 58.2922 238.021 59.4148 238.648 60.0811C239.755 61.2667 241.803 61.8595 244.791 61.8595C246.548 61.8595 247.944 61.5998 248.975 61.0804C250.011 60.5611 250.527 59.7821 250.527 58.7407C250.527 57.7414 250.11 56.9833 249.279 56.464C248.445 55.9446 245.347 55.0502 239.978 53.7806C236.114 52.8259 233.389 51.6272 231.81 50.1924C230.231 48.7786 229.439 46.7405 229.439 44.0782C229.439 40.9385 230.674 38.2394 233.145 35.981C235.613 33.7252 239.089 32.5947 243.571 32.5947C247.821 32.5947 251.288 33.442 253.969 35.139C256.644 36.8335 258.184 39.7607 258.58 43.9208H249.688C249.562 42.7772 249.24 41.8723 248.718 41.206C247.737 39.9994 246.066 39.3962 243.71 39.3962C241.772 39.3962 240.39 39.6978 239.569 40.3011C238.742 40.9044 238.331 41.61 238.331 42.4231C238.331 43.4434 238.769 44.1831 239.645 44.6395C240.518 45.1195 243.616 45.9405 248.93 47.1051C252.471 47.9366 255.126 49.1957 256.894 50.8796C258.64 52.5872 259.514 54.7171 259.514 57.2771C259.514 60.6476 258.257 63.3965 255.747 65.529C253.234 67.6589 249.352 68.7265 244.104 68.7265C238.745 68.7265 234.792 67.596 232.24 65.3402C229.685 63.0844 228.41 60.2096 228.41 56.7132H237.426V56.7105Z" fill="white"/>
<path d="M28.4385 21.582V67.5684H37.695V29.7264H51.4552V21.582H28.4385Z" fill="white"/>
<path d="M0.275391 21.582V29.7264H14.0959V67.5684H23.2922V21.582H0.275391Z" fill="white"/>
<path d="M33.9048 8.91905C33.9048 13.3598 30.3034 16.9612 25.8627 16.9612C21.4219 16.9612 17.8206 13.3624 17.8206 8.91905C17.8232 4.4757 21.4219 0.876953 25.8653 0.876953C30.306 0.876953 33.9048 4.4757 33.9048 8.91905Z" fill="#00ADEE"/>
<path d="M21.6447 77.3422C22.6992 77.8747 23.3444 78.8085 23.5805 80.1436H22.1562C21.9831 79.3986 21.6237 78.8557 21.0808 78.5147C20.5352 78.1737 19.8506 78.0032 19.0217 78.0032C18.0381 78.0032 17.2119 78.3573 16.5404 79.0655C15.8689 79.7737 15.5331 80.8308 15.5331 82.2341C15.5331 83.4485 15.8086 84.4348 16.3646 85.1981C16.9207 85.9614 17.8204 86.3417 19.0742 86.3417C20.0316 86.3417 20.8263 86.0742 21.4559 85.5391C22.0854 85.004 22.4054 84.1384 22.4211 82.9449H19.0925V81.7987H23.7536V87.2597H22.8277L22.4815 85.9456C21.9962 86.4597 21.5634 86.8165 21.1883 87.0158C20.5562 87.3594 19.7562 87.5299 18.783 87.5299C17.5266 87.5299 16.4433 87.1391 15.5384 86.3548C14.5521 85.3738 14.0564 84.0256 14.0564 82.3102C14.0564 80.6 14.539 79.2413 15.5017 78.2314C16.4171 77.2688 17.6027 76.7861 19.0558 76.7861C20.0552 76.7861 20.9155 76.9697 21.6447 77.3422Z" fill="#6D6E71"/>
<path d="M28.9184 77.0498H27.6174V87.2585H28.9184V77.0498Z" fill="#6D6E71"/>
<path d="M38.2931 80.558C38.983 81.198 39.3266 82.137 39.3266 83.3803C39.3266 84.579 39.0223 85.5705 38.4164 86.3548C37.8105 87.1364 36.8688 87.5299 35.5914 87.5299C34.5265 87.5299 33.6819 87.1837 33.055 86.4912C32.4281 85.7987 32.116 84.8676 32.116 83.7003C32.116 82.4492 32.4465 81.4524 33.1048 80.7127C33.7658 79.9704 34.6524 79.6006 35.7646 79.6006C36.7639 79.6006 37.6059 79.9206 38.2931 80.558ZM37.4879 85.5102C37.8079 84.8833 37.9679 84.183 37.9679 83.4144C37.9679 82.7193 37.8525 82.1554 37.6216 81.72C37.257 81.0354 36.6249 80.6918 35.7278 80.6918C34.9331 80.6918 34.356 80.9829 33.994 81.5678C33.6321 82.1501 33.4511 82.8557 33.4511 83.6793C33.4511 84.4715 33.6321 85.1325 33.994 85.6597C34.356 86.1869 34.9278 86.4518 35.7147 86.4518C36.5777 86.4518 37.1679 86.1371 37.4879 85.5102Z" fill="#6D6E71"/>
<path d="M42.5476 77.0146H43.8119V80.7183C44.0952 80.3616 44.4362 80.0888 44.8296 79.9026C45.2257 79.7137 45.6532 79.6219 46.1149 79.6219C47.0775 79.6219 47.8592 79.9393 48.4598 80.5767C49.0605 81.2141 49.3595 82.1531 49.3595 83.3938C49.3595 84.5715 49.0631 85.5472 48.4703 86.3263C47.8775 87.1053 47.0565 87.4935 46.0073 87.4935C45.4198 87.4935 44.924 87.3571 44.5201 87.0843C44.2788 86.9217 44.0217 86.662 43.7463 86.3053V87.2574H42.5476V77.0146ZM47.5077 85.584C47.8565 85.0463 48.0323 84.338 48.0323 83.4567C48.0323 82.6751 47.8565 82.0246 47.5077 81.5105C47.1588 80.9964 46.6447 80.7393 45.9654 80.7393C45.3726 80.7393 44.8532 80.9491 44.4073 81.3714C43.9614 81.7937 43.7384 82.4888 43.7384 83.4567C43.7384 84.1571 43.8303 84.7236 44.0139 85.159C44.3548 85.98 44.9949 86.3892 45.9286 86.3892C46.6316 86.3892 47.1588 86.1217 47.5077 85.584Z" fill="#6D6E71"/>
<path d="M56.8008 82.7489C57.0998 82.7122 57.2992 82.5915 57.4015 82.387C57.4592 82.2768 57.488 82.1168 57.488 81.907C57.488 81.4794 57.3306 81.1725 57.0159 80.9784C56.7011 80.7869 56.25 80.6899 55.6598 80.6899C54.9804 80.6899 54.5004 80.8656 54.2145 81.2171C54.0545 81.4112 53.9522 81.7024 53.905 82.0853H52.6906C52.7142 81.1673 53.0237 80.5299 53.6191 80.1705C54.2145 79.8112 54.9044 79.6328 55.6886 79.6328C56.5988 79.6328 57.3385 79.8007 57.9077 80.1338C58.4716 80.4669 58.7523 80.9863 58.7523 81.6892V85.9778C58.7523 86.1064 58.7812 86.2113 58.8362 86.29C58.8913 86.3687 59.0094 86.408 59.1877 86.408C59.2454 86.408 59.311 86.4054 59.3818 86.3975C59.4526 86.3896 59.5313 86.3792 59.6126 86.366V87.2893C59.4107 87.3444 59.2559 87.3811 59.151 87.3943C59.0461 87.4074 58.8992 87.4152 58.7182 87.4152C58.2697 87.4152 57.9444 87.2631 57.7425 86.9562C57.6375 86.7936 57.5615 86.5654 57.5195 86.269C57.2546 86.6021 56.8742 86.8933 56.3785 87.1372C55.8828 87.3811 55.3345 87.5044 54.7391 87.5044C54.0204 87.5044 53.4355 87.2946 52.9791 86.8749C52.5253 86.4552 52.2971 85.9306 52.2971 85.3011C52.2971 84.6113 52.5201 84.0762 52.9686 83.6958C53.4171 83.3155 54.0047 83.082 54.7313 82.9929L56.8008 82.7489ZM54.0624 86.1326C54.3378 86.3424 54.6631 86.4447 55.0381 86.4447C55.4945 86.4447 55.9378 86.3424 56.368 86.1378C57.092 85.7995 57.4513 85.246 57.4513 84.4775V83.4703C57.2913 83.5673 57.0867 83.6486 56.8375 83.7142C56.5857 83.7798 56.3418 83.8244 56.1005 83.8532L55.3136 83.9503C54.8414 84.0106 54.4873 84.105 54.2512 84.2362C53.8526 84.4539 53.6506 84.8001 53.6506 85.2775C53.6506 85.6395 53.787 85.9228 54.0624 86.1326Z" fill="#6D6E71"/>
<path d="M63.9958 77.0498H62.6948V87.2585H63.9958V77.0498Z" fill="#6D6E71"/>
<path d="M81.3809 77.7938C82.1232 78.4758 82.535 79.2496 82.6163 80.1151H81.2156C81.0556 79.4568 80.7409 78.9348 80.2661 78.5518C79.7913 78.1663 79.1251 77.9748 78.2674 77.9748C77.2234 77.9748 76.3788 78.3289 75.7362 79.0345C75.0936 79.7401 74.7709 80.8233 74.7709 82.2844C74.7709 83.4804 75.0621 84.4483 75.6418 85.1933C76.2214 85.9356 77.087 86.308 78.2385 86.308C79.2982 86.308 80.1035 85.9172 80.6596 85.1329C80.9533 84.7211 81.1737 84.1782 81.3179 83.5067H82.7186C82.5927 84.5821 82.1783 85.4818 81.4753 86.211C80.6333 87.0871 79.495 87.5251 78.0654 87.5251C76.8326 87.5251 75.7965 87.1658 74.9598 86.4471C73.8555 85.4975 73.3047 84.0313 73.3047 82.0483C73.3047 80.5427 73.7191 79.3073 74.548 78.3446C75.445 77.298 76.6805 76.7735 78.2543 76.7735C79.5972 76.7708 80.6412 77.1118 81.3809 77.7938Z" fill="#6D6E71"/>
<path d="M90.9024 79.8171H92.3398C92.1562 80.2945 91.7497 81.383 91.1201 83.0827C90.648 84.3627 90.2519 85.4041 89.9346 86.2093C89.1844 88.1084 88.6519 89.2677 88.345 89.6848C88.0355 90.1018 87.5057 90.3091 86.7555 90.3091C86.5719 90.3091 86.4329 90.3012 86.3332 90.2881C86.2335 90.2749 86.1129 90.2487 85.9686 90.212V89.071C86.1942 89.1313 86.3594 89.168 86.4591 89.1812C86.5614 89.1943 86.6506 89.2021 86.7266 89.2021C86.9679 89.2021 87.1437 89.1628 87.2565 89.0867C87.3693 89.0107 87.4637 88.9162 87.5424 88.8061C87.566 88.7694 87.6526 88.5805 87.8021 88.2369C87.9516 87.8933 88.0591 87.6388 88.1273 87.4736L85.2656 79.8145H86.7398L88.8145 85.8736L90.9024 79.8171Z" fill="#6D6E71"/>
<path d="M95.1414 77.0146H96.4056V80.7183C96.6889 80.3616 97.0299 80.0888 97.4234 79.9026C97.8194 79.7137 98.247 79.6219 98.7086 79.6219C99.6713 79.6219 100.453 79.9393 101.054 80.5767C101.654 81.2141 101.953 82.1531 101.953 83.3938C101.953 84.5715 101.657 85.5472 101.064 86.3263C100.471 87.1053 99.6503 87.4935 98.6011 87.4935C98.0135 87.4935 97.5178 87.3571 97.1138 87.0843C96.8725 86.9217 96.6155 86.662 96.3401 86.3053V87.2574H95.1414V77.0146ZM100.101 85.584C100.45 85.0463 100.626 84.338 100.626 83.4567C100.626 82.6751 100.45 82.0246 100.101 81.5105C99.7526 80.9964 99.2385 80.7393 98.5591 80.7393C97.9663 80.7393 97.447 80.9491 97.0011 81.3714C96.5552 81.7937 96.3322 82.4888 96.3322 83.4567C96.3322 84.1571 96.424 84.7236 96.6076 85.159C96.9486 85.98 97.5886 86.3892 98.5224 86.3892C99.2254 86.3892 99.7526 86.1217 100.101 85.584Z" fill="#6D6E71"/>
<path d="M110.066 80.0199C110.58 80.2691 110.974 80.5891 111.244 80.9826C111.504 81.3577 111.677 81.7957 111.763 82.2967C111.839 82.6403 111.879 83.1859 111.879 83.9361H106.208C106.231 84.6915 106.418 85.2974 106.764 85.7538C107.11 86.2102 107.648 86.4384 108.374 86.4384C109.054 86.4384 109.597 86.2233 110.001 85.7931C110.231 85.5439 110.397 85.2528 110.491 84.9249H111.771C111.737 85.1977 111.624 85.502 111.435 85.8377C111.246 86.1735 111.031 86.4489 110.795 86.6613C110.399 87.0312 109.911 87.283 109.329 87.4115C109.017 87.485 108.663 87.5217 108.267 87.5217C107.304 87.5217 106.486 87.1833 105.817 86.5092C105.148 85.8351 104.812 84.8908 104.812 83.6764C104.812 82.4803 105.148 81.5098 105.825 80.7649C106.499 80.0199 107.38 79.6475 108.469 79.6475C109.02 79.6475 109.552 79.7707 110.066 80.0199ZM110.543 82.9419C110.491 82.399 110.368 81.9662 110.174 81.6436C109.817 81.0403 109.222 80.7413 108.39 80.7413C107.792 80.7413 107.291 80.9485 106.887 81.3629C106.483 81.7773 106.268 82.3046 106.244 82.9446H110.543V82.9419Z" fill="#6D6E71"/>
<path d="M115.288 79.8156H116.524V81.1009C116.626 80.8517 116.872 80.5475 117.268 80.1881C117.665 79.8288 118.118 79.6504 118.635 79.6504C118.659 79.6504 118.701 79.653 118.758 79.6583C118.816 79.6635 118.916 79.6714 119.055 79.6845V81.0039C118.979 80.9907 118.905 80.9802 118.842 80.975C118.777 80.9698 118.706 80.9671 118.63 80.9671C117.974 80.9671 117.47 81.1691 117.119 81.5757C116.767 81.9822 116.592 82.4491 116.592 82.9763V87.2571H115.291V79.8156H115.288Z" fill="#6D6E71"/>
<path d="M128.081 77.0498H132.38C133.838 77.0498 134.971 77.5482 135.777 78.5449C136.493 79.4446 136.852 80.5961 136.852 81.9994C136.852 83.0827 136.64 84.0637 136.217 84.9398C135.47 86.4873 134.187 87.2611 132.367 87.2611H128.083V77.0498H128.081ZM132.091 86.0782C132.577 86.0782 132.978 86.0283 133.29 85.9313C133.849 85.7503 134.305 85.404 134.662 84.8899C134.945 84.4781 135.15 83.9509 135.276 83.3056C135.349 82.9227 135.383 82.5633 135.383 82.2355C135.383 80.9712 135.121 79.9876 134.599 79.2898C134.077 78.5895 133.235 78.2406 132.073 78.2406H129.523V86.0782H132.091Z" fill="#6D6E71"/>
<path d="M145.122 80.0199C145.636 80.2691 146.03 80.5891 146.3 80.9826C146.56 81.3577 146.733 81.7957 146.819 82.2967C146.895 82.6403 146.935 83.1859 146.935 83.9361H141.264C141.287 84.6915 141.474 85.2974 141.82 85.7538C142.166 86.2102 142.704 86.4384 143.43 86.4384C144.11 86.4384 144.653 86.2233 145.057 85.7931C145.288 85.5439 145.453 85.2528 145.547 84.9249H146.827C146.793 85.1977 146.68 85.502 146.491 85.8377C146.303 86.1735 146.088 86.4489 145.851 86.6613C145.455 87.0312 144.968 87.283 144.385 87.4115C144.073 87.485 143.719 87.5217 143.323 87.5217C142.36 87.5217 141.542 87.1833 140.873 86.5092C140.204 85.8351 139.868 84.8908 139.868 83.6764C139.868 82.4803 140.204 81.5098 140.881 80.7649C141.555 80.0199 142.436 79.6475 143.525 79.6475C144.073 79.6475 144.606 79.7707 145.122 80.0199ZM145.6 82.9419C145.547 82.399 145.424 81.9662 145.23 81.6436C144.873 81.0403 144.278 80.7413 143.446 80.7413C142.848 80.7413 142.347 80.9485 141.943 81.3629C141.539 81.7773 141.324 82.3046 141.301 82.9446H145.6V82.9419Z" fill="#6D6E71"/>
<path d="M150.914 77.5414C151.218 77.1138 151.803 76.9014 152.669 76.9014C152.75 76.9014 152.834 76.904 152.92 76.9092C153.007 76.9145 153.107 76.9197 153.217 76.9302V78.0712C153.08 78.0607 152.983 78.0555 152.926 78.0529C152.865 78.0502 152.808 78.0502 152.755 78.0502C152.359 78.0502 152.123 78.1499 152.047 78.3466C151.971 78.5434 151.932 79.0444 151.932 79.8496H153.217V80.8359H151.916V87.2569H150.631V80.8359H149.555V79.8496H150.631V78.6824C150.652 78.163 150.746 77.7827 150.914 77.5414Z" fill="#6D6E71"/>
<path d="M161.013 80.0199C161.527 80.2691 161.92 80.5891 162.19 80.9826C162.45 81.3577 162.623 81.7957 162.71 82.2967C162.786 82.6403 162.825 83.1859 162.825 83.9361H157.154C157.178 84.6915 157.364 85.2974 157.71 85.7538C158.057 86.2102 158.594 86.4384 159.321 86.4384C160 86.4384 160.543 86.2233 160.947 85.7931C161.178 85.5439 161.343 85.2528 161.438 84.9249H162.718C162.683 85.1977 162.571 85.502 162.382 85.8377C162.193 86.1735 161.978 86.4489 161.742 86.6613C161.346 87.0312 160.858 87.283 160.276 87.4115C159.963 87.485 159.609 87.5217 159.213 87.5217C158.251 87.5217 157.432 87.1833 156.763 86.5092C156.095 85.8351 155.759 84.8908 155.759 83.6764C155.759 82.4803 156.095 81.5098 156.771 80.7649C157.445 80.0199 158.327 79.6475 159.415 79.6475C159.966 79.6475 160.499 79.7707 161.013 80.0199ZM161.49 82.9419C161.438 82.399 161.314 81.9662 161.12 81.6436C160.763 81.0403 160.168 80.7413 159.337 80.7413C158.738 80.7413 158.238 80.9485 157.834 81.3629C157.43 81.7773 157.215 82.3046 157.191 82.9446H161.49V82.9419Z" fill="#6D6E71"/>
<path d="M166.198 79.8153H167.433V80.8724C167.801 80.437 168.186 80.1248 168.595 79.9334C169.005 79.7445 169.458 79.6475 169.962 79.6475C171.061 79.6475 171.801 80.0147 172.186 80.7517C172.399 81.1557 172.504 81.7327 172.504 82.4829V87.2568H171.182V82.5669C171.182 82.1131 171.111 81.7459 170.972 81.4678C170.741 81.0035 170.321 80.7727 169.715 80.7727C169.409 80.7727 169.154 80.8042 168.957 80.8619C168.601 80.9642 168.289 81.1688 168.018 81.4731C167.801 81.7196 167.662 81.9714 167.596 82.2337C167.53 82.496 167.499 82.8685 167.499 83.3564V87.2541H166.198V79.8153Z" fill="#6D6E71"/>
<path d="M176.976 84.9228C177.015 85.3398 177.123 85.6598 177.301 85.8828C177.629 86.2867 178.198 86.4887 179.006 86.4887C179.489 86.4887 179.911 86.389 180.278 86.1871C180.646 85.9851 180.827 85.6729 180.827 85.2533C180.827 84.9333 180.68 84.6893 180.386 84.5241C180.197 84.4218 179.827 84.3037 179.274 84.17L178.24 83.9208C177.582 83.7634 177.094 83.5877 176.782 83.3936C176.223 83.0552 175.943 82.5883 175.943 81.9903C175.943 81.2873 176.205 80.7155 176.735 80.2801C177.262 79.8447 177.973 79.627 178.862 79.627C180.027 79.627 180.869 79.9574 181.383 80.6132C181.705 81.0302 181.863 81.4788 181.852 81.9614H180.625C180.601 81.6781 180.496 81.4211 180.315 81.1903C180.016 80.8624 179.499 80.6971 178.762 80.6971C178.272 80.6971 177.899 80.7889 177.645 80.9673C177.393 81.1483 177.265 81.387 177.265 81.6834C177.265 82.0086 177.43 82.2683 177.763 82.4624C177.954 82.5778 178.24 82.6801 178.615 82.7693L179.476 82.9713C180.41 83.189 181.036 83.3988 181.354 83.6034C181.86 83.9234 182.112 84.427 182.112 85.1116C182.112 85.7753 181.85 86.3471 181.328 86.8271C180.806 87.3097 180.008 87.551 178.941 87.551C177.789 87.551 176.973 87.2992 176.496 86.7982C176.016 86.2946 175.762 85.6729 175.728 84.9333H176.976V84.9228Z" fill="#6D6E71"/>
<path d="M190.196 80.0199C190.71 80.2691 191.103 80.5891 191.373 80.9826C191.633 81.3577 191.806 81.7957 191.893 82.2967C191.969 82.6403 192.008 83.1859 192.008 83.9361H186.337C186.361 84.6915 186.547 85.2974 186.893 85.7538C187.24 86.2102 187.777 86.4384 188.504 86.4384C189.183 86.4384 189.726 86.2233 190.13 85.7931C190.361 85.5439 190.526 85.2528 190.621 84.9249H191.901C191.867 85.1977 191.754 85.502 191.565 85.8377C191.376 86.1735 191.161 86.4489 190.925 86.6613C190.529 87.0312 190.041 87.283 189.459 87.4115C189.147 87.485 188.792 87.5217 188.396 87.5217C187.434 87.5217 186.615 87.1833 185.946 86.5092C185.278 85.8351 184.942 84.8908 184.942 83.6764C184.942 82.4803 185.278 81.5098 185.954 80.7649C186.628 80.0199 187.51 79.6475 188.598 79.6475C189.149 79.6475 189.682 79.7707 190.196 80.0199ZM190.673 82.9419C190.621 82.399 190.497 81.9662 190.303 81.6436C189.947 81.0403 189.351 80.7413 188.52 80.7413C187.922 80.7413 187.421 80.9485 187.017 81.3629C186.613 81.7773 186.398 82.3046 186.374 82.9446H190.673V82.9419Z" fill="#6D6E71"/>
<path d="M201.58 77.0498H206.356C207.3 77.0498 208.061 77.3069 208.638 77.8183C209.215 78.3298 209.504 79.0511 209.504 79.9771C209.504 80.7745 209.247 81.4669 208.73 82.0571C208.216 82.6473 207.421 82.9437 206.353 82.9437H203.014V87.2585H201.577V77.0498H201.58ZM207.185 78.4531C206.867 78.3088 206.432 78.238 205.876 78.238H203.014V81.7738H205.876C206.521 81.7738 207.046 81.6427 207.447 81.3777C207.848 81.1128 208.05 80.6486 208.05 79.9797C208.053 79.2321 207.765 78.7233 207.185 78.4531Z" fill="#6D6E71"/>
<path d="M217.061 82.7489C217.36 82.7122 217.559 82.5915 217.661 82.387C217.719 82.2768 217.748 82.1168 217.748 81.907C217.748 81.4794 217.59 81.1725 217.276 80.9784C216.961 80.7869 216.51 80.6899 215.922 80.6899C215.243 80.6899 214.76 80.8656 214.477 81.2171C214.317 81.4112 214.215 81.7024 214.167 82.0853H212.953C212.977 81.1673 213.286 80.5299 213.881 80.1705C214.477 79.8112 215.167 79.6328 215.951 79.6328C216.861 79.6328 217.601 79.8007 218.17 80.1338C218.734 80.4669 219.015 80.9863 219.015 81.6892V85.9778C219.015 86.1064 219.044 86.2113 219.099 86.29C219.154 86.3687 219.272 86.408 219.45 86.408C219.508 86.408 219.573 86.4054 219.644 86.3975C219.718 86.3896 219.794 86.3792 219.875 86.366V87.2893C219.673 87.3444 219.518 87.3811 219.413 87.3943C219.308 87.4074 219.162 87.4152 218.981 87.4152C218.532 87.4152 218.207 87.2631 218.005 86.9562C217.897 86.7936 217.824 86.5654 217.779 86.269C217.514 86.6021 217.134 86.8933 216.638 87.1372C216.143 87.3811 215.597 87.5044 214.999 87.5044C214.28 87.5044 213.695 87.2946 213.239 86.8749C212.785 86.4552 212.557 85.9306 212.557 85.3011C212.557 84.6113 212.78 84.0762 213.228 83.6958C213.677 83.3155 214.264 83.082 214.991 82.9929L217.061 82.7489ZM214.322 86.1326C214.598 86.3424 214.923 86.4447 215.298 86.4447C215.754 86.4447 216.198 86.3424 216.628 86.1378C217.349 85.7995 217.711 85.246 217.711 84.4775V83.4703C217.551 83.5673 217.346 83.6486 217.097 83.7142C216.845 83.7798 216.602 83.8244 216.36 83.8532L215.573 83.9503C215.101 84.0106 214.747 84.105 214.511 84.2362C214.11 84.4539 213.91 84.8001 213.91 85.2775C213.91 85.6395 214.047 85.9228 214.322 86.1326Z" fill="#6D6E71"/>
<path d="M222.955 79.8156H224.19V81.1009C224.292 80.8517 224.539 80.5475 224.935 80.1881C225.331 79.8288 225.785 79.6504 226.302 79.6504C226.325 79.6504 226.367 79.653 226.425 79.6583C226.483 79.6635 226.582 79.6714 226.721 79.6845V81.0039C226.645 80.9907 226.572 80.9802 226.509 80.975C226.443 80.9698 226.372 80.9671 226.296 80.9671C225.641 80.9671 225.137 81.1691 224.785 81.5757C224.434 81.9822 224.258 82.4491 224.258 82.9763V87.2571H222.957V79.8156H222.955Z" fill="#6D6E71"/>
<path d="M229.882 77.7393H231.196V79.8167H232.431V80.837H231.196V85.6948C231.196 85.9545 231.288 86.1276 231.471 86.2168C231.574 86.2692 231.741 86.2928 231.977 86.2928C232.04 86.2928 232.109 86.2928 232.179 86.2902C232.253 86.2876 232.337 86.2823 232.431 86.2719V87.2581C232.282 87.3001 232.127 87.3289 231.964 87.3473C231.804 87.3656 231.629 87.3761 231.44 87.3761C230.834 87.3761 230.422 87.2266 230.204 86.9276C229.987 86.6286 229.879 86.2404 229.879 85.763V80.837H228.833V79.8167H229.879V77.7393H229.882Z" fill="#6D6E71"/>
<path d="M235.508 79.8153H236.743V80.8724C237.111 80.437 237.496 80.1248 237.905 79.9334C238.315 79.7445 238.771 79.6475 239.272 79.6475C240.371 79.6475 241.111 80.0147 241.496 80.7517C241.709 81.1557 241.814 81.7327 241.814 82.4829V87.2568H240.492V82.5669C240.492 82.1131 240.421 81.7459 240.282 81.4678C240.051 81.0035 239.631 80.7727 239.025 80.7727C238.716 80.7727 238.464 80.8042 238.267 80.8619C237.911 80.9642 237.599 81.1688 237.328 81.4731C237.111 81.7196 236.972 81.9714 236.906 82.2337C236.841 82.496 236.809 82.8685 236.809 83.3564V87.2541H235.508V79.8153Z" fill="#6D6E71"/>
<path d="M250.331 80.0199C250.845 80.2691 251.238 80.5891 251.508 80.9826C251.768 81.3577 251.941 81.7957 252.028 82.2967C252.104 82.6403 252.143 83.1859 252.143 83.9361H246.472C246.496 84.6915 246.682 85.2974 247.028 85.7538C247.374 86.2102 247.912 86.4384 248.639 86.4384C249.318 86.4384 249.861 86.2233 250.265 85.7931C250.496 85.5439 250.661 85.2528 250.755 84.9249H252.035C252.001 85.1977 251.889 85.502 251.7 85.8377C251.511 86.1735 251.296 86.4489 251.06 86.6613C250.664 87.0312 250.176 87.283 249.593 87.4115C249.281 87.485 248.927 87.5217 248.531 87.5217C247.569 87.5217 246.75 87.1833 246.081 86.5092C245.412 85.8351 245.077 84.8908 245.077 83.6764C245.077 82.4803 245.412 81.5098 246.089 80.7649C246.763 80.0199 247.645 79.6475 248.733 79.6475C249.284 79.6475 249.816 79.7707 250.331 80.0199ZM250.808 82.9419C250.755 82.399 250.632 81.9662 250.438 81.6436C250.081 81.0403 249.486 80.7413 248.654 80.7413C248.056 80.7413 247.555 80.9485 247.151 81.3629C246.748 81.7773 246.532 82.3046 246.509 82.9446H250.808V82.9419Z" fill="#6D6E71"/>
<path d="M255.553 79.8156H256.788V81.1009C256.89 80.8517 257.137 80.5475 257.533 80.1881C257.929 79.8288 258.383 79.6504 258.9 79.6504C258.923 79.6504 258.965 79.653 259.023 79.6583C259.081 79.6635 259.18 79.6714 259.319 79.6845V81.0039C259.243 80.9907 259.17 80.9802 259.107 80.975C259.041 80.9698 258.97 80.9671 258.894 80.9671C258.239 80.9671 257.735 81.1691 257.384 81.5757C257.032 81.9822 256.856 82.4491 256.856 82.9763V87.2571H255.555V79.8156H255.553Z" fill="#6D6E71"/>
</svg>
