<svg width="155" height="54" viewBox="0 0 155 54" fill="none" xmlns="http://www.w3.org/2000/svg">
<path d="M40.9058 20.5981C42.3115 21.2278 43.473 22.2214 44.3889 23.5805C45.2145 24.7793 45.7495 26.1679 45.9951 27.7477C46.1366 28.6745 46.1957 30.0086 46.1693 31.7486H31.4875C31.5683 33.7716 32.2712 35.1881 33.5944 36.0029C34.3999 36.5083 35.3686 36.7617 36.5006 36.7617C37.701 36.7617 38.6776 36.4539 39.427 35.8365C39.836 35.5038 40.1983 35.042 40.5124 34.4495H45.8941C45.7526 35.6453 45.101 36.8597 43.9395 38.0928C42.1326 40.0536 39.6059 41.0347 36.3545 41.0347C33.6706 41.0347 31.304 40.2075 29.253 38.5546C27.202 36.9001 26.1758 34.2101 26.1758 30.4829C26.1758 26.9905 27.101 24.3128 28.9529 22.45C30.8049 20.5872 33.2072 19.6558 36.1616 19.6558C37.9203 19.6542 39.5001 19.9683 40.9058 20.5981ZM33.0191 25.1525C32.2743 25.9206 31.8062 26.9594 31.6165 28.2717H40.6974C40.601 26.8723 40.133 25.8118 39.2933 25.0872C38.4521 24.3626 37.4118 24.0003 36.1679 24.0003C34.8135 24.0003 33.7655 24.3844 33.0191 25.1525Z" fill="black"/>
<path d="M60.8946 27.4212C60.7967 26.6701 60.5417 25.9906 60.1343 25.3873C59.5418 24.5725 58.6213 24.1666 57.3727 24.1666C55.5938 24.1666 54.3763 25.0467 53.7217 26.8101C53.3749 27.7461 53.2023 28.987 53.2023 30.5373C53.2023 32.0129 53.3749 33.2009 53.7217 34.0981C54.3514 35.7759 55.5378 36.614 57.2809 36.614C58.5156 36.614 59.3941 36.2812 59.9135 35.6157C60.4328 34.9486 60.7469 34.0872 60.8589 33.0267H66.2405C66.1161 34.6299 65.5362 36.146 64.499 37.5765C62.8445 39.8825 60.3955 41.0347 57.1503 41.0347C53.9036 41.0347 51.5152 40.0722 49.9851 38.1487C48.4551 36.2237 47.6885 33.7311 47.6885 30.6663C47.6885 27.2081 48.5344 24.5181 50.2246 22.593C51.9148 20.6696 54.2472 19.7086 57.2219 19.7086C59.7518 19.7086 61.8229 20.2746 63.4339 21.4097C65.0432 22.5448 65.998 24.5476 66.2934 27.4212H60.8946Z" fill="black"/>
<path d="M84.3898 20.3011C85.4021 20.7334 86.234 21.3942 86.8855 22.2821C87.4375 23.0362 87.7749 23.8106 87.8978 24.6052C88.0206 25.4013 88.0828 26.7013 88.0828 28.5019V40.349H82.6996V28.0727C82.6996 26.9858 82.5161 26.1088 82.1491 25.4433C81.6718 24.5041 80.7668 24.0361 79.4326 24.0361C78.0487 24.0361 77.0007 24.5026 76.2839 25.434C75.5686 26.3654 75.2094 27.6949 75.2094 29.424V40.349H69.9397V13.1794H75.2094V22.7968C75.9713 21.6259 76.853 20.808 77.8528 20.3462C78.8542 19.8844 79.9069 19.6527 81.0125 19.6527C82.2502 19.6542 83.3775 19.8688 84.3898 20.3011Z" fill="black"/>
<path d="M106.176 20.5981C107.582 21.2278 108.743 22.2214 109.659 23.5805C110.485 24.7793 111.021 26.1679 111.266 27.7477C111.409 28.6745 111.465 30.0086 111.438 31.7486H96.7563C96.8388 33.7716 97.5416 35.1881 98.8648 36.0029C99.6703 36.5083 100.637 36.7617 101.771 36.7617C102.97 36.7617 103.946 36.4539 104.697 35.8365C105.106 35.5038 105.469 35.042 105.783 34.4495H111.164C111.021 35.6453 110.37 36.8597 109.21 38.0928C107.403 40.0536 104.875 41.0347 101.625 41.0347C98.941 41.0347 96.5744 40.2075 94.5234 38.5546C92.4725 36.9001 91.4478 34.2101 91.4478 30.4829C91.4478 26.9905 92.3745 24.3128 94.2249 22.45C96.0768 20.5872 98.4792 19.6558 101.434 19.6558C103.189 19.6542 104.769 19.9683 106.176 20.5981ZM98.2911 25.1525C97.5447 25.9206 97.0782 26.9594 96.8854 28.2717H105.966C105.871 26.8723 105.403 25.8118 104.564 25.0872C103.722 24.3626 102.681 24.0003 101.437 24.0003C100.084 24.0003 99.0343 24.3844 98.2911 25.1525Z" fill="black"/>
<path d="M130.362 21.346C131.682 22.4375 132.341 24.2475 132.341 26.7743V40.349H126.941V28.0882C126.941 27.0277 126.801 26.213 126.52 25.6454C126.006 24.6098 125.025 24.092 123.582 24.092C121.807 24.092 120.589 24.8508 119.93 26.3669C119.586 27.1693 119.415 28.1924 119.415 29.4364V40.349H114.144V20.2264H119.25V23.1668C119.925 22.1312 120.564 21.3864 121.166 20.9293C122.245 20.116 123.615 19.7086 125.274 19.7086C127.344 19.7086 129.042 20.2544 130.362 21.346Z" fill="black"/>
<path d="M141.33 33.9131C141.441 34.8507 141.683 35.5162 142.055 35.9112C142.711 36.614 143.926 36.9654 145.697 36.9654C146.739 36.9654 147.566 36.8115 148.177 36.5036C148.791 36.1957 149.097 35.7339 149.097 35.1166C149.097 34.5242 148.85 34.0748 148.357 33.7669C147.863 33.459 146.026 32.9288 142.843 32.1762C140.553 31.6102 138.937 30.8996 138.001 30.049C137.065 29.2109 136.596 28.0027 136.596 26.4244C136.596 24.5632 137.328 22.9631 138.793 21.6243C140.256 20.2871 142.316 19.6169 144.974 19.6169C147.493 19.6169 149.548 20.1191 151.137 21.1252C152.724 22.1297 153.636 23.865 153.871 26.3311H148.6C148.525 25.6532 148.334 25.1167 148.024 24.7218C147.443 24.0065 146.452 23.6489 145.056 23.6489C143.907 23.6489 143.088 23.8277 142.601 24.1853C142.111 24.543 141.867 24.9612 141.867 25.4433C141.867 26.0481 142.127 26.4866 142.646 26.7572C143.164 27.0418 145 27.5285 148.15 28.2188C150.25 28.7118 151.823 29.4581 152.871 30.4564C153.907 31.4687 154.425 32.7313 154.425 34.2489C154.425 36.247 153.68 37.8766 152.192 39.1408C150.702 40.4034 148.401 41.0363 145.289 41.0363C142.113 41.0363 139.769 40.3661 138.256 39.0288C136.742 37.6916 135.986 35.9874 135.986 33.9146H141.33V33.9131Z" fill="black"/>
<path d="M17.4401 13.0877V40.349H22.9275V17.9158H31.0847V13.0877H17.4401Z" fill="black"/>
<path d="M0.744629 13.0877V17.9158H8.93764V40.349H14.3893V13.0877H0.744629Z" fill="black"/>
<path d="M20.6806 5.58192C20.6806 8.21444 18.5456 10.3494 15.9131 10.3494C13.2806 10.3494 11.1456 8.216 11.1456 5.58192C11.1472 2.94784 13.2806 0.814453 15.9147 0.814453C18.5472 0.814453 20.6806 2.94784 20.6806 5.58192Z" fill="#00ADEE"/>
<path d="M13.4128 46.1443C14.0379 46.4599 14.4204 47.0135 14.5603 47.805H13.716C13.6134 47.3634 13.4003 47.0415 13.0785 46.8393C12.755 46.6372 12.3492 46.5361 11.8578 46.5361C11.2747 46.5361 10.7849 46.746 10.3868 47.1659C9.98877 47.5857 9.78974 48.2124 9.78974 49.0443C9.78974 49.7642 9.95301 50.3489 10.2827 50.8014C10.6123 51.2538 11.1457 51.4793 11.8889 51.4793C12.4565 51.4793 12.9276 51.3207 13.3008 51.0035C13.674 50.6863 13.8637 50.1732 13.873 49.4657H11.8998V48.7861H14.6629V52.0235H14.114L13.9088 51.2445C13.6211 51.5493 13.3646 51.7608 13.1422 51.8789C12.7675 52.0826 12.2932 52.1837 11.7163 52.1837C10.9715 52.1837 10.3293 51.952 9.79285 51.4871C9.20819 50.9055 8.91431 50.1063 8.91431 49.0894C8.91431 48.0755 9.20042 47.2701 9.77108 46.6714C10.3138 46.1007 11.0166 45.8146 11.878 45.8146C12.4705 45.8146 12.9805 45.9235 13.4128 46.1443Z" fill="#6D6E71"/>
<path d="M17.7246 45.9702H16.9534V52.022H17.7246V45.9702Z" fill="#6D6E71"/>
<path d="M23.282 48.0506C23.691 48.4301 23.8947 48.9867 23.8947 49.7238C23.8947 50.4344 23.7143 51.0222 23.3551 51.4871C22.9959 51.9505 22.4377 52.1837 21.6804 52.1837C21.0491 52.1837 20.5484 51.9784 20.1768 51.5679C19.8052 51.1574 19.6201 50.6054 19.6201 49.9135C19.6201 49.1718 19.816 48.5809 20.2063 48.1424C20.5982 47.7023 21.1238 47.4831 21.783 47.4831C22.3755 47.4831 22.8746 47.6728 23.282 48.0506ZM22.8046 50.9864C22.9944 50.6148 23.0892 50.1996 23.0892 49.744C23.0892 49.3319 23.0208 48.9976 22.884 48.7395C22.6678 48.3336 22.2931 48.13 21.7613 48.13C21.2901 48.13 20.948 48.3026 20.7335 48.6493C20.5189 48.9945 20.4116 49.4128 20.4116 49.901C20.4116 50.3706 20.5189 50.7625 20.7335 51.075C20.948 51.3876 21.287 51.5446 21.7535 51.5446C22.2651 51.5446 22.6149 51.358 22.8046 50.9864Z" fill="#6D6E71"/>
<path d="M25.8042 45.95H26.5537V48.1455C26.7216 47.9341 26.9238 47.7723 27.157 47.6619C27.3918 47.55 27.6453 47.4956 27.9189 47.4956C28.4896 47.4956 28.953 47.6837 29.309 48.0616C29.6651 48.4394 29.8424 48.9961 29.8424 49.7316C29.8424 50.4298 29.6667 51.0082 29.3153 51.47C28.9639 51.9318 28.4772 52.162 27.8552 52.162C27.5069 52.162 27.213 52.0811 26.9735 51.9194C26.8305 51.823 26.6781 51.669 26.5148 51.4576V52.022H25.8042V45.95ZM28.7446 51.03C28.9514 50.7112 29.0556 50.2914 29.0556 49.7689C29.0556 49.3055 28.9514 48.9199 28.7446 48.6151C28.5378 48.3104 28.233 48.158 27.8303 48.158C27.4789 48.158 27.171 48.2824 26.9067 48.5327C26.6423 48.7831 26.5101 49.1951 26.5101 49.7689C26.5101 50.1841 26.5646 50.5199 26.6734 50.7781C26.8756 51.2648 27.255 51.5073 27.8085 51.5073C28.2253 51.5073 28.5378 51.3487 28.7446 51.03Z" fill="#6D6E71"/>
<path d="M34.2538 49.349C34.4311 49.3273 34.5493 49.2557 34.6099 49.1345C34.6441 49.0692 34.6612 48.9743 34.6612 48.8499C34.6612 48.5965 34.5679 48.4145 34.3813 48.2995C34.1947 48.1859 33.9273 48.1284 33.5774 48.1284C33.1747 48.1284 32.8901 48.2326 32.7206 48.441C32.6258 48.556 32.5652 48.7286 32.5372 48.9556H31.8172C31.8312 48.4114 32.0147 48.0336 32.3677 47.8205C32.7206 47.6075 33.1296 47.5018 33.5945 47.5018C34.1341 47.5018 34.5726 47.6013 34.91 47.7988C35.2443 47.9962 35.4107 48.3041 35.4107 48.7208V51.2632C35.4107 51.3394 35.4278 51.4016 35.4605 51.4482C35.4931 51.4949 35.5631 51.5182 35.6688 51.5182C35.703 51.5182 35.7419 51.5166 35.7839 51.512C35.8259 51.5073 35.8725 51.5011 35.9207 51.4933V52.0407C35.801 52.0733 35.7093 52.0951 35.6471 52.1029C35.5849 52.1106 35.4978 52.1153 35.3905 52.1153C35.1246 52.1153 34.9318 52.0251 34.8121 51.8432C34.7499 51.7468 34.7048 51.6115 34.6799 51.4358C34.5228 51.6333 34.2974 51.8059 34.0035 51.9505C33.7096 52.0951 33.3846 52.1682 33.0316 52.1682C32.6056 52.1682 32.2588 52.0438 31.9883 51.795C31.7193 51.5462 31.584 51.2352 31.584 50.862C31.584 50.4531 31.7162 50.1358 31.9821 49.9104C32.2479 49.6849 32.5963 49.5465 33.027 49.4937L34.2538 49.349ZM32.6305 51.3549C32.7937 51.4793 32.9865 51.54 33.2089 51.54C33.4795 51.54 33.7423 51.4793 33.9973 51.358C34.4264 51.1574 34.6395 50.8294 34.6395 50.3738V49.7767C34.5446 49.8342 34.4233 49.8824 34.2756 49.9213C34.1263 49.9601 33.9817 49.9866 33.8387 50.0037L33.3722 50.0612C33.0923 50.097 32.8824 50.153 32.7424 50.2307C32.5061 50.3598 32.3863 50.565 32.3863 50.848C32.3863 51.0626 32.4672 51.2305 32.6305 51.3549Z" fill="#6D6E71"/>
<path d="M38.5191 45.9702H37.7478V52.022H38.5191V45.9702Z" fill="#6D6E71"/>
<path d="M48.825 46.4118C49.2651 46.8161 49.5092 47.2748 49.5574 47.7879H48.7271C48.6322 47.3976 48.4456 47.0882 48.1642 46.8611C47.8827 46.6326 47.4878 46.5191 46.9793 46.5191C46.3604 46.5191 45.8597 46.729 45.4788 47.1473C45.0978 47.5655 44.9066 48.2077 44.9066 49.0738C44.9066 49.7829 45.0792 50.3567 45.4228 50.7983C45.7664 51.2383 46.2796 51.4591 46.9622 51.4591C47.5904 51.4591 48.0678 51.2274 48.3974 50.7625C48.5716 50.5184 48.7022 50.1965 48.7877 49.7984H49.6181C49.5434 50.436 49.2977 50.9693 48.881 51.4016C48.3819 51.9209 47.707 52.1806 46.8596 52.1806C46.1288 52.1806 45.5146 51.9676 45.0185 51.5415C44.3639 50.9786 44.0374 50.1094 44.0374 48.9339C44.0374 48.0413 44.283 47.309 44.7744 46.7383C45.3062 46.1179 46.0386 45.8069 46.9715 45.8069C47.7677 45.8053 48.3865 46.0075 48.825 46.4118Z" fill="#6D6E71"/>
<path d="M54.4695 47.6106H55.3216C55.2128 47.8936 54.9718 48.5389 54.5986 49.5465C54.3187 50.3053 54.0839 50.9226 53.8957 51.4C53.451 52.5258 53.1354 53.213 52.9534 53.4603C52.77 53.7075 52.4559 53.8304 52.0111 53.8304C51.9023 53.8304 51.8199 53.8257 51.7608 53.8179C51.7017 53.8101 51.6302 53.7946 51.5447 53.7728V53.0964C51.6784 53.1322 51.7763 53.1539 51.8354 53.1617C51.8961 53.1695 51.9489 53.1742 51.994 53.1742C52.1371 53.1742 52.2413 53.1508 52.3081 53.1057C52.375 53.0607 52.431 53.0047 52.4776 52.9394C52.4916 52.9176 52.5429 52.8056 52.6316 52.6019C52.7202 52.3982 52.7839 52.2474 52.8244 52.1495L51.1279 47.609H52.0018L53.2318 51.2009L54.4695 47.6106Z" fill="#6D6E71"/>
<path d="M56.9824 45.95H57.7319V48.1455C57.8998 47.9341 58.102 47.7723 58.3352 47.6619C58.57 47.55 58.8235 47.4956 59.0971 47.4956C59.6678 47.4956 60.1312 47.6837 60.4873 48.0616C60.8434 48.4394 61.0206 48.9961 61.0206 49.7316C61.0206 50.4298 60.8449 51.0082 60.4935 51.47C60.1421 51.9318 59.6554 52.162 59.0334 52.162C58.6851 52.162 58.3912 52.0811 58.1517 51.9194C58.0087 51.823 57.8563 51.669 57.693 51.4576V52.022H56.9824V45.95ZM59.9228 51.03C60.1296 50.7112 60.2338 50.2914 60.2338 49.7689C60.2338 49.3055 60.1296 48.9199 59.9228 48.6151C59.716 48.3104 59.4112 48.158 59.0085 48.158C58.6571 48.158 58.3492 48.2824 58.0849 48.5327C57.8205 48.7831 57.6884 49.1951 57.6884 49.7689C57.6884 50.1841 57.7428 50.5199 57.8516 50.7781C58.0538 51.2648 58.4332 51.5073 58.9867 51.5073C59.4035 51.5073 59.716 51.3487 59.9228 51.03Z" fill="#6D6E71"/>
<path d="M65.8301 47.7319C66.1349 47.8796 66.3681 48.0693 66.5283 48.3026C66.6822 48.5249 66.7849 48.7846 66.8362 49.0816C66.8813 49.2853 66.9046 49.6087 66.9046 50.0534H63.5428C63.5568 50.5013 63.6672 50.8605 63.8725 51.131C64.0777 51.4016 64.3965 51.5369 64.8272 51.5369C65.2299 51.5369 65.5518 51.4094 65.7913 51.1543C65.9281 51.0066 66.0261 50.834 66.082 50.6397H66.8408C66.8206 50.8014 66.7538 50.9817 66.6418 51.1808C66.5299 51.3798 66.4024 51.5431 66.2624 51.669C66.0276 51.8883 65.7384 52.0376 65.3932 52.1138C65.2082 52.1573 64.9982 52.1791 64.7634 52.1791C64.1928 52.1791 63.7076 51.9785 63.3111 51.5788C62.9146 51.1792 62.7156 50.6194 62.7156 49.8995C62.7156 49.1905 62.9146 48.6151 63.3158 48.1735C63.7154 47.7319 64.2379 47.5111 64.8832 47.5111C65.2097 47.5111 65.5254 47.5842 65.8301 47.7319ZM66.1131 49.4641C66.082 49.1422 66.009 48.8857 65.8939 48.6944C65.6824 48.3368 65.3294 48.1595 64.8365 48.1595C64.482 48.1595 64.185 48.2824 63.9455 48.528C63.7061 48.7737 63.5786 49.0863 63.5646 49.4657H66.1131V49.4641Z" fill="#6D6E71"/>
<path d="M68.926 47.6106H69.6584V48.3725C69.719 48.2248 69.8652 48.0444 70.1 47.8314C70.3348 47.6184 70.6038 47.5126 70.9101 47.5126C70.9241 47.5126 70.949 47.5142 70.9832 47.5173C71.0174 47.5204 71.0765 47.5251 71.1589 47.5328V48.315C71.1138 48.3072 71.0703 48.301 71.033 48.2979C70.9941 48.2948 70.9521 48.2932 70.907 48.2932C70.5183 48.2932 70.2197 48.4129 70.0114 48.654C69.803 48.895 69.6988 49.1718 69.6988 49.4843V52.022H68.9276V47.6106H68.926Z" fill="#6D6E71"/>
<path d="M76.5093 45.9702H79.0578C79.9224 45.9702 80.5941 46.2656 81.0715 46.8565C81.496 47.3898 81.709 48.0724 81.709 48.9043C81.709 49.5465 81.5831 50.1281 81.3327 50.6474C80.8896 51.5649 80.1292 52.0236 79.0501 52.0236H76.5108V45.9702H76.5093ZM78.8868 51.3223C79.1745 51.3223 79.4124 51.2927 79.5974 51.2352C79.9286 51.1279 80.1992 50.9227 80.4106 50.6179C80.5786 50.3738 80.6999 50.0612 80.7745 49.6787C80.818 49.4517 80.8383 49.2387 80.8383 49.0443C80.8383 48.2948 80.6827 47.7117 80.3733 47.2981C80.0639 46.8829 79.5647 46.6761 78.8759 46.6761H77.3645V51.3223H78.8868Z" fill="#6D6E71"/>
<path d="M86.6119 47.7319C86.9166 47.8796 87.1499 48.0693 87.31 48.3026C87.464 48.5249 87.5666 48.7846 87.6179 49.0816C87.663 49.2853 87.6863 49.6087 87.6863 50.0534H84.3245C84.3385 50.5013 84.4489 50.8605 84.6542 51.131C84.8594 51.4016 85.1782 51.5369 85.6089 51.5369C86.0117 51.5369 86.3335 51.4094 86.573 51.1543C86.7098 51.0066 86.8078 50.834 86.8638 50.6397H87.6226C87.6024 50.8014 87.5355 50.9817 87.4236 51.1808C87.3116 51.3798 87.1841 51.5431 87.0441 51.669C86.8094 51.8883 86.5201 52.0376 86.1749 52.1138C85.9899 52.1573 85.78 52.1791 85.5452 52.1791C84.9745 52.1791 84.4894 51.9785 84.0929 51.5788C83.6964 51.1792 83.4973 50.6194 83.4973 49.8995C83.4973 49.1905 83.6963 48.6151 84.0975 48.1735C84.4971 47.7319 85.0196 47.5111 85.6649 47.5111C85.9899 47.5111 86.3055 47.5842 86.6119 47.7319ZM86.8949 49.4641C86.8638 49.1422 86.7907 48.8857 86.6756 48.6944C86.4642 48.3368 86.1112 48.1595 85.6183 48.1595C85.2637 48.1595 84.9667 48.2824 84.7273 48.528C84.4878 48.7737 84.3603 49.0863 84.3463 49.4657H86.8949V49.4641Z" fill="#6D6E71"/>
<path d="M90.0452 46.2625C90.2256 46.009 90.5723 45.8831 91.0855 45.8831C91.1337 45.8831 91.1834 45.8846 91.2347 45.8877C91.2861 45.8908 91.3451 45.8939 91.4105 45.9002V46.5766C91.3296 46.5703 91.2721 46.5672 91.2378 46.5657C91.2021 46.5641 91.1679 46.5641 91.1368 46.5641C90.902 46.5641 90.762 46.6232 90.7169 46.7398C90.6719 46.8565 90.6485 47.1534 90.6485 47.6308H91.4105V48.2155H90.6392V52.022H89.8773V48.2155H89.2397V47.6308H89.8773V46.9389C89.8897 46.631 89.9457 46.4055 90.0452 46.2625Z" fill="#6D6E71"/>
<path d="M96.0318 47.7319C96.3366 47.8796 96.5698 48.0693 96.73 48.3026C96.8839 48.5249 96.9865 48.7846 97.0378 49.0816C97.0829 49.2853 97.1063 49.6087 97.1063 50.0534H93.7445C93.7585 50.5013 93.8689 50.8605 94.0741 51.131C94.2794 51.4016 94.5981 51.5369 95.0288 51.5369C95.4316 51.5369 95.7535 51.4094 95.9929 51.1543C96.1298 51.0066 96.2277 50.834 96.2837 50.6397H97.0425C97.0223 50.8014 96.9554 50.9817 96.8435 51.1808C96.7315 51.3798 96.604 51.5431 96.4641 51.669C96.2293 51.8883 95.94 52.0376 95.5949 52.1138C95.4098 52.1573 95.1999 52.1791 94.9651 52.1791C94.3944 52.1791 93.9093 51.9785 93.5128 51.5788C93.1163 51.1792 92.9172 50.6194 92.9172 49.8995C92.9172 49.1905 93.1163 48.6151 93.5174 48.1735C93.9171 47.7319 94.4395 47.5111 95.0848 47.5111C95.4114 47.5111 95.727 47.5842 96.0318 47.7319ZM96.3148 49.4641C96.2837 49.1422 96.2106 48.8857 96.0955 48.6944C95.8841 48.3368 95.5311 48.1595 95.0382 48.1595C94.6836 48.1595 94.3867 48.2824 94.1472 48.528C93.9077 48.7737 93.7802 49.0863 93.7662 49.4657H96.3148V49.4641Z" fill="#6D6E71"/>
<path d="M99.106 47.6106H99.8383V48.2373C100.056 47.9791 100.285 47.7941 100.527 47.6806C100.77 47.5686 101.039 47.5111 101.337 47.5111C101.989 47.5111 102.427 47.7288 102.656 48.1657C102.782 48.4052 102.844 48.7473 102.844 49.192V52.022H102.06V49.2418C102.06 48.9728 102.018 48.7551 101.936 48.5902C101.799 48.315 101.55 48.1782 101.191 48.1782C101.009 48.1782 100.858 48.1968 100.742 48.231C100.53 48.2917 100.345 48.413 100.185 48.5933C100.056 48.7395 99.9736 48.8888 99.9347 49.0443C99.8959 49.1998 99.8772 49.4206 99.8772 49.7098V52.0205H99.106V47.6106Z" fill="#6D6E71"/>
<path d="M105.495 50.6381C105.518 50.8853 105.582 51.075 105.688 51.2072C105.882 51.4467 106.22 51.5664 106.699 51.5664C106.985 51.5664 107.235 51.5073 107.453 51.3876C107.67 51.2678 107.778 51.0828 107.778 50.834C107.778 50.6443 107.691 50.4997 107.516 50.4017C107.405 50.3411 107.185 50.2711 106.857 50.1918L106.245 50.0441C105.854 49.9508 105.565 49.8466 105.38 49.7316C105.049 49.531 104.882 49.2542 104.882 48.8997C104.882 48.4829 105.038 48.144 105.352 47.8858C105.665 47.6277 106.086 47.4987 106.613 47.4987C107.303 47.4987 107.803 47.6946 108.107 48.0833C108.299 48.3306 108.392 48.5964 108.386 48.8826H107.658C107.644 48.7146 107.582 48.5622 107.474 48.4254C107.297 48.231 106.991 48.1331 106.554 48.1331C106.263 48.1331 106.042 48.1875 105.892 48.2932C105.742 48.4005 105.666 48.542 105.666 48.7177C105.666 48.9105 105.764 49.0645 105.962 49.1796C106.075 49.248 106.245 49.3086 106.467 49.3615L106.977 49.4812C107.53 49.6103 107.902 49.7347 108.09 49.856C108.39 50.0457 108.54 50.3442 108.54 50.7501C108.54 51.1435 108.384 51.4824 108.075 51.767C107.765 52.0531 107.293 52.1961 106.66 52.1961C105.977 52.1961 105.493 52.0469 105.21 51.7499C104.926 51.4513 104.775 51.0828 104.755 50.6443H105.495V50.6381Z" fill="#6D6E71"/>
<path d="M113.332 47.7319C113.637 47.8796 113.87 48.0693 114.03 48.3026C114.184 48.5249 114.287 48.7846 114.338 49.0816C114.383 49.2853 114.407 49.6087 114.407 50.0534H111.045C111.059 50.5013 111.169 50.8605 111.374 51.131C111.58 51.4016 111.898 51.5369 112.329 51.5369C112.732 51.5369 113.054 51.4094 113.293 51.1543C113.43 51.0066 113.528 50.834 113.584 50.6397H114.343C114.323 50.8014 114.256 50.9817 114.144 51.1808C114.032 51.3798 113.904 51.5431 113.764 51.669C113.53 51.8883 113.24 52.0376 112.895 52.1138C112.71 52.1573 112.5 52.1791 112.265 52.1791C111.695 52.1791 111.21 51.9785 110.813 51.5788C110.417 51.1792 110.218 50.6194 110.218 49.8995C110.218 49.1905 110.417 48.6151 110.818 48.1735C111.217 47.7319 111.74 47.5111 112.385 47.5111C112.712 47.5111 113.027 47.5842 113.332 47.7319ZM113.615 49.4641C113.584 49.1422 113.511 48.8857 113.396 48.6944C113.184 48.3368 112.831 48.1595 112.338 48.1595C111.984 48.1595 111.687 48.2824 111.447 48.528C111.208 48.7737 111.081 49.0863 111.067 49.4657H113.615V49.4641Z" fill="#6D6E71"/>
<path d="M120.081 45.9702H122.912C123.472 45.9702 123.923 46.1225 124.265 46.4258C124.607 46.729 124.778 47.1566 124.778 47.7055C124.778 48.1782 124.626 48.5887 124.319 48.9385C124.015 49.2884 123.544 49.4641 122.911 49.4641H120.931V52.022H120.079V45.9702H120.081ZM123.404 46.8021C123.215 46.7165 122.957 46.6745 122.628 46.6745H120.931V48.7706H122.628C123.01 48.7706 123.321 48.6929 123.559 48.5358C123.797 48.3788 123.917 48.1035 123.917 47.707C123.918 47.2639 123.747 46.9622 123.404 46.8021Z" fill="#6D6E71"/>
<path d="M129.258 49.349C129.435 49.3273 129.553 49.2557 129.614 49.1345C129.648 49.0692 129.665 48.9743 129.665 48.8499C129.665 48.5965 129.572 48.4145 129.385 48.2995C129.199 48.1859 128.931 48.1284 128.583 48.1284C128.18 48.1284 127.894 48.2326 127.726 48.441C127.631 48.556 127.571 48.7286 127.543 48.9556H126.823C126.837 48.4114 127.02 48.0336 127.373 47.8205C127.726 47.6075 128.135 47.5018 128.6 47.5018C129.14 47.5018 129.578 47.6013 129.915 47.7988C130.25 47.9962 130.416 48.3041 130.416 48.7208V51.2632C130.416 51.3394 130.433 51.4016 130.466 51.4482C130.499 51.4949 130.569 51.5182 130.674 51.5182C130.709 51.5182 130.747 51.5166 130.789 51.512C130.833 51.5073 130.878 51.5011 130.926 51.4933V52.0407C130.806 52.0733 130.715 52.0951 130.653 52.1029C130.59 52.1106 130.503 52.1153 130.396 52.1153C130.13 52.1153 129.937 52.0251 129.818 51.8432C129.754 51.7468 129.71 51.6115 129.684 51.4358C129.527 51.6333 129.301 51.8059 129.007 51.9505C128.714 52.0951 128.39 52.1682 128.036 52.1682C127.609 52.1682 127.263 52.0438 126.992 51.795C126.723 51.5462 126.588 51.2352 126.588 50.862C126.588 50.4531 126.72 50.1358 126.986 49.9104C127.252 49.6849 127.6 49.5465 128.031 49.4937L129.258 49.349ZM127.634 51.3549C127.798 51.4793 127.99 51.54 128.213 51.54C128.483 51.54 128.746 51.4793 129.001 51.358C129.429 51.1574 129.643 50.8294 129.643 50.3738V49.7767C129.549 49.8342 129.427 49.8824 129.28 49.9213C129.13 49.9601 128.986 49.9866 128.843 50.0037L128.376 50.0612C128.096 50.097 127.886 50.153 127.746 50.2307C127.508 50.3598 127.39 50.565 127.39 50.848C127.39 51.0626 127.471 51.2305 127.634 51.3549Z" fill="#6D6E71"/>
<path d="M132.752 47.6106H133.484V48.3725C133.545 48.2248 133.691 48.0444 133.926 47.8314C134.16 47.6184 134.429 47.5126 134.736 47.5126C134.75 47.5126 134.775 47.5142 134.809 47.5173C134.843 47.5204 134.902 47.5251 134.985 47.5328V48.315C134.94 48.3072 134.896 48.301 134.859 48.2979C134.82 48.2948 134.778 48.2932 134.733 48.2932C134.344 48.2932 134.045 48.4129 133.837 48.654C133.629 48.895 133.525 49.1718 133.525 49.4843V52.022H132.753V47.6106H132.752Z" fill="#6D6E71"/>
<path d="M136.859 46.3791H137.638V47.6106H138.37V48.2155H137.638V51.0952C137.638 51.2492 137.692 51.3518 137.801 51.4047C137.861 51.4358 137.961 51.4498 138.101 51.4498C138.138 51.4498 138.179 51.4498 138.221 51.4482C138.264 51.4467 138.314 51.4435 138.37 51.4373V52.022C138.281 52.0469 138.19 52.064 138.093 52.0749C137.998 52.0857 137.894 52.092 137.782 52.092C137.423 52.092 137.179 52.0033 137.05 51.8261C136.921 51.6488 136.857 51.4187 136.857 51.1357V48.2155H136.237V47.6106H136.857V46.3791H136.859Z" fill="#6D6E71"/>
<path d="M140.194 47.6106H140.926V48.2373C141.144 47.9791 141.372 47.7941 141.615 47.6806C141.858 47.5686 142.128 47.5111 142.425 47.5111C143.077 47.5111 143.515 47.7288 143.744 48.1657C143.87 48.4052 143.932 48.7473 143.932 49.192V52.022H143.148V49.2418C143.148 48.9728 143.106 48.7551 143.024 48.5902C142.887 48.315 142.638 48.1782 142.279 48.1782C142.096 48.1782 141.946 48.1968 141.83 48.231C141.618 48.2917 141.433 48.413 141.273 48.5933C141.144 48.7395 141.062 48.8888 141.023 49.0443C140.984 49.1998 140.965 49.4206 140.965 49.7098V52.0205H140.194V47.6106Z" fill="#6D6E71"/>
<path d="M148.981 47.7319C149.286 47.8796 149.519 48.0693 149.679 48.3026C149.833 48.5249 149.936 48.7846 149.987 49.0816C150.032 49.2853 150.055 49.6087 150.055 50.0534H146.693C146.707 50.5013 146.818 50.8605 147.023 51.131C147.228 51.4016 147.547 51.5369 147.978 51.5369C148.381 51.5369 148.702 51.4094 148.942 51.1543C149.079 51.0066 149.177 50.834 149.233 50.6397H149.991C149.971 50.8014 149.904 50.9817 149.792 51.1808C149.68 51.3798 149.553 51.5431 149.413 51.669C149.178 51.8883 148.889 52.0376 148.544 52.1138C148.359 52.1573 148.149 52.1791 147.914 52.1791C147.343 52.1791 146.858 51.9785 146.462 51.5788C146.065 51.1792 145.866 50.6194 145.866 49.8995C145.866 49.1905 146.065 48.6151 146.466 48.1735C146.866 47.7319 147.389 47.5111 148.034 47.5111C148.36 47.5111 148.676 47.5842 148.981 47.7319ZM149.264 49.4641C149.233 49.1422 149.16 48.8857 149.045 48.6944C148.833 48.3368 148.48 48.1595 147.987 48.1595C147.633 48.1595 147.336 48.2824 147.096 48.528C146.857 48.7737 146.729 49.0863 146.715 49.4657H149.264V49.4641Z" fill="#6D6E71"/>
<path d="M152.077 47.6106H152.809V48.3725C152.87 48.2248 153.016 48.0444 153.251 47.8314C153.485 47.6184 153.754 47.5126 154.061 47.5126C154.075 47.5126 154.1 47.5142 154.134 47.5173C154.168 47.5204 154.227 47.5251 154.31 47.5328V48.315C154.264 48.3072 154.221 48.301 154.184 48.2979C154.145 48.2948 154.103 48.2932 154.058 48.2932C153.669 48.2932 153.37 48.4129 153.162 48.654C152.954 48.895 152.849 49.1718 152.849 49.4843V52.022H152.078V47.6106H152.077Z" fill="#6D6E71"/>
</svg>
