<?xml version="1.0" encoding="utf-8"?>
<!-- Generator: Adobe Illustrator 26.0.1, SVG Export Plug-In . SVG Version: 6.00 Build 0)  -->
<svg version="1.1" id="Layer_1" xmlns="http://www.w3.org/2000/svg" xmlns:xlink="http://www.w3.org/1999/xlink" x="0px" y="0px"
	 viewBox="0 0 49 48" style="enable-background:new 0 0 49 48;" xml:space="preserve">
<g>
	<path d="M42.9,9.8c-0.6-0.6-1.5-0.6-2.1,0L23.2,27.4l-6.4-6.9c-0.6-0.6-1.5-0.6-2.1-0.1c-0.6,0.6-0.6,1.5-0.1,2.1l7.4,8.1
		c0.3,0.3,0.7,0.5,1.1,0.5c0,0,0,0,0,0c0.4,0,0.8-0.2,1-0.4l18.8-18.7C43.5,11.3,43.5,10.4,42.9,9.8z"/>
	<path d="M42.6,22.5c-0.8,0-1.5,0.7-1.5,1.5c0,9.2-7.5,16.6-16.6,16.6c-9.2,0-16.6-7.5-16.6-16.6c0-9.2,7.5-16.6,16.6-16.6
		c0.8,0,1.5-0.7,1.5-1.5c0-0.8-0.7-1.5-1.5-1.5C13.7,4.4,4.9,13.2,4.9,24c0,10.8,8.8,19.6,19.6,19.6c10.8,0,19.6-8.8,19.6-19.6
		C44.1,23.2,43.4,22.5,42.6,22.5z"/>
</g>
</svg>
