<svg width="74" height="74" viewBox="0 0 74 74" fill="none" xmlns="http://www.w3.org/2000/svg">
<path d="M64.165 30.9636C63.8879 30.9636 63.6221 31.0737 63.4262 31.2696C63.2302 31.4656 63.1201 31.7313 63.1201 32.0084V35.5906C63.1201 35.8677 63.2302 36.1335 63.4262 36.3294C63.6221 36.5253 63.8879 36.6354 64.165 36.6354C64.4421 36.6354 64.7078 36.5253 64.9037 36.3294C65.0997 36.1335 65.2098 35.8677 65.2098 35.5906V32.0084C65.2098 31.7313 65.0997 31.4656 64.9037 31.2696C64.7078 31.0737 64.4421 30.9636 64.165 30.9636Z" fill="#00ADEE"/>
<path d="M71.3293 61.421H68.7919V24.3453L71.4541 24.0253C71.7242 23.9864 71.9684 23.8434 72.1344 23.6268C72.3005 23.4102 72.3752 23.1373 72.3426 22.8664C72.31 22.5954 72.1726 22.348 71.96 22.177C71.7473 22.0059 71.4762 21.9249 71.2045 21.9512L49.9245 24.5077L49.3514 12.4859C49.5353 12.4038 49.6914 12.2703 49.8011 12.1014C49.9107 11.9326 49.9692 11.7356 49.9693 11.5342V7.95203C49.9692 7.67498 49.859 7.40932 49.6631 7.21342C49.4672 7.01751 49.2016 6.90738 48.9245 6.90723H36.9839C36.7068 6.90723 36.441 7.0173 36.2451 7.21324C36.0492 7.40918 35.9391 7.67493 35.9391 7.95203V11.5342C35.9387 11.7364 35.9972 11.9344 36.1073 12.104C36.2175 12.2736 36.3745 12.4075 36.5594 12.4895L35.9086 26.1949L22.8975 27.7568L22.1739 12.4847C22.3574 12.4026 22.5133 12.2692 22.6227 12.1006C22.7321 11.9319 22.7904 11.7352 22.7907 11.5342V7.95203C22.7907 7.67493 22.6806 7.40918 22.4846 7.21324C22.2887 7.0173 22.0229 6.90723 21.7458 6.90723H9.80522C9.52812 6.90723 9.26237 7.0173 9.06643 7.21324C8.87049 7.40918 8.76041 7.67493 8.76041 7.95203V11.5342C8.76041 11.7368 8.81934 11.9349 8.93001 12.1045C9.04069 12.2742 9.19833 12.4079 9.38371 12.4895L7.47739 52.4655H6.68274C6.41432 52.4655 6.1562 52.5688 5.9619 52.754C5.76759 52.9392 5.65202 53.1921 5.63913 53.4602L5.25703 61.421H2.67069C2.53346 61.4209 2.39757 61.4479 2.27077 61.5004C2.14397 61.5528 2.02876 61.6298 1.93173 61.7268C1.83469 61.8239 1.75774 61.9391 1.70526 62.0659C1.65278 62.1927 1.62581 62.3286 1.62589 62.4658V66.048C1.62581 66.1852 1.65278 66.3211 1.70526 66.4479C1.75774 66.5747 1.83469 66.6899 1.93173 66.7869C2.02876 66.884 2.14397 66.9609 2.27077 67.0134C2.39757 67.0659 2.53346 67.0929 2.67069 67.0928H71.3293C71.4665 67.0929 71.6024 67.0659 71.7292 67.0134C71.856 66.9609 71.9712 66.884 72.0683 66.7869C72.1653 66.6899 72.2423 66.5747 72.2948 66.4479C72.3472 66.3211 72.3742 66.1852 72.3741 66.048V62.4658C72.3742 62.3286 72.3472 62.1927 72.2948 62.0659C72.2423 61.9391 72.1653 61.8239 72.0683 61.7268C71.9712 61.6298 71.856 61.5528 71.7292 61.5004C71.6024 61.4479 71.4665 61.4209 71.3293 61.421ZM60.8401 61.421V50.5252C60.8401 50.2481 60.73 49.9823 60.5341 49.7864C60.3381 49.5904 60.0724 49.4804 59.7953 49.4804H52.6309C52.4937 49.4803 52.3578 49.5072 52.231 49.5597C52.1042 49.6122 51.989 49.6892 51.8919 49.7862C51.7949 49.8832 51.7179 49.9984 51.6655 50.1252C51.613 50.252 51.586 50.3879 51.5861 50.5252V61.421H49.9741V50.5252C49.9741 50.2481 49.864 49.9823 49.6681 49.7864C49.4721 49.5904 49.2064 49.4804 48.9293 49.4804H41.7649C41.6277 49.4803 41.4918 49.5072 41.365 49.5597C41.2382 49.6122 41.123 49.6892 41.0259 49.7862C40.9289 49.8832 40.852 49.9984 40.7995 50.1252C40.747 50.252 40.72 50.3879 40.7201 50.5252V61.421H16.8203V30.5921L66.7023 24.5973V61.421H60.8401ZM58.7505 61.421H53.6757V51.57H58.7505V61.421ZM47.8845 61.421H42.8097V51.57H47.8845V61.421ZM38.0335 8.99684H47.8845V10.4894H38.0335V8.99684ZM38.652 12.579H47.2642L47.8445 24.7585L38.015 25.94L38.652 12.579ZM10.8536 8.99684H20.701V10.4894H10.85L10.8536 8.99684ZM11.4751 12.579H20.0867L20.8169 28.0063L12.0674 29.0589C11.8036 29.0912 11.562 29.2229 11.3918 29.427C11.2217 29.6312 11.1357 29.8925 11.1515 30.1578C11.1672 30.4232 11.2835 30.6725 11.4766 30.8551C11.6697 31.0377 11.9252 31.1399 12.191 31.1407C12.233 31.1407 12.2751 31.1383 12.3169 31.1336L14.7307 30.8428V52.4655H9.56939L11.4751 12.579ZM7.67859 54.5551H14.7307V61.421H7.34903L7.67859 54.5551ZM70.2845 65.0032H3.7155V63.5106H70.2845V65.0032Z" fill="#00ADEE"/>
<path d="M34.8793 45.9979H22.9387C22.6616 45.9979 22.3958 46.108 22.1999 46.3039C22.004 46.4998 21.8939 46.7656 21.8939 47.0427C21.8939 47.3198 22.004 47.5855 22.1999 47.7815C22.3958 47.9774 22.6616 48.0875 22.9387 48.0875H34.8793C35.1564 48.0875 35.4222 47.9774 35.6181 47.7815C35.8141 47.5855 35.9241 47.3198 35.9241 47.0427C35.9241 46.7656 35.8141 46.4998 35.6181 46.3039C35.4222 46.108 35.1564 45.9979 34.8793 45.9979ZM34.8793 38.8335H22.9387C22.6616 38.8335 22.3958 38.9436 22.1999 39.1395C22.004 39.3355 21.8939 39.6012 21.8939 39.8783C21.8939 40.1554 22.004 40.4211 22.1999 40.6171C22.3958 40.813 22.6616 40.9231 22.9387 40.9231H34.8793C35.1564 40.9231 35.4222 40.813 35.6181 40.6171C35.8141 40.4211 35.9241 40.1554 35.9241 39.8783C35.9241 39.6012 35.8141 39.3355 35.6181 39.1395C35.4222 38.9436 35.1564 38.8335 34.8793 38.8335ZM34.8793 42.4157H22.9387C22.6616 42.4157 22.3958 42.5258 22.1999 42.7217C22.004 42.9176 21.8939 43.1834 21.8939 43.4605C21.8939 43.7376 22.004 44.0033 22.1999 44.1993C22.3958 44.3952 22.6616 44.5053 22.9387 44.5053H34.8793C35.1564 44.5053 35.4222 44.3952 35.6181 44.1993C35.8141 44.0033 35.9241 43.7376 35.9241 43.4605C35.9241 43.1834 35.8141 42.9176 35.6181 42.7217C35.4222 42.5258 35.1564 42.4157 34.8793 42.4157ZM47.1364 40.6246H43.5542C43.417 40.6245 43.2811 40.6515 43.1543 40.704C43.0275 40.7564 42.9123 40.8334 42.8152 40.9304C42.7182 41.0275 42.6412 41.1427 42.5888 41.2695C42.5363 41.3963 42.5093 41.5322 42.5094 41.6694V45.2516C42.5093 45.3888 42.5363 45.5247 42.5888 45.6515C42.6412 45.7783 42.7182 45.8935 42.8152 45.9906C42.9123 46.0876 43.0275 46.1645 43.1543 46.217C43.2811 46.2695 43.417 46.2965 43.5542 46.2964H47.1364C47.4135 46.2964 47.6792 46.1863 47.8752 45.9904C48.0711 45.7944 48.1812 45.5287 48.1812 45.2516V41.6694C48.1812 41.3923 48.0711 41.1265 47.8752 40.9306C47.6792 40.7347 47.4135 40.6246 47.1364 40.6246ZM46.0916 44.2068H44.599V42.7142H46.0916V44.2068ZM58.0041 40.6246H54.422C54.2847 40.6245 54.1488 40.6515 54.022 40.704C53.8952 40.7564 53.78 40.8334 53.683 40.9304C53.586 41.0275 53.509 41.1427 53.4565 41.2695C53.404 41.3963 53.3771 41.5322 53.3772 41.6694V45.2516C53.3771 45.3888 53.404 45.5247 53.4565 45.6515C53.509 45.7783 53.586 45.8935 53.683 45.9906C53.78 46.0876 53.8952 46.1645 54.022 46.217C54.1488 46.2695 54.2847 46.2965 54.422 46.2964H58.0041C58.2812 46.2964 58.547 46.1863 58.7429 45.9904C58.9389 45.7944 59.049 45.5287 59.049 45.2516V41.6694C59.049 41.3923 58.9389 41.1265 58.7429 40.9306C58.547 40.7347 58.2812 40.6246 58.0041 40.6246ZM56.9593 44.2068H55.4668V42.7142H56.9593V44.2068Z" fill="#00ADEE"/>
</svg>
