<svg width="74" height="74" viewBox="0 0 74 74" fill="none" xmlns="http://www.w3.org/2000/svg">
<path d="M63.3579 37.0754C63.5909 37.0754 63.8144 36.9828 63.9791 36.818C64.1439 36.6533 64.2365 36.4298 64.2365 36.1968V33.3126H65.5314C66.8937 33.3126 68.0019 32.2043 68.0019 30.8421V27.7413C68.0019 26.379 66.8937 25.2708 65.5314 25.2708H61.3026L37.8786 15.1199V13.3024H45.7847C46.0177 13.3024 46.2412 13.2099 46.406 13.0451C46.5707 12.8803 46.6633 12.6569 46.6633 12.4238V6.87664C46.6633 6.64362 46.5707 6.42015 46.406 6.25538C46.2412 6.09061 46.0177 5.99805 45.7847 5.99805H36.9999C36.7669 5.99805 36.5434 6.09061 36.3786 6.25538C36.2138 6.42015 36.1213 6.64362 36.1213 6.87664L36.1214 15.12L12.6974 25.2708H8.46859C7.10627 25.2708 5.99811 26.379 5.99811 27.7413V30.8421C5.99811 32.2044 7.10627 33.3126 8.46859 33.3126H9.76352V36.1968C9.76352 36.4298 9.85609 36.6533 10.0209 36.818C10.1856 36.9828 10.4091 37.0754 10.6421 37.0754H11.8165V56.1545H10.6421C10.4091 56.1545 10.1856 56.247 10.0209 56.4118C9.85609 56.5766 9.76352 56.8 9.76352 57.0331V59.9174H8.71347C7.21622 59.9174 5.99811 61.1355 5.99811 62.6327V65.2865C5.99811 66.7837 7.21622 68.0018 8.71347 68.0018H65.2865C66.7838 68.0018 68.0019 66.7837 68.0019 65.2865V62.6327C68.0019 61.1355 66.7838 59.9174 65.2865 59.9174H64.2365V57.0331C64.2365 56.8 64.1439 56.5766 63.9791 56.4118C63.8144 56.247 63.5909 56.1545 63.3579 56.1545H62.1835V37.0754H63.3579ZM62.4793 35.3182H55.3832V33.3126H62.4793V35.3182ZM54.5046 56.1545C54.2716 56.1545 54.0482 56.247 53.8834 56.4118C53.7186 56.5766 53.626 56.8 53.626 57.0331V59.9174H49.6156V57.0331C49.6156 56.8 49.5231 56.5766 49.3583 56.4118C49.1935 56.247 48.9701 56.1545 48.737 56.1545H47.5626V37.0754H48.737C48.9701 37.0754 49.1935 36.9828 49.3583 36.818C49.5231 36.6533 49.6156 36.4298 49.6156 36.1968V33.3126H53.626V36.1968C53.626 36.4298 53.7186 36.6533 53.8834 36.818C54.0482 36.9828 54.2716 37.0754 54.5046 37.0754H55.6791V56.1545H54.5046ZM19.4954 56.1545H18.3209V37.0754H19.4954C19.7284 37.0754 19.9518 36.9828 20.1166 36.818C20.2814 36.6533 20.3739 36.4298 20.3739 36.1968V33.3126H24.3844V36.1968C24.3844 36.4298 24.4769 36.6533 24.6417 36.818C24.8065 36.9828 25.0299 37.0754 25.263 37.0754H26.4374V56.1545H25.263C25.0299 56.1545 24.8065 56.247 24.6417 56.4118C24.4769 56.5766 24.3844 56.8 24.3844 57.0331V59.9174H20.3739V57.0331C20.3739 56.8 20.2814 56.5766 20.1166 56.4118C19.9518 56.247 19.7284 56.1545 19.4954 56.1545ZM28.1947 56.1545V37.0754H31.1844V56.1545H28.1947ZM26.1416 35.3182V33.3126H33.2376V35.3182H26.1416ZM26.1416 57.9117H33.2376V59.9174H26.1416V57.9117ZM34.1162 56.1545H32.9416V37.0754H34.1162C34.3492 37.0754 34.5727 36.9828 34.7375 36.818C34.9022 36.6533 34.9948 36.4298 34.9948 36.1968V33.3126H39.0051V36.1968C39.0051 36.4298 39.0976 36.6533 39.2624 36.818C39.4272 36.9828 39.6507 37.0754 39.8837 37.0754H41.0581V56.1545H39.8837C39.6507 56.1545 39.4272 56.247 39.2624 56.4118C39.0976 56.5766 39.0051 56.8 39.0051 57.0331V59.9174H34.9948V57.0331C34.9948 56.8 34.9022 56.5766 34.7375 56.4118C34.5727 56.247 34.3492 56.1545 34.1162 56.1545ZM42.8154 56.1545V37.0754H45.8053V56.1545H42.8154ZM40.7624 35.3182V33.3126H47.8584V35.3182H40.7624ZM40.7624 57.9117H47.8584V59.9174H40.7624V57.9117ZM37.8785 7.75524H44.9061V11.5453H37.8785V7.75524ZM37 16.6543L56.8834 25.2708H17.1166L37 16.6543ZM7.7553 30.842V27.7412C7.7555 27.5521 7.83071 27.3707 7.96444 27.237C8.09816 27.1033 8.27948 27.0281 8.46859 27.0279H65.5315C65.7206 27.0281 65.902 27.1033 66.0357 27.237C66.1694 27.3707 66.2446 27.5521 66.2448 27.7412V30.842C66.2446 31.0311 66.1694 31.2124 66.0357 31.3461C65.902 31.4799 65.7206 31.5551 65.5315 31.5553H8.46859C8.27947 31.5551 8.09814 31.4799 7.9644 31.3462C7.83067 31.2124 7.75547 31.0311 7.7553 30.842ZM11.5207 33.3126H18.6168V35.3182H11.5207V33.3126ZM13.5737 37.0754H16.5636V56.1545H13.5737V37.0754ZM11.5207 57.9117H18.6168V59.9174H11.5207V57.9117ZM66.2447 62.6327V65.2865C66.2447 65.8148 65.8148 66.2446 65.2865 66.2446H8.71347C8.18518 66.2446 7.7553 65.8148 7.7553 65.2865V62.6327C7.7553 62.1044 8.18518 61.6746 8.71347 61.6746H65.2865C65.8148 61.6746 66.2447 62.1043 66.2447 62.6327ZM62.4793 59.9174H55.3832V57.9117H62.4793V59.9174ZM60.4263 56.1545H57.4364V37.0754H60.4263V56.1545Z" fill="#00ADEE"/>
</svg>
