<svg width="74" height="74" viewBox="0 0 74 74" fill="none" xmlns="http://www.w3.org/2000/svg">
<path d="M66.3066 32.4053H7.69333C7.46342 32.4053 7.24292 32.314 7.08035 32.1514C6.91778 31.9888 6.82645 31.7683 6.82645 31.5384V25.2154C6.82644 25.0661 6.86499 24.9194 6.93834 24.7894C7.0117 24.6594 7.11738 24.5505 7.24515 24.4733L36.5457 6.78376C36.6809 6.70226 36.8357 6.65918 36.9935 6.65918C37.1513 6.65918 37.3061 6.70226 37.4412 6.78376L66.7539 24.4733C66.8817 24.5505 66.9874 24.6594 67.0607 24.7894C67.1341 24.9194 67.1726 25.0661 67.1726 25.2154V31.5384C67.1726 31.7682 67.0814 31.9885 66.919 32.1511C66.7567 32.3136 66.5364 32.4051 66.3066 32.4053ZM8.56108 30.6715H65.4397V25.7043L36.9948 8.53833L8.56108 25.7026V30.6715Z" fill="#00ADEE"/>
<path d="M37 26.0017C35.9746 26.0017 34.9721 25.6976 34.1195 25.1279C33.2669 24.5582 32.6023 23.7484 32.2099 22.801C31.8175 21.8536 31.7148 20.8111 31.9148 19.8054C32.1149 18.7996 32.6087 17.8758 33.3338 17.1507C34.0589 16.4256 34.9828 15.9318 35.9885 15.7317C36.9943 15.5316 38.0368 15.6343 38.9842 16.0268C39.9316 16.4192 40.7413 17.0837 41.3111 17.9364C41.8808 18.789 42.1849 19.7914 42.1849 20.8169C42.1832 22.1915 41.6365 23.5094 40.6645 24.4813C39.6925 25.4533 38.3746 26.0001 37 26.0017ZM37 17.365C36.3175 17.365 35.6503 17.5674 35.0827 17.9466C34.5152 18.3258 34.0729 18.8648 33.8117 19.4954C33.5505 20.126 33.4821 20.8199 33.6153 21.4893C33.7485 22.1587 34.0771 22.7737 34.5598 23.2563C35.0424 23.7389 35.6573 24.0676 36.3268 24.2008C36.9962 24.3339 37.6901 24.2656 38.3207 24.0044C38.9513 23.7432 39.4903 23.3009 39.8695 22.7333C40.2487 22.1658 40.4511 21.4986 40.4511 20.816C40.4499 19.9011 40.086 19.024 39.439 18.377C38.7921 17.7301 37.915 17.3661 37 17.365ZM61.2484 37.8815H52.024C51.5274 37.8808 51.0514 37.6832 50.7004 37.332C50.3493 36.9808 50.1519 36.5047 50.1515 36.0081V31.5385C50.1515 31.3086 50.2428 31.0881 50.4054 30.9255C50.568 30.7629 50.7885 30.6716 51.0184 30.6716H62.254C62.4839 30.6716 62.7044 30.7629 62.867 30.9255C63.0296 31.0881 63.1209 31.3086 63.1209 31.5385V36.0107C63.1198 36.5068 62.9221 36.9822 62.5711 37.3329C62.2201 37.6835 61.7445 37.8808 61.2484 37.8815ZM51.8861 32.4028V36.0081C51.8861 36.045 51.9007 36.0804 51.9267 36.1065C51.9527 36.1327 51.988 36.1475 52.0248 36.1477H61.2484C61.2853 36.1475 61.3206 36.1327 61.3466 36.1065C61.3725 36.0804 61.3871 36.045 61.3871 36.0081V32.4054L51.8861 32.4028Z" fill="#00ADEE"/>
<path d="M60.4613 55.3915H52.8102C52.5803 55.3915 52.3598 55.3002 52.1972 55.1376C52.0347 54.975 51.9433 54.7545 51.9433 54.5246V37.0136C51.9433 36.7837 52.0347 36.5632 52.1972 36.4006C52.3598 36.2381 52.5803 36.1467 52.8102 36.1467H60.4613C60.6912 36.1467 60.9117 36.2381 61.0743 36.4006C61.2369 36.5632 61.3282 36.7837 61.3282 37.0136V54.5246C61.3282 54.7545 61.2369 54.975 61.0743 55.1376C60.9117 55.3002 60.6912 55.3915 60.4613 55.3915ZM53.6771 53.6577H59.5944V37.8805H53.6771V53.6577Z" fill="#00ADEE"/>
<path d="M62.254 60.8703H51.0184C50.7884 60.8703 50.5679 60.779 50.4054 60.6164C50.2428 60.4538 50.1515 60.2333 50.1515 60.0034V55.5312C50.1519 55.0346 50.3493 54.5585 50.7004 54.2073C51.0514 53.8562 51.5274 53.6585 52.0239 53.6578H61.2484C61.745 53.6585 62.221 53.8562 62.572 54.2073C62.923 54.5585 63.1204 55.0346 63.1209 55.5312V60.0034C63.1209 60.2333 63.0295 60.4538 62.867 60.6164C62.7044 60.779 62.4839 60.8703 62.254 60.8703ZM51.8852 59.1365H61.3871V55.5312C61.3871 55.4943 61.3725 55.4589 61.3465 55.4328C61.3206 55.4066 61.2853 55.3918 61.2484 55.3916H52.0239C51.9871 55.3918 51.9518 55.4066 51.9258 55.4328C51.8998 55.4589 51.8852 55.4943 51.8852 55.5312V59.1365ZM41.6118 37.8815H32.3882C31.8917 37.8808 31.4157 37.6832 31.0646 37.332C30.7136 36.9808 30.5162 36.5047 30.5157 36.0081V31.5385C30.5157 31.3086 30.6071 31.0881 30.7697 30.9255C30.9322 30.763 31.1527 30.6716 31.3826 30.6716H42.6174C42.8473 30.6716 43.0678 30.763 43.2304 30.9255C43.393 31.0881 43.4843 31.3086 43.4843 31.5385V36.0108C43.4831 36.5068 43.2854 36.9823 42.9345 37.3329C42.5835 37.6835 42.1079 37.8808 41.6118 37.8815ZM32.2495 32.4054V36.0108C32.2495 36.0476 32.2641 36.083 32.2901 36.1091C32.3161 36.1353 32.3513 36.1501 32.3882 36.1503H41.6118C41.6487 36.1501 41.684 36.1353 41.71 36.1091C41.7359 36.083 41.7505 36.0476 41.7505 36.0108V32.4054H32.2495Z" fill="#00ADEE"/>
<path d="M40.8143 55.3915H33.1857C32.9558 55.3915 32.7353 55.3002 32.5728 55.1376C32.4102 54.975 32.3188 54.7545 32.3188 54.5246V37.0136C32.3188 36.7837 32.4102 36.5632 32.5728 36.4006C32.7353 36.2381 32.9558 36.1467 33.1857 36.1467H40.8143C41.0442 36.1467 41.2647 36.2381 41.4273 36.4006C41.5898 36.5632 41.6812 36.7837 41.6812 37.0136V54.5246C41.6812 54.7545 41.5898 54.975 41.4273 55.1376C41.2647 55.3002 41.0442 55.3915 40.8143 55.3915ZM34.0526 53.6577H39.9474V37.8805H34.0526V53.6577Z" fill="#00ADEE"/>
<path d="M42.6174 60.8703H31.3826C31.1527 60.8703 30.9322 60.779 30.7696 60.6164C30.6071 60.4538 30.5157 60.2333 30.5157 60.0034V55.5312C30.5162 55.0346 30.7136 54.5585 31.0646 54.2073C31.4157 53.8562 31.8917 53.6585 32.3882 53.6578H41.6118C42.1084 53.6585 42.5844 53.8562 42.9354 54.2073C43.2864 54.5585 43.4838 55.0346 43.4843 55.5312V60.0034C43.4843 60.2333 43.393 60.4538 43.2304 60.6164C43.0678 60.779 42.8473 60.8703 42.6174 60.8703ZM32.2486 59.1365H41.7505V55.5312C41.7505 55.4943 41.7359 55.4589 41.7099 55.4328C41.684 55.4066 41.6487 55.3918 41.6118 55.3916H32.3882C32.3513 55.3918 32.3161 55.4066 32.2901 55.4328C32.2641 55.4589 32.2495 55.4943 32.2495 55.5312L32.2486 59.1365ZM22.843 37.8815H13.6185C13.1219 37.8808 12.6459 37.6832 12.2949 37.332C11.9439 36.9808 11.7465 36.5047 11.746 36.0081V31.5385C11.746 31.3086 11.8374 31.0881 11.9999 30.9255C12.1625 30.763 12.383 30.6716 12.6129 30.6716H23.8486C24.0785 30.6716 24.299 30.763 24.4615 30.9255C24.6241 31.0881 24.7154 31.3086 24.7154 31.5385V36.0108C24.7143 36.5068 24.5166 36.9823 24.1656 37.3329C23.8147 37.6835 23.3391 37.8808 22.843 37.8815ZM13.4798 32.4054V36.0108C13.4798 36.0476 13.4944 36.083 13.5204 36.1091C13.5464 36.1353 13.5816 36.1501 13.6185 36.1503H22.843C22.8798 36.1501 22.9151 36.1353 22.9411 36.1091C22.9671 36.083 22.9817 36.0476 22.9817 36.0108V32.4054H13.4798Z" fill="#00ADEE"/>
<path d="M22.0897 55.3915H14.3744C14.1445 55.3915 13.924 55.3002 13.7614 55.1376C13.5989 54.975 13.5075 54.7545 13.5075 54.5246V37.0136C13.5075 36.7837 13.5989 36.5632 13.7614 36.4006C13.924 36.2381 14.1445 36.1467 14.3744 36.1467H22.0897C22.3196 36.1467 22.5401 36.2381 22.7026 36.4006C22.8652 36.5632 22.9565 36.7837 22.9565 37.0136V54.5246C22.9565 54.7545 22.8652 54.975 22.7026 55.1376C22.5401 55.3002 22.3196 55.3915 22.0897 55.3915ZM15.2413 53.6577H21.2228V37.8805H15.2413V53.6577Z" fill="#00ADEE"/>
<path d="M23.8486 60.8704H12.6129C12.383 60.8704 12.1625 60.7791 11.9999 60.6165C11.8374 60.4539 11.746 60.2334 11.746 60.0035V55.5313C11.7465 55.0347 11.9439 54.5587 12.2949 54.2075C12.6459 53.8563 13.1219 53.6586 13.6185 53.658H22.843C23.3395 53.6586 23.8155 53.8563 24.1666 54.2075C24.5176 54.5587 24.715 55.0347 24.7154 55.5313V60.0035C24.7154 60.2334 24.6241 60.4539 24.4615 60.6165C24.299 60.7791 24.0785 60.8704 23.8486 60.8704ZM13.4798 59.1366H22.9817V55.5313C22.9817 55.4944 22.9671 55.4591 22.9411 55.4329C22.9151 55.4068 22.8798 55.392 22.843 55.3917H13.6185C13.5816 55.392 13.5464 55.4068 13.5204 55.4329C13.4944 55.4591 13.4798 55.4944 13.4798 55.5313V59.1366Z" fill="#00ADEE"/>
<path d="M66.474 67.3409H7.52606C7.29615 67.3409 7.07566 67.2496 6.91308 67.087C6.75051 66.9244 6.65918 66.7039 6.65918 66.474V60.0036C6.65918 59.7737 6.75051 59.5532 6.91308 59.3906C7.07566 59.228 7.29615 59.1367 7.52606 59.1367H66.474C66.7039 59.1367 66.9244 59.228 67.087 59.3906C67.2495 59.5532 67.3409 59.7737 67.3409 60.0036V66.474C67.3409 66.7039 67.2495 66.9244 67.087 67.087C66.9244 67.2496 66.7039 67.3409 66.474 67.3409ZM8.39294 65.6071H65.6071V60.8705H8.39294V65.6071Z" fill="#00ADEE"/>
</svg>
