<svg width="74" height="74" viewBox="0 0 74 74" fill="none" xmlns="http://www.w3.org/2000/svg">
<path d="M17.9089 37.153C17.6635 37.153 17.4282 37.2505 17.2546 37.424C17.0811 37.5975 16.9836 37.8329 16.9836 38.0783V51.3213C16.9836 51.5667 17.0811 51.802 17.2546 51.9756C17.4282 52.1491 17.6635 52.2466 17.9089 52.2466H39.4884C39.7338 52.2466 39.9691 52.1491 40.1426 51.9756C40.3162 51.802 40.4137 51.5667 40.4137 51.3213V38.0783C40.4137 37.8329 40.3162 37.5975 40.1426 37.424C39.9691 37.2505 39.7338 37.153 39.4884 37.153H17.9089ZM38.563 50.396H18.8342V39.0036H38.563V50.396ZM13.3034 31.9947C14.522 32.1184 15.7507 31.8961 16.8488 31.3534C17.9468 30.8107 18.8697 29.9696 19.5116 28.9264C20.0605 29.9892 20.8858 30.8843 21.9006 31.5175C22.9155 32.1508 24.0823 32.4986 25.2782 32.5245C26.4741 32.5504 27.6549 32.2534 28.6962 31.6646C29.7375 31.0759 30.6007 30.2173 31.1951 29.1793C31.4571 29.6303 31.7696 30.05 32.1266 30.4303C32.7539 31.0925 33.5095 31.6198 34.3474 31.9802C35.1853 32.3407 36.0878 32.5265 36.9999 32.5265C37.912 32.5265 38.8145 32.3407 39.6524 31.9802C40.4903 31.6198 41.2459 31.0925 41.8732 30.4303C42.2302 30.05 42.5427 29.6303 42.8047 29.1793C43.4013 30.2146 44.2654 31.0703 45.3065 31.6568C46.3475 32.2434 47.5271 32.5392 48.7217 32.5132C49.9163 32.4872 51.082 32.1404 52.0965 31.5091C53.111 30.8779 53.9371 29.9854 54.4882 28.9251C55.3185 30.2631 56.6028 31.2575 58.1062 31.7261C59.6095 32.1948 61.2313 32.1066 62.6749 31.4775C64.1185 30.8484 65.2873 29.7206 65.9675 28.3004C66.6477 26.8802 66.7938 25.2625 66.379 23.7434L63.2786 12.3066V8.31544C63.2786 8.07004 63.1811 7.83468 63.0076 7.66115C62.8341 7.48762 62.5987 7.39014 62.3533 7.39014H11.6428C11.398 7.39112 11.1636 7.48904 10.9909 7.66246C10.8181 7.83588 10.7211 8.07068 10.7211 8.31544V12.3152L7.62075 23.7471C7.37124 24.6671 7.32517 25.6304 7.48572 26.5701C7.64628 27.5097 8.00961 28.403 8.55045 29.188C9.0913 29.973 9.79666 30.6307 10.6175 31.1154C11.4383 31.6001 12.3548 31.9001 13.3034 31.9947ZM25.4372 30.6758C24.7374 30.676 24.0458 30.524 23.4105 30.2304C22.7752 29.9368 22.2113 29.5086 21.7578 28.9755C21.3044 28.4424 20.9723 27.8171 20.7844 27.1429C20.5966 26.4687 20.5576 25.7617 20.6701 25.0709L22.5737 13.3565H30.9545L30.2994 25.4472L30.2637 26.1023C30.1973 27.3375 29.6599 28.5002 28.762 29.3511C27.8642 30.2019 26.6742 30.676 25.4372 30.6758ZM40.5296 29.1583C39.8455 29.8827 38.9553 30.3793 37.9795 30.5811C37.0038 30.7829 35.9896 30.68 35.0742 30.2864C34.1589 29.8928 33.3865 29.2275 32.8618 28.3805C32.337 27.5335 32.0851 26.5457 32.1402 25.5508L32.1784 24.839L32.7953 13.3565H41.1848L41.8016 24.839L41.8399 25.5508C41.8803 26.2098 41.7849 26.8701 41.5595 27.4907C41.3341 28.1113 40.9836 28.6789 40.5296 29.1583ZM52.2416 28.9757C51.6152 29.7114 50.7827 30.2424 49.8516 30.5001C48.9204 30.7578 47.9333 30.7305 47.0179 30.4215C46.1024 30.1125 45.3007 29.5362 44.7161 28.7669C44.1315 27.9977 43.791 27.0708 43.7386 26.106L43.7028 25.4509L43.0477 13.3602H51.4261L53.3297 25.0746C53.4429 25.7657 53.4041 26.473 53.2162 27.1476C53.0283 27.8221 52.6957 28.4477 52.2416 28.9807V28.9757ZM63.9239 28.138C63.3902 28.9125 62.637 29.5095 61.7612 29.8523C60.8853 30.1952 59.927 30.2681 59.0094 30.0618C58.0917 29.8555 57.2568 29.3794 56.6121 28.6946C55.9673 28.0099 55.5421 27.1479 55.3913 26.2195L53.3001 13.3565H61.6476L64.5926 24.2307C64.7722 24.8914 64.8054 25.5834 64.6899 26.2582C64.5744 26.9331 64.313 27.5746 63.9239 28.138ZM12.5718 9.24075H61.428V11.5059H12.5718V9.24075ZM9.40721 24.2307L12.3522 13.3565H20.6997L19.4104 21.287L18.8429 24.7736L18.6085 26.2183C18.5056 26.8492 18.2755 27.4525 17.9322 27.9917C17.5888 28.5308 17.1394 28.9945 16.6112 29.3544C16.083 29.7144 15.4871 29.9632 14.8597 30.0856C14.2324 30.2081 13.5867 30.2016 12.9619 30.0667C12.3371 29.9317 11.7463 29.6711 11.2254 29.3006C10.7045 28.9301 10.2645 28.4576 9.93196 27.9117C9.59945 27.3658 9.38146 26.7579 9.29125 26.1251C9.20104 25.4923 9.24049 24.8478 9.40721 24.2307Z" fill="#00ADEE"/>
<path d="M65.6842 60.6015H63.2784V34.0501C63.2784 33.8047 63.1809 33.5693 63.0074 33.3958C62.8339 33.2222 62.5985 33.1248 62.3531 33.1248C62.1077 33.1248 61.8724 33.2222 61.6988 33.3958C61.5253 33.5693 61.4278 33.8047 61.4278 34.0501V60.6015H58.3249V38.0782C58.3249 37.8328 58.2275 37.5975 58.0539 37.4239C57.8804 37.2504 57.645 37.1529 57.3996 37.1529H45.4064C45.161 37.1529 44.9257 37.2504 44.7521 37.4239C44.5786 37.5975 44.4811 37.8328 44.4811 38.0782V60.6015H12.5716V34.0599C12.5716 33.8145 12.4741 33.5792 12.3005 33.4056C12.127 33.2321 11.8917 33.1346 11.6462 33.1346C11.4008 33.1346 11.1655 33.2321 10.992 33.4056C10.8184 33.5792 10.7209 33.8145 10.7209 34.0599V60.6015H8.31514C8.06973 60.6015 7.83438 60.699 7.66085 60.8725C7.48732 61.046 7.38983 61.2814 7.38983 61.5268V65.6845C7.38983 65.9299 7.48732 66.1653 7.66085 66.3388C7.83438 66.5123 8.06973 66.6098 8.31514 66.6098H65.6842C65.9296 66.6098 66.165 66.5123 66.3385 66.3388C66.512 66.1653 66.6095 65.9299 66.6095 65.6845V61.5268C66.6095 61.2814 66.512 61.046 66.3385 60.8725C66.165 60.699 65.9296 60.6015 65.6842 60.6015ZM46.3317 39.0035H56.4743V60.6015H46.3317V39.0035ZM64.7589 64.7592H9.24045V62.4521H64.7589V64.7592Z" fill="#00ADEE"/>
</svg>
