<svg width="74" height="74" viewBox="0 0 74 74" fill="none" xmlns="http://www.w3.org/2000/svg">
<path d="M48.3929 35.2462H42.9307V29.784C42.9381 28.6824 42.051 27.7832 40.9494 27.7759H33.0641C31.9624 27.7759 31.0693 28.669 31.0693 29.7706V35.2328H25.6205C24.5189 35.2254 23.6198 36.1123 23.6124 37.214V45.0995C23.6124 46.2011 24.5055 47.0942 25.6072 47.0942H31.0693V52.543C31.0619 53.6446 31.949 54.5437 33.0507 54.5511H40.9226C42.0242 54.5511 42.9173 53.658 42.9173 52.5564V47.0942H48.3795C49.4811 47.1016 50.3803 46.2145 50.3876 45.1128V37.2409C50.3876 36.1393 49.4947 35.2462 48.3929 35.2462ZM47.7101 44.4167H41.592C41.2369 44.4167 40.8964 44.5577 40.6453 44.8088C40.3943 45.0599 40.2532 45.4004 40.2532 45.7554V51.8736H33.7468V45.7554C33.7468 45.4004 33.6058 45.0599 33.3547 44.8088C33.1036 44.5577 32.7631 44.4167 32.4081 44.4167H26.2899V37.9237H32.4081C32.7631 37.9237 33.1036 37.7826 33.3547 37.5316C33.6058 37.2805 33.7468 36.94 33.7468 36.5849V30.4534H40.2398V36.5715C40.2398 36.9266 40.3809 37.2671 40.6319 37.5182C40.883 37.7693 41.2235 37.9103 41.5786 37.9103H47.7101V44.4167Z" fill="#00ADEE"/>
<path d="M60.2945 17.7617H49.2631V13.0492C49.3325 10.8989 47.6455 9.09923 45.4951 9.02978C45.3856 9.02624 45.2759 9.0273 45.1665 9.03296H28.8336C26.6849 8.92101 24.8523 10.572 24.7401 12.7206C24.7344 12.83 24.7333 12.9397 24.737 13.0492V17.7349H13.7056C9.4483 17.7349 4.46811 20.1581 4.46811 26.9724V56.0904C4.46811 62.9047 9.4483 65.3279 13.7056 65.3279H60.2945C64.5517 65.3279 69.5319 62.9047 69.5319 56.0904V26.9991C69.5319 20.1848 64.5651 17.7617 60.2945 17.7617ZM27.4145 13.0492C27.4145 12.661 27.4145 11.6168 28.847 11.6168H45.1665C46.5989 11.6168 46.5989 12.6476 46.5989 13.0492V17.7349H27.4145V13.0492ZM66.8544 56.0904C66.8544 62.0078 62.2758 62.6504 60.2945 62.6504H13.7056C11.7376 62.6504 7.14563 62.0078 7.14563 56.0904V26.9991C7.14563 21.0818 11.7242 20.4392 13.7056 20.4392H60.2945C62.2624 20.4392 66.8544 21.0818 66.8544 26.9991V56.0904Z" fill="#00ADEE"/>
</svg>
