<?xml version="1.0" encoding="utf-8"?>
<!-- Generator: Adobe Illustrator 26.0.1, SVG Export Plug-In . SVG Version: 6.00 Build 0)  -->
<svg version="1.1" id="Layer_1" xmlns="http://www.w3.org/2000/svg" xmlns:xlink="http://www.w3.org/1999/xlink" x="0px" y="0px"
	 viewBox="0 0 49 48" style="enable-background:new 0 0 49 48;" xml:space="preserve">
<style type="text/css">
	.st0{fill-rule:evenodd;clip-rule:evenodd;fill:#00ADEE;}
</style>
<g>
	<path class="st0" d="M32.3,10.8V7.3c0-0.3-0.2-0.6-0.5-0.7l-7-3.2c-0.2-0.1-0.5-0.1-0.7,0l-7,3.2c-0.3,0.1-0.5,0.4-0.5,0.7v3.5
		c0,9.9,6.7,11.3,7.6,11.5c0.1,0,0.2,0,0.2,0C25.6,22.1,32.3,20.7,32.3,10.8z M13.9,22.4c0.4-0.7,0.2-1.5-0.5-1.9l-2-1.1
		c-0.7-0.4-1.5-0.2-1.9,0.5l-5.6,9.8c-0.4,0.7-0.2,1.5,0.5,1.9l2,1.1c0.7,0.4,1.5,0.2,1.9-0.5L13.9,22.4z M22.3,35.2
		c-0.7-0.4-1.5-0.1-1.9,0.5l-2.8,4.9c-0.3,0.7-0.1,1.5,0.6,1.9c0.6,0.3,1.4,0.1,1.8-0.5c0.9-1.6,1.9-3.3,2.8-4.9
		C23.2,36.5,22.9,35.6,22.3,35.2L22.3,35.2z M15.3,32.7c0.8,0.5,0.8,1.2,0.5,1.9L14,37.8c-0.4,0.7-1.2,0.9-1.9,0.5
		c-0.8-0.5-0.8-1.2-0.5-1.9l1.8-3.1C13.8,32.6,14.7,32.4,15.3,32.7L15.3,32.7z M38,36.6c-0.4,0.7-1.2,0.9-1.9,0.5l-4.4-2.6
		c-0.2-0.1-0.5,0-0.6,0.2c-0.1,0.2,0,0.4,0.1,0.5l3.3,1.9c0.7,0.4,0.9,1.2,0.5,1.9c-0.4,0.7-1.2,0.9-1.9,0.5l-3.3-1.9
		c-0.2-0.1-0.5-0.1-0.6,0.1c-0.1,0.2-0.1,0.5,0.1,0.6c0,0,0,0,0.1,0l2.1,1.2c0.7,0.4,0.9,1.2,0.5,1.9c-0.4,0.6-1.2,0.9-1.9,0.5
		L28,40.8c-0.2-0.1-0.5,0-0.6,0.2c-0.1,0.2,0,0.4,0.1,0.6l0.9,0.5c0.7,0.4,0.9,1.2,0.6,1.9c-0.4,0.7-1.2,0.9-1.9,0.6
		c0,0-0.1,0-0.1-0.1L24.6,43l1.4-2.5c0.6-1.1,0.3-2.4-0.8-3.1c-0.4-0.3-1-0.4-1.5-0.3c0.4-1.2-0.2-2.5-1.4-2.9
		c-0.7-0.2-1.5-0.1-2.1,0.3c-0.3-1.2-1.6-1.9-2.8-1.6c-0.3,0.1-0.5,0.2-0.7,0.3c-0.3-1.2-1.6-1.9-2.8-1.6c-0.6,0.2-1.1,0.5-1.4,1
		l-1.1,2c-0.4-0.4-0.7-0.7-1-1.1c-0.4-0.5-0.8-1-1.2-1.6l4.9-8.5c1.7,0.9,3.3,1.2,4.8,1.5c0.5,0.1,1.1,0.2,1.6,0.3l-2.1,2.1
		c-0.6,0.6-0.6,1.5,0,2c1.2,1.2,3.3,1,4.5-0.1l1.3-1.3l1.7,0.1c1.6,1.6,3.3,2.4,4.7,2.7l6.7,3.9C38.1,35.1,38.4,35.9,38,36.6
		L38,36.6z M18.8,34c0.7,0.4,0.9,1.2,0.5,1.9l-2.5,4.3c-0.4,0.7-1.2,0.9-1.9,0.6c-0.7-0.4-0.9-1.2-0.6-1.9c0,0,0,0,0-0.1l2.5-4.3
		C17.4,33.9,18.1,33.6,18.8,34L18.8,34z M24.8,38.2c0.6,0.4,0.9,1.3,0.5,1.9l-1.8,3.2c-0.4,0.7-1.2,0.9-1.9,0.5
		c-0.7-0.4-0.9-1.2-0.5-1.9l1.8-3.2C23.3,38.1,24,37.8,24.8,38.2L24.8,38.2z M31,29.9c2.2,0.4,3.8-0.4,3.8-0.4
		c0.2-0.1,0.5,0,0.6,0.2c0.1,0.2,0,0.5-0.2,0.6c0,0,0,0-0.1,0c0,0-1,0.5-2.4,0.6l5.2,3c0.1,0,0.1,0.1,0.2,0.1
		c0.2-0.3,0.5-0.6,0.7-0.9c0.3-0.4,0.5-0.7,0.8-1.1l-4.9-8.5c-0.2,0.1-0.4,0.2-0.5,0.3c-0.3,0.1-0.6,0.3-0.9,0.4
		c-1.1,0.4-2.2,0.4-3.3-0.1l-0.9-0.4c-0.7-0.3-1.6-0.4-2.3-0.2l-3.4,0.9c-0.6,0.2-1.2,0.5-1.6,0.9l-2.7,2.7c-0.2,0.2-0.2,0.6,0,0.8
		c0.8,0.8,2.4,0.7,3.2-0.1l1.5-1.5c0.1-0.1,0.2-0.1,0.3-0.1l2.1,0.1c0.1,0,0.2,0,0.3,0.1C28.1,29,29.6,29.7,31,29.9L31,29.9z
		 M40.7,32.2c0.4,0.7,1.2,0.9,1.9,0.5l2-1.1c0.7-0.4,0.9-1.2,0.5-1.9l-5.6-9.8c-0.4-0.7-1.2-0.9-1.9-0.5l-2,1.1
		c-0.7,0.4-0.9,1.2-0.5,1.9L40.7,32.2L40.7,32.2z M20,13.3c-0.3-0.4-0.2-1,0.3-1.3s1-0.2,1.3,0.3c0,0,0,0,0,0l1,1.7l5-3.6
		c0.4-0.3,1-0.2,1.3,0.2c0.3,0.4,0.2,1-0.2,1.3c0,0,0,0,0,0l-5.8,4.2c-0.4,0.3-1,0.2-1.3-0.2c0,0,0,0,0-0.1L20,13.3z"/>
</g>
</svg>
