<?xml version="1.0" encoding="utf-8"?>
<!-- Generator: Adobe Illustrator 26.0.1, SVG Export Plug-In . SVG Version: 6.00 Build 0)  -->
<svg version="1.1" id="Layer_1" xmlns="http://www.w3.org/2000/svg" xmlns:xlink="http://www.w3.org/1999/xlink" x="0px" y="0px"
	 viewBox="0 0 74 74" style="enable-background:new 0 0 74 74;" xml:space="preserve">
<style type="text/css">
	.st0{fill:#00ADEE;}
</style>
<g>
	<g>
		<path class="st0" d="M37.8,7.9c8.5,0,16.1,3.9,21,10.1l-3.3,2.3l10.2,3.5l-1.1-10l-2.9,2C56.2,8.7,47.5,4.2,37.8,4.2
			c-4.8,0-9.3,1.1-13.4,3.1l1.2,3.6C29.3,9,33.4,7.9,37.8,7.9z"/>
		<path class="st0" d="M64.6,41.8c-0.9,4-2.8,7.9-5.6,11.2c-5.5,6.5-13.4,9.7-21.3,9.6l0.3-4l-9.3,5.6l8.3,5.6l0.3-3.5
			c9.1,0.3,18.1-3.4,24.4-10.9c3.1-3.7,5.2-7.9,6.3-12.2L64.6,41.8z"/>
		<path class="st0" d="M11.6,45.9C8.4,38,9.2,29.5,13,22.6l3.4,2.1L15.7,14l-8.8,4.8l3,1.9c-4.4,7.9-5.3,17.7-1.6,26.7
			c1.8,4.4,4.6,8.2,7.9,11.2l2.9-2.5C15.9,53.4,13.3,50,11.6,45.9z"/>
		<path class="st0" d="M37.8,55.4l0.5,0c0,0,0,0,0.1,0c6.6,0,12.4-3.2,16.1-8.1c0.6-0.9,1.2-1.8,1.7-2.7c1.1-2.2,1.8-4.5,2.1-7
			c0.1-0.7,0.1-1.3,0.1-2c0-0.1,0-0.2,0-0.3c0-1.8-0.3-3.6-0.8-5.3c-0.2-0.6-0.4-1.2-0.6-1.8c-0.5-1.2-1.1-2.4-1.8-3.4
			c-0.3-0.5-0.7-1-1-1.4c-1-1.3-2.1-2.4-3.4-3.4c-0.4-0.3-0.9-0.7-1.3-1c-3.2-2.1-6.9-3.3-11-3.3c-3.6,0-7,1-9.9,2.6
			c-0.5,0.3-0.9,0.6-1.4,0.9c-1.3,0.9-2.5,1.9-3.5,3.1c-0.4,0.4-0.8,0.9-1.1,1.4c-1,1.3-1.8,2.8-2.5,4.3c-0.2,0.6-0.5,1.2-0.7,1.8
			c-0.5,1.7-0.8,3.4-0.8,5.3c0,0.2,0,0.3,0,0.5c0,0.6,0,1.2,0.1,1.8c0.2,2.2,0.8,4.3,1.6,6.3c0.5,1,1,2,1.6,2.9
			C25.2,51.7,31.1,55.2,37.8,55.4C37.8,55.4,37.8,55.4,37.8,55.4z M38.8,44c2.2,0,4.2-0.2,6.2-0.6c-0.5,2-1.1,3.8-1.7,5.3
			C41.9,48.9,40.5,49,39,49C38.9,47.5,38.9,45.8,38.8,44z M41,53.5c-0.6,0.1-1.1,0.1-1.7,0.2c-0.1-0.8-0.1-1.8-0.2-3.1
			c1.2,0,2.4-0.1,3.5-0.2C41.9,52,41.3,53,41,53.5z M43.9,52.9c-0.3,0.1-0.5,0.2-0.8,0.2c0.4-0.7,0.9-1.7,1.4-2.9
			c0.7-0.1,1.5-0.2,2.2-0.4C45.4,51.4,44.4,52.4,43.9,52.9z M45.2,48.4c0.6-1.6,1.2-3.4,1.6-5.4c1.6-0.4,3.2-0.9,4.6-1.5
			c-0.8,2.4-2,4.5-3.2,6.3C47.2,48.1,46.2,48.3,45.2,48.4z M47.8,51.1c0.5-0.6,1-1.2,1.5-1.9c0.6-0.2,1.2-0.4,1.8-0.5
			C50,49.6,49,50.4,47.8,51.1z M53.3,46c-0.8,0.4-1.7,0.7-2.6,1.1c1.1-1.9,2.1-4,2.7-6.4c1-0.5,2-1.1,2.9-1.7
			C55.8,41.5,54.8,43.9,53.3,46z M56.6,35.5c0,0.4,0,0.8,0,1.2c-0.8,0.7-1.8,1.3-2.8,1.9c0.2-1,0.2-2.1,0.2-3.1
			c0-0.8-0.1-1.5-0.2-2.3c0.8-0.6,1.6-1.2,2.3-1.8C56.5,32.7,56.6,34,56.6,35.5z M55.6,29.6c-0.6,0.7-1.3,1.3-2.1,1.9
			c-0.3-1.3-0.8-2.6-1.3-3.8c0.7-0.5,1.3-1,1.8-1.6C54.6,27.1,55.2,28.3,55.6,29.6z M49.7,21.2c1.3,1,2.4,2.2,3.3,3.4
			c-0.5,0.5-1,1-1.6,1.5c-0.8-1.5-1.7-2.9-2.6-4.1C49.1,21.7,49.4,21.5,49.7,21.2z M50.1,27.1c-1.1,0.7-2.2,1.2-3.5,1.7
			c-0.4-1.6-0.9-3.2-1.4-4.6c0.9-0.3,1.6-0.7,2.3-1.2C48.4,24.2,49.3,25.6,50.1,27.1z M48.4,20.2c-0.2,0.2-0.4,0.3-0.6,0.5
			c-0.5-0.6-1-1.2-1.4-1.6C47.1,19.4,47.8,19.8,48.4,20.2z M42.7,17.7c0.4,0.4,2,1.8,3.8,4c-0.6,0.4-1.2,0.7-1.9,0.9
			c-0.9-2.1-1.8-3.9-2.5-5.1C42.3,17.7,42.5,17.7,42.7,17.7z M39.4,17.3c0.2,0,0.4,0,0.6,0c0.5,0.9,1.8,3,3,5.9
			c-1.2,0.3-2.5,0.5-3.9,0.5c0,0,0,0,0,0C39.2,20.7,39.3,18.4,39.4,17.3z M39,25.3C39,25.3,39,25.3,39,25.3c1.7,0,3.2-0.2,4.6-0.6
			c0.5,1.4,1,2.9,1.4,4.5c-1.8,0.5-3.8,0.8-5.9,0.8c-0.1,0-0.2,0-0.2,0C38.9,28.3,38.9,26.7,39,25.3z M38.6,31.5
			c6.3,0,11-2.3,12.2-3c0.5,1.2,1.2,3.6,1.3,3.9c0.1,0.3,0.3,1.1,0.3,1.7s-0.1,4.1-0.4,5.5c-1.3,0.6-7.1,2.8-13.2,2.8
			c-6.1,0-12.1-2.1-13.6-2.7c-0.3-1.3-0.5-5.5-0.1-7.1c0.2-0.5,0.9-3.1,1.5-4.5C27.6,28.8,31.7,31,38.6,31.5z M37.4,48.9
			c-1.3,0-2.5-0.2-3.7-0.3c-0.6-1.5-1.2-3.2-1.6-5.2c1.7,0.3,3.4,0.5,5.2,0.6C37.2,45.8,37.3,47.5,37.4,48.9z M31.8,48.3
			c-1-0.2-2-0.4-3-0.7c-1.1-1.7-2.3-3.7-3-5.9c1.4,0.6,2.9,1,4.5,1.4C30.6,45,31.2,46.8,31.8,48.3z M27.3,26.6
			c0.8-1.5,1.8-2.9,2.7-4c0.6,0.5,1.3,0.9,2.1,1.2c-0.5,1.4-1.1,3-1.5,4.6C29.4,27.8,28.3,27.2,27.3,26.6z M32.1,28.9
			c0.4-1.6,0.9-3.2,1.5-4.5c1.2,0.4,2.5,0.7,3.8,0.8c-0.1,1.5-0.1,3-0.2,4.7C35.4,29.8,33.7,29.4,32.1,28.9z M37.7,17.2
			c-0.1,1.2-0.2,3.4-0.3,6.3c-1.2-0.1-2.2-0.4-3.2-0.7c1.2-2.7,2.3-4.7,2.9-5.6C37.3,17.2,37.5,17.2,37.7,17.2z M34.5,17.6
			c0.1,0,0.3-0.1,0.5-0.1c-0.6,1.1-1.5,2.7-2.3,4.7c-0.6-0.3-1.2-0.6-1.7-1C32.9,19,34.5,17.7,34.5,17.6L34.5,17.6z M31,18.8
			c-0.4,0.4-0.8,0.9-1.3,1.4c-0.2-0.2-0.3-0.3-0.5-0.5C29.8,19.3,30.4,19,31,18.8z M27.9,20.5c0.2,0.3,0.5,0.6,0.8,0.9
			c-0.9,1.2-1.9,2.6-2.7,4.1c-0.6-0.6-1.2-1.2-1.6-1.8C25.4,22.5,26.6,21.4,27.9,20.5z M23.4,25c0.5,0.7,1.2,1.3,1.9,1.9
			c-0.7,1.4-1.3,3-1.7,4.6c-0.9-0.7-1.7-1.4-2.5-2.2C21.7,27.8,22.4,26.4,23.4,25z M20.1,36.5c0-0.3,0-0.7,0-1.1
			c0-1.5,0.2-2.9,0.5-4.3c0.8,0.8,1.7,1.5,2.6,2.1c-0.1,0.7-0.2,1.4-0.2,2.2c0,1.1,0.1,2.2,0.2,3.3C22.1,38.1,21.1,37.3,20.1,36.5z
			 M22.9,45.3c-1.2-2-2.1-4.2-2.6-6.5c1,0.7,2.2,1.4,3.4,2c0.6,2.2,1.5,4.3,2.6,6C25.1,46.3,24,45.8,22.9,45.3z M25.1,48.1
			c0.8,0.3,1.7,0.6,2.6,0.9c0.7,1,1.4,1.9,2,2.6C28,50.6,26.4,49.5,25.1,48.1z M33.4,53.1c-0.2-0.2-1.6-1.4-3.1-3.4
			c0.7,0.2,1.4,0.3,2.2,0.4c0.5,1.3,1.1,2.3,1.5,3.1C33.8,53.2,33.6,53.1,33.4,53.1z M36.1,53.6c-0.3-0.5-0.9-1.6-1.7-3.2
			c1,0.1,2,0.2,3.1,0.2c0.1,1.3,0.1,2.3,0.2,3.1C37.1,53.7,36.6,53.7,36.1,53.6z"/>
		<path class="st0" d="M34.9,38.2h-3.3v0c0.3-0.2,0.7-0.4,1.1-0.6c0.4-0.2,0.7-0.4,1-0.7c0.3-0.2,0.6-0.5,0.8-0.8
			c0.2-0.3,0.3-0.7,0.3-1.2c0-0.4-0.1-0.7-0.2-1c-0.1-0.3-0.3-0.5-0.6-0.7c-0.3-0.2-0.6-0.3-1-0.4c-0.4-0.1-0.8-0.1-1.2-0.1
			c-0.5,0-0.9,0.1-1.3,0.2c-0.4,0.1-0.7,0.3-1,0.6c-0.3,0.3-0.5,0.6-0.6,1c-0.1,0.4-0.2,0.8-0.2,1.4h2c0-0.5,0.1-0.8,0.2-1.1
			c0.2-0.3,0.5-0.4,0.9-0.4c0.2,0,0.5,0.1,0.6,0.2c0.2,0.1,0.3,0.4,0.3,0.7c0,0.1,0,0.3-0.1,0.4c-0.1,0.1-0.2,0.2-0.3,0.3
			C32.2,35.9,32.1,36,32,36c-0.1,0.1-0.2,0.1-0.3,0.2c-0.2,0.1-0.5,0.3-0.7,0.4c-0.2,0.1-0.5,0.3-0.7,0.5c-0.2,0.2-0.4,0.3-0.6,0.5
			c-0.2,0.2-0.4,0.4-0.5,0.6c-0.2,0.2-0.3,0.5-0.4,0.8c-0.1,0.3-0.1,0.6-0.1,1h6.4L34.9,38.2L34.9,38.2z"/>
		<path class="st0" d="M38.8,40H41v-1.5h1v-1.8h-1v-4.1h-2.1l-3.4,3.9v2h3.3V40z M37,36.8l1.8-2.1v2.1H37z"/>
		<path class="st0" d="M45,37.1c0-0.2,0-0.4,0.1-0.5c0.1-0.1,0.1-0.2,0.2-0.3c0.1-0.1,0.2-0.1,0.3-0.2c0.1,0,0.2,0,0.3,0
			c0.2,0,0.3,0,0.4,0.1c0.1,0.1,0.2,0.1,0.2,0.2c0.1,0.1,0.1,0.2,0.1,0.3c0,0.1,0,0.3,0,0.4V40h2.1v-3.8c0-0.3-0.1-0.6-0.2-0.8
			c-0.1-0.2-0.2-0.4-0.4-0.6c-0.2-0.2-0.4-0.3-0.6-0.3c-0.2-0.1-0.5-0.1-0.7-0.1c-0.4,0-0.8,0.1-1.1,0.2c-0.3,0.1-0.5,0.3-0.7,0.5h0
			v-2.6h-2.1V40H45L45,37.1L45,37.1z"/>
	</g>
</g>
</svg>
