<?xml version="1.0" encoding="utf-8"?>
<!-- Generator: Adobe Illustrator 26.0.1, SVG Export Plug-In . SVG Version: 6.00 Build 0)  -->
<svg version="1.1" id="Layer_1" xmlns="http://www.w3.org/2000/svg" xmlns:xlink="http://www.w3.org/1999/xlink" x="0px" y="0px"
	 viewBox="0 0 74 74" style="enable-background:new 0 0 74 74;" xml:space="preserve">
<style type="text/css">
	.st0{fill:#00ADEE;}
</style>
<g id="Layer_2_00000060740595043434469710000009053635590231595913_">
	<g id="Layer_1-2">
		<path class="st0" d="M16.6,41.1c0,4.5,3.7,8.2,8.2,8.2s8.2-3.7,8.2-8.2s-3.7-8.2-8.2-8.2S16.6,36.6,16.6,41.1z M28.8,41.1
			c0,2.3-1.8,4.1-4.1,4.1s-4.1-1.8-4.1-4.1c0-2.3,1.8-4.1,4.1-4.1S28.8,38.8,28.8,41.1z M35,53.3H14.6c-5.6,0-10.2,4.6-10.2,10.2
			c0,3.4,2.7,6.1,6.1,6.1l0,0H39c3.4,0,6.1-2.7,6.1-6.1l0,0C45.2,57.9,40.6,53.3,35,53.3z M39,65.5H10.5c-1.1,0-2-0.9-2-2
			c0-3.4,2.7-6.1,6.1-6.1H35c3.4,0,6.1,2.7,6.1,6.1C41.1,64.6,40.2,65.5,39,65.5z M69.6,6.4V39c0,1.1-0.9,2-2,2H45.2v4.1h10.2
			c1.1,0,2,0.9,2,2c0,1.1-0.9,2-2,2H39c-1.1,0-2-0.9-2-2c0-1.1,0.9-2,2-2h2v-4.1h-2c-1.1,0-2-0.9-2-2c0-1.1,0.9-2,2-2h26.5V8.5H20.7
			v18.3c0,1.1-0.9,2-2,2c-1.1,0-2-0.9-2-2V6.4c0-1.1,0.9-2,2-2h48.9C68.7,4.4,69.6,5.3,69.6,6.4z M30.9,28.8c-0.5,0-1.1-0.2-1.4-0.6
			c-0.8-0.7-0.8-2-0.1-2.8c0,0,0.1-0.1,0.1-0.1l8.2-8.2c0.7-0.8,2-0.8,2.8-0.1c0,0,0.1,0.1,0.1,0.1l6.7,6.7L58,13.1
			c0.8-0.8,2.1-0.8,2.9,0c0.8,0.8,0.8,2.1,0,2.9L48.6,28.2c-0.7,0.8-2,0.8-2.8,0.1c0,0-0.1-0.1-0.1-0.1L39,21.5l-6.7,6.7
			C31.9,28.6,31.4,28.9,30.9,28.8z"/>
	</g>
</g>
</svg>
