<?xml version="1.0" encoding="utf-8"?>
<!-- Generator: Adobe Illustrator 26.0.1, SVG Export Plug-In . SVG Version: 6.00 Build 0)  -->
<svg version="1.1" id="Layer_1" xmlns="http://www.w3.org/2000/svg" xmlns:xlink="http://www.w3.org/1999/xlink" x="0px" y="0px"
	 viewBox="0 0 74 74" style="enable-background:new 0 0 74 74;" xml:space="preserve">
<style type="text/css">
	.st0{fill:#00ADEE;}
</style>
<g>
	<g>
		<path class="st0" d="M43,39.8c-1.9-0.5-3.4-1.5-3.4-1.5L38.4,42l-0.2,0.7v0L38,43.3l-0.6-1.8c1.6-2.2-0.4-2.1-0.4-2.1
			s-2-0.1-0.4,2.1L36,43.3l-0.2-0.6l-1.4-4.4c0,0-1.5,1.1-3.4,1.5c-0.9,0.2-1.3,1-1.4,1.8c1.7,2.3,4.3,3.7,7.3,3.7
			c0.7,0,1.4-0.1,2-0.2c2.2-0.5,4-1.7,5.3-3.5C44.2,40.8,43.9,40.1,43,39.8z"/>
		<circle class="st0" cx="37" cy="23.8" r="0.7"/>
		<circle class="st0" cx="37" cy="25.7" r="0.7"/>
		<path class="st0" d="M37,16.8c0.4,0,0.7-0.3,0.7-0.7c0-0.4-0.3-0.7-0.7-0.7s-0.7,0.3-0.7,0.7C36.3,16.5,36.6,16.8,37,16.8z"/>
		<circle class="st0" cx="37" cy="18" r="0.7"/>
		<circle class="st0" cx="37" cy="20" r="0.7"/>
		<path class="st0" d="M37,22.5L37,22.5c0.1,0,0.1,0,0.2,0c0.3-0.1,0.5-0.3,0.5-0.6l0,0l0,0c0-0.4-0.3-0.7-0.7-0.7l0,0l0,0
			c-0.4,0-0.7,0.3-0.7,0.7l0,0l0,0C36.3,22.2,36.6,22.5,37,22.5z"/>
		<circle class="st0" cx="37" cy="55.7" r="0.7"/>
		<circle class="st0" cx="37" cy="57.6" r="0.7"/>
		<path class="st0" d="M37,48.6c0.4,0,0.7-0.3,0.7-0.7c0-0.4-0.3-0.7-0.7-0.7s-0.7,0.3-0.7,0.7C36.3,48.3,36.6,48.6,37,48.6z"/>
		<circle class="st0" cx="37" cy="49.9" r="0.7"/>
		<circle class="st0" cx="37" cy="51.8" r="0.7"/>
		<path class="st0" d="M36.9,54.4c0,0,0.1,0,0.1,0c0,0,0.1,0,0.1,0c0.3-0.1,0.5-0.3,0.5-0.6l0,0l0,0c0-0.4-0.3-0.7-0.7-0.7
			s-0.7,0.3-0.7,0.7l0,0l0,0C36.3,54.1,36.6,54.3,36.9,54.4z"/>
		<path class="st0" d="M52,44.5L52,44.5L52,44.5c-0.3-0.2-0.7,0-0.9,0.3c-0.2,0.3,0,0.7,0.3,0.9l0,0l0,0c0.3,0.1,0.6,0.1,0.8-0.2
			c0,0,0.1-0.1,0.1-0.1c0,0,0-0.1,0-0.1C52.5,45,52.3,44.7,52,44.5z"/>
		<circle class="st0" cx="53.5" cy="46" r="0.7"/>
		<circle class="st0" cx="55.2" cy="46.9" r="0.7"/>
		<path class="st0" d="M46.9,41.9c-0.3-0.2-0.7,0-0.9,0.3c-0.2,0.3,0,0.7,0.3,0.9s0.7,0,0.9-0.3C47.3,42.5,47.2,42.1,46.9,41.9z"/>
		<circle class="st0" cx="48.3" cy="43.4" r="0.7"/>
		<circle class="st0" cx="50" cy="44.3" r="0.7"/>
		<path class="st0" d="M22,44.5L22,44.5L22,44.5c-0.3,0.2-0.5,0.6-0.3,0.9c0,0,0,0.1,0.1,0.1c0.2,0.2,0.5,0.3,0.8,0.2l0,0l0,0
			c0.3-0.2,0.5-0.6,0.3-0.9C22.7,44.5,22.3,44.4,22,44.5z"/>
		<circle class="st0" cx="20.5" cy="46" r="0.7"/>
		<circle class="st0" cx="18.8" cy="46.9" r="0.7"/>
		<path class="st0" d="M27.1,41.9c-0.3,0.2-0.5,0.6-0.3,0.9c0.2,0.3,0.6,0.5,0.9,0.3c0.3-0.2,0.5-0.6,0.3-0.9
			C27.8,41.9,27.5,41.8,27.1,41.9z"/>
		<circle class="st0" cx="25.7" cy="43.4" r="0.7"/>
		<circle class="st0" cx="24" cy="44.3" r="0.7"/>
		<path class="st0" d="M22.6,28L22.6,28L22.6,28c-0.3-0.1-0.6-0.1-0.8,0.2c0,0-0.1,0.1-0.1,0.1c0,0,0,0.1,0,0.1
			c-0.1,0.3,0.1,0.6,0.3,0.8l0,0l0,0c0.3,0.2,0.7,0,0.9-0.3C23,28.6,22.9,28.2,22.6,28z"/>
		<circle class="st0" cx="20.6" cy="27.7" r="0.7"/>
		<circle class="st0" cx="18.8" cy="26.9" r="0.7"/>
		<path class="st0" d="M27.7,30.6c-0.3-0.2-0.7,0-0.9,0.3c-0.2,0.3,0,0.7,0.3,0.9c0.3,0.2,0.7,0,0.9-0.3S28.1,30.8,27.7,30.6z"/>
		<circle class="st0" cx="25.7" cy="30.4" r="0.7"/>
		<circle class="st0" cx="24" cy="29.5" r="0.7"/>
		<path class="st0" d="M52.3,28.2c-0.2-0.2-0.5-0.3-0.8-0.2l0,0l0,0c-0.3,0.2-0.5,0.6-0.3,0.9c0.2,0.3,0.6,0.5,0.9,0.3l0,0l0,0
			c0.3-0.2,0.5-0.6,0.3-0.9C52.3,28.3,52.3,28.2,52.3,28.2z"/>
		<circle class="st0" cx="53.5" cy="27.7" r="0.7"/>
		<circle class="st0" cx="55.2" cy="26.9" r="0.7"/>
		<path class="st0" d="M46.3,30.6c-0.3,0.2-0.5,0.6-0.3,0.9c0.2,0.3,0.6,0.5,0.9,0.3c0.3-0.2,0.5-0.6,0.3-0.9S46.6,30.5,46.3,30.6z"
			/>
		<circle class="st0" cx="48.3" cy="30.4" r="0.7"/>
		<circle class="st0" cx="50" cy="29.5" r="0.7"/>
		<path class="st0" d="M42.3,11.8c-0.1-0.1-0.2-0.2-0.3-0.3c-1.4-1.1-2.7-1.7-3-1.9c0,0-0.1-0.1-0.1-0.1c0-0.1,0-0.5,0-0.8
			c0.3-0.4,0.5-0.8,0.5-1.2c0.1,0,0.3-0.2,0.5-0.9c0.3-0.9,0-1.1-0.2-1c0-0.1,0.1-0.3,0.1-0.4C40.2,2.8,39,2.7,39,2.7
			s-0.2-0.4-0.7-0.7c-0.3-0.2-0.8-0.4-1.5-0.3c-0.2,0-0.4,0-0.6,0.1l0,0C36,2,35.8,2.1,35.6,2.2c-0.2,0.1-0.5,0.3-0.7,0.5
			c-0.3,0.3-0.6,0.7-0.7,1.2c-0.1,0.4-0.1,0.8,0,1.2l0,0c0,0.1,0.1,0.2,0.1,0.4c-0.2,0-0.5,0.1-0.2,1c0.2,0.7,0.4,0.9,0.5,0.9
			c0.1,0.4,0.2,0.8,0.5,1.2v0.8c0,0,0,0.1-0.1,0.1c-0.3,0.1-1.7,0.8-3,1.9c-0.1,0.1-0.2,0.2-0.3,0.3c1.4,1.2,3.3,1.9,5.3,1.9
			C39,13.7,40.8,13,42.3,11.8z"/>
		<path class="st0" d="M41.9,70c-1.4-1.1-2.7-1.7-3-1.9c0,0-0.1-0.1-0.1-0.1c0-0.1,0-0.5,0-0.8c0.3-0.4,0.5-0.8,0.5-1.2
			c0.1,0,0.3-0.2,0.5-0.9c0.3-0.9,0-1.1-0.2-1c0-0.1,0.1-0.3,0.1-0.4c0.4-2.4-0.8-2.5-0.8-2.5s-0.2-0.4-0.7-0.7
			c-0.3-0.2-0.8-0.4-1.5-0.3c-0.2,0-0.4,0-0.6,0.1l0,0c-0.2,0.1-0.4,0.2-0.6,0.3c-0.2,0.1-0.5,0.3-0.7,0.5c-0.3,0.3-0.6,0.7-0.7,1.2
			c-0.1,0.4-0.1,0.8,0,1.2l0,0c0,0.1,0.1,0.2,0.1,0.4c-0.2,0-0.5,0.1-0.2,1c0.2,0.7,0.4,0.9,0.5,0.9c0.1,0.4,0.2,0.8,0.5,1.2v0.8
			c0,0,0,0.1-0.1,0.1c-0.3,0.1-1.7,0.8-3,1.9c-0.1,0.1-0.2,0.2-0.3,0.3c1.4,1.2,3.3,1.9,5.3,1.9c2,0,3.8-0.7,5.3-1.9
			C42.2,70.2,42.1,70.1,41.9,70z"/>
		<path class="st0" d="M67.9,50.4c-1.4-1.1-2.7-1.7-3-1.9c0,0-0.1-0.1-0.1-0.1c0-0.1,0-0.5,0-0.8c0.3-0.4,0.5-0.8,0.5-1.2
			c0.1,0,0.3-0.2,0.5-0.9c0.3-0.9,0-1.1-0.2-1c0-0.1,0.1-0.3,0.1-0.4c0.4-2.4-0.8-2.5-0.8-2.5s-0.2-0.4-0.7-0.7
			c-0.3-0.2-0.8-0.4-1.5-0.3c-0.2,0-0.4,0-0.6,0.1l0,0c-0.2,0.1-0.4,0.2-0.6,0.3c-0.2,0.1-0.5,0.3-0.7,0.5c-0.3,0.3-0.6,0.7-0.7,1.2
			c-0.1,0.4-0.1,0.8,0,1.2l0,0c0,0.1,0.1,0.2,0.1,0.4c-0.2,0-0.5,0.1-0.2,1c0.2,0.7,0.4,0.9,0.5,0.9c0.1,0.4,0.2,0.8,0.5,1.2v0.8
			c0,0,0,0.1-0.1,0.1c-0.3,0.1-1.7,0.8-3,1.9c-0.1,0.1-0.2,0.2-0.3,0.3c1.4,1.2,3.3,1.9,5.3,1.9c2,0,3.8-0.7,5.3-1.9
			C68.1,50.6,68,50.5,67.9,50.4z"/>
		<path class="st0" d="M68.2,28.1c-0.1-0.1-0.2-0.2-0.3-0.3c-1.4-1.1-2.7-1.7-3-1.9c0,0-0.1-0.1-0.1-0.1c0-0.1,0-0.5,0-0.8
			c0.3-0.4,0.5-0.8,0.5-1.2c0.1,0,0.3-0.2,0.5-0.9c0.3-0.9,0-1.1-0.2-1c0-0.1,0.1-0.3,0.1-0.4c0.4-2.4-0.8-2.5-0.8-2.5
			s-0.2-0.4-0.7-0.7c-0.3-0.2-0.8-0.4-1.5-0.3c-0.2,0-0.4,0-0.6,0.1l0,0c-0.2,0.1-0.4,0.2-0.6,0.3c-0.2,0.1-0.5,0.3-0.7,0.5
			c-0.3,0.3-0.6,0.7-0.7,1.2c-0.1,0.4-0.1,0.8,0,1.2l0,0c0,0.1,0.1,0.2,0.1,0.4c-0.2,0-0.5,0.1-0.2,1c0.2,0.7,0.4,0.9,0.5,0.9
			c0.1,0.4,0.2,0.8,0.5,1.2v0.8c0,0,0,0.1-0.1,0.1c-0.3,0.1-1.7,0.8-3,1.9c-0.1,0.1-0.2,0.2-0.3,0.3c1.4,1.2,3.3,1.9,5.3,1.9
			C65,30,66.8,29.3,68.2,28.1z"/>
		<path class="st0" d="M16,50.4c-1.4-1.1-2.7-1.7-3-1.9c0,0-0.1-0.1-0.1-0.1c0-0.1,0-0.5,0-0.8c0.3-0.4,0.5-0.8,0.5-1.2
			c0.1,0,0.3-0.2,0.5-0.9c0.3-0.9,0-1.1-0.2-1c0-0.1,0.1-0.3,0.1-0.4c0.4-2.4-0.8-2.5-0.8-2.5s-0.2-0.4-0.7-0.7
			c-0.3-0.2-0.8-0.4-1.5-0.3c-0.2,0-0.4,0-0.6,0.1l0,0c-0.2,0.1-0.4,0.2-0.6,0.3c-0.2,0.1-0.5,0.3-0.7,0.5c-0.3,0.3-0.6,0.7-0.7,1.2
			c-0.1,0.4-0.1,0.8,0,1.2l0,0c0,0.1,0.1,0.2,0.1,0.4c-0.2,0-0.5,0.1-0.2,1c0.2,0.7,0.4,0.9,0.5,0.9c0.1,0.4,0.2,0.8,0.5,1.2v0.8
			c0,0,0,0.1-0.1,0.1c-0.3,0.1-1.7,0.8-3,1.9c-0.1,0.1-0.2,0.2-0.3,0.3c1.4,1.2,3.3,1.9,5.3,1.9s3.8-0.7,5.3-1.9
			C16.2,50.6,16.1,50.5,16,50.4z"/>
		<path class="st0" d="M16,27.8c-1.4-1.1-2.7-1.7-3-1.9c0,0-0.1-0.1-0.1-0.1c0-0.1,0-0.5,0-0.8c0.3-0.4,0.5-0.8,0.5-1.2
			c0.1,0,0.3-0.2,0.5-0.9c0.3-0.9,0-1.1-0.2-1c0-0.1,0.1-0.3,0.1-0.4C14.2,19.1,13,19,13,19s-0.2-0.4-0.7-0.7
			c-0.3-0.2-0.8-0.4-1.5-0.3c-0.2,0-0.4,0-0.6,0.1l0,0c-0.2,0.1-0.4,0.2-0.6,0.3C9.4,18.6,9.2,18.8,9,19c-0.3,0.3-0.6,0.7-0.7,1.2
			c-0.1,0.4-0.1,0.8,0,1.2l0,0c0,0.1,0.1,0.2,0.1,0.4c-0.2,0-0.5,0.1-0.2,1c0.2,0.7,0.4,0.9,0.5,0.9c0.1,0.4,0.2,0.8,0.5,1.2v0.8
			c0,0,0,0.1-0.1,0.1c-0.3,0.1-1.7,0.8-3,1.9C6,27.9,5.9,28,5.8,28.1C7.2,29.3,9,30,11,30s3.8-0.7,5.3-1.9
			C16.2,28,16.1,27.9,16,27.8z"/>
		<path class="st0" d="M33.2,34.7c0.2,0.9,0.5,1.1,0.6,1.1c0.2,1,1,2.4,2.3,2.8c0.5,0.2,1.1,0.2,1.7,0c1.3-0.5,2.1-1.8,2.3-2.8
			c0.2,0,0.4-0.3,0.6-1.1c0.3-1.2,0-1.4-0.3-1.4c0.1-0.2,0.1-0.3,0.1-0.5c0.5-3.1-1-3.2-1-3.2s-0.3-0.5-0.9-0.8
			c-0.4-0.3-1.1-0.5-1.9-0.4c-0.3,0-0.5,0.1-0.7,0.1l0,0c-0.3,0.1-0.6,0.2-0.8,0.4c-0.3,0.2-0.6,0.4-0.8,0.7
			c-0.4,0.4-0.8,0.9-0.9,1.6c-0.1,0.5-0.1,1,0,1.6l0,0c0,0.2,0.1,0.3,0.1,0.5C33.3,33.3,32.9,33.5,33.2,34.7z"/>
	</g>
</g>
</svg>
