<svg width="74" height="74" viewBox="0 0 74 74" fill="none" xmlns="http://www.w3.org/2000/svg">
<path fill-rule="evenodd" clip-rule="evenodd" d="M54.5751 54.8671C50.6509 54.8671 47.4782 51.6944 47.4782 47.7703C47.4782 45.5995 50.0247 40.6317 52.6965 35.6639C53.0722 34.9125 53.4479 34.2028 53.6566 33.7436C53.8236 33.4097 54.1993 33.1592 54.5751 33.1592C54.9925 33.1592 55.3265 33.4097 55.5352 33.7436C55.8274 34.2446 56.2031 35.1212 56.7458 36.0397C59.3341 41.0492 61.7136 45.5995 61.7136 47.6868C61.7136 51.6944 58.5409 54.8671 54.5751 54.8671ZM54.5751 36.4571C54.5333 36.5406 54.5333 36.5823 54.4916 36.6241C52.8635 39.6298 49.482 45.9752 49.482 47.7703C49.482 50.5255 51.7363 52.8633 54.5751 52.8633C57.4138 52.8633 59.6681 50.609 59.6681 47.7703C59.6681 46.0169 56.6206 40.2143 54.9508 37.0833C54.8255 36.8746 54.7003 36.6241 54.5751 36.4571Z" fill="#00ADEE"/>
<path fill-rule="evenodd" clip-rule="evenodd" d="M54.5751 51.9867C54.0324 51.9867 53.5314 51.5275 53.5314 50.9431C53.5314 50.3586 54.0324 49.8994 54.5751 49.8994C55.7022 49.8994 56.5789 48.981 56.5789 47.8539C56.5789 47.3112 57.0381 46.8102 57.6225 46.8102C58.1652 46.8102 58.6244 47.3947 58.6244 47.9374C58.6244 50.1917 56.7876 51.9867 54.5751 51.9867ZM21.7627 60.0437H7.27686C6.69242 60.0437 6.23322 59.5845 6.23322 59.0001V28.8595C6.23322 24.3509 9.94861 20.6355 14.4572 20.6355C19.0492 20.6355 22.7229 24.3509 22.7229 28.8595V59.0001C22.8064 59.5845 22.3472 60.0437 21.7627 60.0437ZM8.32051 57.9981H20.7608V28.8595C20.7608 25.478 18.0056 22.6811 14.4989 22.6811C11.1175 22.6811 8.32051 25.478 8.32051 28.8595V57.9981Z" fill="#00ADEE"/>
<path fill-rule="evenodd" clip-rule="evenodd" d="M36.2486 60.0437H21.7627C21.1783 60.0437 20.7191 59.5845 20.7191 59V28.8594C20.7191 24.3509 24.4344 20.6355 28.943 20.6355C33.4933 20.6355 37.2087 24.3509 37.2087 28.8594V59C37.2087 59.5845 36.7495 60.0437 36.2486 60.0437ZM22.8064 57.9981H35.2467V28.8594C35.2467 25.478 32.4497 22.681 28.9848 22.681C25.5616 22.681 22.8064 25.478 22.8064 28.8594V57.9981ZM17.7551 23.4742C17.1706 23.4742 16.7114 23.015 16.7114 22.4306V19.5501C16.7114 18.3394 15.7095 17.2958 14.4572 17.2958C13.2465 17.2958 12.2029 18.2977 12.2029 19.5501V22.4306C12.2029 23.015 11.7437 23.4742 11.1592 23.4742C10.5748 23.4742 10.2408 23.015 10.2408 22.4306V19.5501C10.2408 17.1706 12.1194 15.2502 14.4989 15.2502C16.8784 15.2502 18.757 17.1706 18.757 19.5501V22.4306C18.757 23.015 18.3395 23.4742 17.7551 23.4742Z" fill="#00ADEE"/>
<path fill-rule="evenodd" clip-rule="evenodd" d="M32.241 23.4742C31.6565 23.4742 31.1973 23.015 31.1973 22.4306V19.5501C31.1973 18.3394 30.1954 17.2958 28.943 17.2958C27.6489 17.2958 26.7305 18.3394 26.7305 19.5501V22.4306C26.7305 23.015 26.2713 23.4742 25.6868 23.4742C25.1024 23.4742 24.7267 23.015 24.7267 22.4306V19.5501C24.7267 17.1706 26.6053 15.2502 28.9848 15.2502C31.3643 15.2502 33.2846 17.1706 33.2846 19.5501V22.4306C33.2011 23.015 32.7419 23.4742 32.241 23.4742ZM66.7649 60.0437H42.3852C41.8008 60.0437 41.3416 59.5845 41.3416 59V35.7058C41.3416 31.4894 44.7648 28.0663 48.9811 28.0663H60.169C64.3019 28.0663 67.725 31.4894 67.725 35.7058V59C67.8085 59.5845 67.3493 60.0437 66.7649 60.0437ZM43.4289 57.9981H65.763V35.7058C65.763 32.6583 63.2582 30.1118 60.2108 30.1118H49.0228C45.9754 30.1118 43.4289 32.6583 43.4289 35.7058V57.9981Z" fill="#00ADEE"/>
<path fill-rule="evenodd" clip-rule="evenodd" d="M54.5751 24.7265C54.0324 24.7265 53.5314 24.2256 53.5314 23.6829V10.9086H29.9867V16.2938C29.9867 16.8783 29.5275 17.2957 28.943 17.2957C28.3586 17.2957 27.9411 16.8365 27.9411 16.2938V9.94844C27.9411 9.36399 28.4003 8.94653 28.9848 8.94653H54.5751C55.1595 8.94653 55.6187 9.40574 55.6187 9.94844V23.7246C55.6187 24.3091 55.1595 24.7265 54.5751 24.7265Z" fill="#00ADEE"/>
<path fill-rule="evenodd" clip-rule="evenodd" d="M14.4989 17.2957C13.9145 17.2957 13.4553 16.8365 13.4553 16.2938V9.94844C13.4553 9.36399 13.9145 8.94653 14.4989 8.94653H28.9848C29.5692 8.94653 30.0284 9.40574 30.0284 9.94844C30.0284 10.4494 29.5692 10.9921 28.9848 10.9921H15.5008V16.3773C15.5008 16.8365 15.0416 17.2957 14.4989 17.2957ZM71.6074 65.0531H2.39259C1.84989 65.0531 1.34894 64.5939 1.34894 64.0512V61.5465C1.34894 59.6262 2.97703 57.9981 4.89735 57.9981H69.1444C71.023 57.9981 72.6511 59.5844 72.6511 61.5465V64.0512C72.6093 64.5939 72.1919 65.0531 71.6074 65.0531ZM3.43624 63.0493H70.6473V61.5465C70.6473 60.7115 69.9376 60.0436 69.1444 60.0436H4.93909C4.10417 60.0436 3.43624 60.7115 3.43624 61.5465V63.0493ZM59.1254 30.1117H50.15C49.5655 30.1117 49.1063 29.6108 49.1063 29.0681V26.9808C49.1063 24.6013 50.9849 22.681 53.3644 22.681H55.8274C58.1235 22.681 60.0855 24.643 60.0855 26.9808V29.0681C60.169 29.6108 59.6681 30.1117 59.1254 30.1117ZM51.1101 28.0662H58.0817V27.0225C58.0817 25.8119 57.0381 24.7683 55.8274 24.7683H53.3644C52.1538 24.7683 51.1101 25.8119 51.1101 27.0225V28.0662ZM36.2486 37.1668H7.27687C6.69242 37.1668 6.23322 36.7076 6.23322 36.1232V31.9903C6.23322 31.4059 6.69242 30.9467 7.27687 30.9467H36.2486C36.7913 30.9467 37.2922 31.4059 37.2922 31.9903V36.1232C37.2087 36.7076 36.7913 37.1668 36.2486 37.1668ZM8.32052 35.1213H35.2467V33.034H8.32052V35.1213ZM36.2486 53.072H7.27687C6.69242 53.072 6.23322 52.6128 6.23322 52.0284V47.9373C6.23322 47.3528 6.69242 46.8936 7.27687 46.8936H36.2486C36.7913 46.8936 37.2922 47.3528 37.2922 47.9373V52.0284C37.2087 52.6128 36.7913 53.072 36.2486 53.072ZM8.32052 51.0682H35.2467V48.9809H8.32052V51.0682Z" fill="#00ADEE"/>
</svg>
