<?xml version="1.0" encoding="utf-8"?>
<!-- Generator: Adobe Illustrator 26.0.1, SVG Export Plug-In . SVG Version: 6.00 Build 0)  -->
<svg version="1.1" id="Layer_1" xmlns="http://www.w3.org/2000/svg" xmlns:xlink="http://www.w3.org/1999/xlink" x="0px" y="0px"
	 viewBox="0 0 74 74" style="enable-background:new 0 0 74 74;" xml:space="preserve">
<style type="text/css">
	.st0{fill:none;stroke:#00ADEE;stroke-width:2;stroke-miterlimit:10;}
</style>
<g>
	<path class="st0" d="M11.1,19.6c0,0.5-0.1,1-0.1,1.5c0,17.8,14.4,32.3,32.2,32.3c7.1,0,14-2.3,19.7-6.7L11.1,19.6z"/>
	<line class="st0" x1="36.8" y1="33.1" x2="39" y2="29.3"/>
	<path class="st0" d="M37.5,52.9c0,0-0.5,6.7,4.7,15.6H14.5c3.4-7.3,6.1-14.8,8.2-22.6"/>
	<path class="st0" d="M61.3,23.5C59.8,12.2,49.4,4.2,38.1,5.7c-2.2,0.3-4.3,0.9-6.2,1.9"/>
	<path class="st0" d="M55.6,24.3c-1.1-8.2-8.6-14-16.8-12.9c-1.6,0.2-3.1,0.7-4.5,1.3"/>
	<path class="st0" d="M49.9,25c-0.7-5.1-5.3-8.6-10.4-8c-1,0.1-1.9,0.4-2.8,0.8"/>
	<circle class="st0" cx="39.8" cy="27.8" r="1.7"/>
</g>
</svg>
