<svg width="17" height="17" viewBox="0 0 17 17" fill="none" xmlns="http://www.w3.org/2000/svg">
<path d="M4.04695 3.83386H1.6641C1.45053 3.83449 1.2459 3.91963 1.09491 4.07068C0.943915 4.22172 0.858843 4.42638 0.858276 4.63995V8.59659C0.858914 8.81012 0.944017 9.01471 1.095 9.16569C1.24598 9.31668 1.45058 9.40178 1.6641 9.40242H4.04695V3.83386ZM13.1937 1.63918C12.8952 1.49262 12.5468 1.55113 12.3019 1.76802C10.668 3.10292 8.57078 3.8403 6.46469 3.83386H4.58407V9.40242H6.46469C8.58259 9.39356 10.6567 10.1363 12.3154 11.479C12.812 11.9262 13.6758 11.5442 13.6529 10.8691V2.36716C13.6529 2.0531 13.4785 1.77339 13.1939 1.63918H13.1937ZM14.1903 4.50815V8.72544C16.4575 8.21167 16.4564 5.02112 14.1903 4.50788V4.50815ZM5.75013 9.93981H2.61219L4.69171 14.5415C4.77892 14.7342 4.91975 14.8977 5.09739 15.0125C5.27504 15.1273 5.48198 15.1886 5.69349 15.1889C6.39221 15.2075 6.95242 14.4838 6.75727 13.8108L5.75013 9.93981Z" fill="#00ADEE"/>
</svg>
