<svg width="48" height="48" viewBox="0 0 48 48" fill="none" xmlns="http://www.w3.org/2000/svg">
<path d="M20.8313 19.9567V15.4534C20.8313 14.6003 21.1697 13.7821 21.7722 13.1789C22.3746 12.5757 23.1916 12.2368 24.0436 12.2368C24.8955 12.2368 25.7126 12.5757 26.315 13.1789C26.9174 13.7821 27.2559 14.6003 27.2559 15.4534V19.9567C27.2559 19.9567 32.808 19.9567 33.0697 20.0202V15.5884C33.0697 14.4015 32.8363 13.2262 32.3827 12.1296C31.929 11.033 31.2642 10.0366 30.426 9.19733C29.5879 8.35804 28.5928 7.69228 27.4977 7.23805C26.4026 6.78383 25.2289 6.55005 24.0436 6.55005C22.8583 6.55005 21.6845 6.78383 20.5894 7.23805C19.4943 7.69228 18.4993 8.35804 17.6611 9.19733C16.823 10.0366 16.1581 11.033 15.7045 12.1296C15.2509 13.2262 15.0175 14.4015 15.0175 15.5884V20.0202C15.2792 19.9726 20.8313 19.9567 20.8313 19.9567ZM24.0039 27.2637H23.6787C23.4002 27.3151 23.1382 27.4331 22.915 27.6075C22.6917 27.782 22.5137 28.0078 22.3962 28.2658C22.2787 28.5238 22.225 28.8064 22.2398 29.0896C22.2545 29.3728 22.3373 29.6482 22.4811 29.8926C22.8307 30.4586 23.0385 31.1009 23.0868 31.7646C23.1352 32.4284 23.0226 33.0941 22.7587 33.7049L22.7111 33.8161L22.7666 33.8955H25.2413L25.2968 33.8081L25.2492 33.7049C24.989 33.0901 24.8792 32.422 24.9288 31.7561C24.9785 31.0903 25.1862 30.4459 25.5347 29.8767C25.6842 29.6094 25.7613 29.3077 25.7582 29.0014C25.7552 28.6951 25.6721 28.395 25.5173 28.1308C25.3626 27.8666 25.1414 27.6475 24.8759 27.4954C24.6104 27.3433 24.3098 27.2634 24.0039 27.2637Z" fill="#00ADEE"/>
<path d="M42.9204 38.1216V32.2363C42.9183 31.5889 42.66 30.9687 42.2021 30.5117C41.7442 30.0547 41.124 29.798 40.4775 29.798H36.3293V26.4384H38.8277C39.4756 26.4384 40.097 26.1807 40.5551 25.7219C41.0133 25.2632 41.2706 24.641 41.2706 23.9922V9.86276C42.2657 9.66553 43.1519 9.10462 43.7567 8.2892C44.3615 7.47378 44.6417 6.46218 44.5428 5.45129C44.4438 4.4404 43.9728 3.50254 43.2213 2.82024C42.4699 2.13794 41.4918 1.76001 40.4775 1.76001C39.4631 1.76001 38.485 2.13794 37.7336 2.82024C36.9822 3.50254 36.5111 4.4404 36.4122 5.45129C36.3132 6.46218 36.5934 7.47378 37.1983 8.2892C37.8031 9.10462 38.6893 9.66553 39.6843 9.86276V23.9922C39.6843 24.2197 39.5941 24.4378 39.4334 24.5987C39.2728 24.7596 39.0549 24.8499 38.8277 24.8499H36.2499C36.0677 23.9185 35.5677 23.0794 34.8355 22.4766C34.1032 21.8739 33.1845 21.5448 32.2366 21.5459H15.7706C14.8227 21.5448 13.9039 21.8739 13.1717 22.4766C12.4395 23.0794 11.9395 23.9185 11.7572 24.8499H9.17947C9.06698 24.8499 8.95559 24.8278 8.85166 24.7847C8.74773 24.7415 8.6533 24.6784 8.57376 24.5987C8.49421 24.5191 8.43111 24.4245 8.38807 24.3204C8.34502 24.2164 8.32286 24.1048 8.32286 23.9922V9.86276C9.31791 9.66553 10.2041 9.10462 10.8089 8.2892C11.4137 7.47378 11.6939 6.46218 11.595 5.45129C11.496 4.4404 11.025 3.50254 10.2736 2.82024C9.52214 2.13794 8.54406 1.76001 7.5297 1.76001C6.51534 1.76001 5.53727 2.13794 4.78584 2.82024C4.03441 3.50254 3.56338 4.4404 3.46442 5.45129C3.36547 6.46218 3.64567 7.47378 4.25049 8.2892C4.85532 9.10462 5.74149 9.66553 6.73654 9.86276V23.9922C6.73654 24.641 6.99392 25.2632 7.45206 25.7219C7.9102 26.1807 8.53157 26.4384 9.17947 26.4384H11.6779V29.798H7.5297C6.88317 29.798 6.263 30.0547 5.80509 30.5117C5.34718 30.9687 5.08888 31.5889 5.08678 32.2363V38.1216C4.08958 38.3188 3.20137 38.8806 2.59506 39.6976C1.98875 40.5145 1.70772 41.5281 1.80668 42.5411C1.90565 43.5542 2.37752 44.494 3.13045 45.1778C3.88338 45.8616 4.86347 46.2404 5.87993 46.2404C6.8964 46.2404 7.87649 45.8616 8.62942 45.1778C9.38234 44.494 9.85422 43.5542 9.95318 42.5411C10.0521 41.5281 9.77112 40.5145 9.16481 39.6976C8.55849 38.8806 7.67029 38.3188 6.67309 38.1216V32.2363C6.67518 32.0102 6.76635 31.7941 6.92677 31.6349C7.08719 31.4758 7.30388 31.3865 7.5297 31.3865H11.6779V35.5403C11.68 36.6259 12.1121 37.6662 12.8794 38.4331C13.6467 39.1999 14.6865 39.6306 15.7706 39.6306H16.6193V35.5403C16.6193 35.3297 16.7029 35.1277 16.8516 34.9787C17.0003 34.8298 17.2021 34.7461 17.4124 34.7461C17.6228 34.7461 17.8245 34.8298 17.9733 34.9787C18.122 35.1277 18.2056 35.3297 18.2056 35.5403V39.6306H29.8016V35.5403C29.8016 35.3297 29.8851 35.1277 30.0339 34.9787C30.1826 34.8298 30.3844 34.7461 30.5947 34.7461C30.8051 34.7461 31.0068 34.8298 31.1556 34.9787C31.3043 35.1277 31.3879 35.3297 31.3879 35.5403V39.6306H32.2366C33.3206 39.6306 34.3604 39.1999 35.1277 38.4331C35.895 37.6662 36.3272 36.6259 36.3293 35.5403V31.3865H40.4775C40.7033 31.3865 40.92 31.4758 41.0804 31.6349C41.2408 31.7941 41.332 32.0102 41.3341 32.2363V38.1216C40.339 38.3188 39.4529 38.8797 38.848 39.6951C38.2432 40.5106 37.963 41.5222 38.062 42.5331C38.1609 43.5439 38.6319 44.4818 39.3834 45.1641C40.1348 45.8464 41.1129 46.2243 42.1272 46.2243C43.1416 46.2243 44.1197 45.8464 44.8711 45.1641C45.6225 44.4818 46.0936 43.5439 46.1925 42.5331C46.2915 41.5222 46.0113 40.5106 45.4065 39.6951C44.8016 38.8797 43.9155 38.3188 42.9204 38.1216ZM26.7003 33.0782L26.74 33.1815C26.8522 33.4325 26.9001 33.7076 26.8793 33.9819C26.8584 34.2562 26.7695 34.5209 26.6206 34.7521C26.4717 34.9832 26.2675 35.1735 26.0266 35.3056C25.7857 35.4377 25.5156 35.5075 25.2409 35.5086H22.7663C22.4916 35.5075 22.2215 35.4377 21.9806 35.3056C21.7396 35.1735 21.5355 34.9832 21.3866 34.7521C21.2377 34.5209 21.1487 34.2562 21.1279 33.9819C21.1071 33.7076 21.1549 33.4325 21.2672 33.1815L21.3148 33.0782C21.4763 32.6941 21.5419 32.2765 21.5059 31.8613C21.47 31.4462 21.3336 31.046 21.1086 30.6955C20.8479 30.2498 20.6933 29.75 20.6569 29.2348C20.6205 28.7196 20.7032 28.203 20.8985 27.725C21.0939 27.247 21.3967 26.8206 21.7834 26.4788C22.1701 26.137 22.6302 25.8891 23.1281 25.7543C23.626 25.6196 24.1483 25.6016 24.6542 25.7017C25.1602 25.8019 25.6363 26.0175 26.0456 26.3319C26.4548 26.6462 26.7862 27.0508 27.0139 27.5142C27.2416 27.9776 27.3596 28.4873 27.3586 29.0038C27.3561 29.5862 27.2031 30.1581 26.9145 30.6637C26.6867 31.0189 26.5482 31.4241 26.5109 31.8446C26.4736 32.2651 26.5386 32.6884 26.7003 33.0782Z" fill="#00ADEE"/>
</svg>
