<?xml version="1.0" encoding="utf-8"?>
<!-- Generator: Adobe Illustrator 26.0.1, SVG Export Plug-In . SVG Version: 6.00 Build 0)  -->
<svg version="1.1" id="Layer_1" xmlns="http://www.w3.org/2000/svg" xmlns:xlink="http://www.w3.org/1999/xlink" x="0px" y="0px"
	 viewBox="0 0 49 48" style="enable-background:new 0 0 49 48;" xml:space="preserve">
<g>
	<path d="M38,7.6c0,0.6,0,1.2,0,1.7c0,0.5,0.2,0.7,0.6,0.9c0.3,0.1,0.6,0.3,0.8,0.5c1,0.6,2,1.2,3.1,1.8c0.6,0.4,1.2,0.7,1.9,1.1
		c0.2,0.1,0.4,0.3,0.3,0.7c-0.1,0.4,0.3,0.6,0.5,0.8c0.3,0.4,0.7,0.7,1,1.1c0.9,1.6,1,3.3,0.7,5c-0.3,1.4-0.6,2.8-0.9,4.2
		c-0.3,1.2-0.8,2.3-1.4,3.3c-0.8,1.2-1.7,2.2-2.8,3c-0.5,0.4-1.2,0.7-1.8,1.1c-1,0.6-2,1.2-3.1,1.8c-0.6,0.4-1.3,0.7-1.9,1.1
		c-1.1,0.7-2.3,1.3-3.4,2c-0.7,0.4-1.4,0.8-2.1,1.2c-1,0.6-1.9,1.1-2.9,1.7c-1,0.6-2.1,1.2-3.2,1.7c-0.6,0.3-1.3,0.5-1.9,0.8
		c-0.1,0-0.1,0.1-0.2,0.1c-2.1,0.4-4.3,0.9-6.5,0.5c-0.9-0.1-1.8-0.3-2.7-0.6c-0.9-0.3-1.8-0.8-2.7-1.2c-0.8-0.4-1.5-0.8-2.2-1.2
		c-0.6-0.3-1.2-0.7-1.7-1.1c-0.3-0.2-0.6-0.4-1-0.6c-1.1-0.7-2-1.6-2.4-2.9c-0.4-1.4-0.4-2.9-0.3-4.4c0.2-1.3,0.8-2.5,1.9-3.3
		c0.8-0.5,1.6-0.9,2.3-1.4c1.1-0.7,2.2-1.3,3.3-2c0.4-0.2,0.8-0.5,1.2-0.7c0.8-0.5,1.6-0.9,2.4-1.4c0.7-0.4,1.3-0.7,2-1.1
		c1-0.6,2-1.2,3.1-1.8c0.7-0.4,1.4-0.8,2.1-1.2c0.6-0.4,1.3-0.8,1.9-1.1c0.1-0.1,0.2-0.1,0.3-0.2c0.4-0.2,0.6-0.5,0.5-0.9
		c0-1.2-0.1-2.5,0-3.7c0-1.4-0.1-1-1.1-1.7c-0.7-0.4-1.4-0.7-2-1.1c-0.2-0.1-0.3-0.4-0.3-0.6c0-0.1,0.3-0.2,0.4-0.3
		c0.6-0.2,1.1-0.5,1.7-0.7c1.1-0.4,2.2-0.9,3.3-1.3c0.5-0.2,1.1-0.5,1.6-0.7c0.1,0,0.2-0.1,0.3-0.1c0.7-0.3,1.5-0.6,2.2-0.9
		c0.5-0.2,1-0.2,1.4,0.1c0.5,0.4,1.1,0.7,1.6,1c0.2,0.1,0.5,0,0.5-0.3c0-0.2,0-0.3,0-0.5c0-0.8,0.5-1.4,1.3-1.5
		c0.6-0.1,1.1-0.2,1.7-0.2c0.6,0,1.2,0.2,1.7,0.7c0.3,0.3,0.4,0.6,0.4,1C38,6.4,38,7,38,7.6C38,7.6,38,7.6,38,7.6z M43.4,19.5
		C43.4,19.5,43.4,19.5,43.4,19.5c0,0.7,0,1.3,0,2c0,0.6-0.3,1-0.8,1.2c-0.7,0.4-1.4,0.8-2.1,1.2c-0.3,0.2-0.6,0.3-0.9,0.5
		c-0.7,0.4-1.3,0.8-1.9,1.2c-0.8,0.5-1.6,0.9-2.4,1.3c-0.3,0.2-0.6,0.2-0.9,0c-0.4-0.2-0.8-0.5-1.1-0.7c-0.3-0.2-0.6-0.4-0.9-0.5
		c-0.4-0.2-0.9-0.5-1.3-0.7c-0.9-0.5-1.9-1.1-2.8-1.7c-1.3-0.7-2.6-1.4-3.8-2.1c-0.4-0.3-0.8-0.6-1.3-0.9c-0.2-0.1-0.4-0.2-0.6-0.1
		c-0.5,0.2-0.9,0.5-1.4,0.8c-1,0.6-2,1.2-3.1,1.8c-0.7,0.4-1.4,0.7-2,1.1c-1,0.6-2.1,1.2-3.1,1.8c-0.9,0.5-1.8,1-2.7,1.5
		c-0.9,0.5-1.8,1.1-2.7,1.6c-1.1,0.7-2.2,1.3-3.4,2C3.4,31.3,3,32.1,2.9,33c-0.2,1,0.3,1.7,0.9,2.4C4.4,36,5.2,36.5,6,36.8
		c1,0.4,2.1,0.9,3.2,1c0.2,0,0.4,0.1,0.6,0.1c1.6,0.5,3.2,0.6,4.8,0.3c1.2-0.2,2.3-0.4,3.5-0.8c1.1-0.4,2.1-1,3.1-1.5
		c0.6-0.3,1.1-0.7,1.7-1c1-0.6,2-1.1,3.1-1.7c0.8-0.4,1.5-0.9,2.3-1.3c1-0.6,2.1-1.2,3.1-1.8c0.7-0.4,1.3-0.8,2-1.1
		c0.6-0.3,1.2-0.7,1.8-1c0.9-0.5,1.9-1.1,2.8-1.7c0.7-0.4,1.4-0.8,2.2-1.2c1.3-0.7,2.5-1.5,3.8-2.2c0.9-0.5,1.6-1.1,2-2
		c0.4-0.7,0.4-1.4,0.1-2.2c-0.4-0.9-1-1.5-1.9-2c-0.2-0.1-0.3,0-0.4,0.1c-0.1,0.1-0.1,0.3-0.1,0.4C43.4,18,43.4,18.7,43.4,19.5z
		 M16.6,43.2c1-0.1,1.9-0.2,2.9-0.4c1-0.2,1.9-0.4,2.8-0.7c0.8-0.3,1.5-0.7,2.2-1.1c0.6-0.3,1.2-0.7,1.8-1c1-0.6,2.1-1.1,3.1-1.7
		c1.3-0.8,2.6-1.6,4-2.4c1-0.6,2-1.1,3-1.7c0.4-0.2,0.7-0.4,1.1-0.6c0.6-0.4,1.2-0.7,1.8-1.1c0.6-0.4,1.3-0.8,1.9-1.2
		c1.1-0.8,2.1-1.7,2.8-2.9c0.5-0.9,0.9-1.9,1.3-2.9c0.1-0.3-0.1-0.5-0.5-0.4c-0.3,0.1-0.6,0.3-0.8,0.5c-1,0.5-2,1.1-2.9,1.6
		c-1.1,0.6-2.2,1.2-3.2,1.9c-0.8,0.4-1.5,0.9-2.2,1.3c-1.1,0.6-2.1,1.3-3.2,1.9c-1.1,0.6-2.1,1.2-3.2,1.8c-0.6,0.4-1.3,0.8-1.9,1.1
		c-1.1,0.6-2.1,1.2-3.2,1.8c-0.8,0.5-1.7,1-2.5,1.5c-0.3,0.2-0.7,0.4-0.6,0.7c0.1,0.7-0.1,1.2-0.6,1.7c-0.5,0.6-1.4,0.5-1.7-0.2
		c-0.3-0.5-0.4-0.6-1-0.5c-0.2,0-0.3,0.1-0.5,0.1c-0.5,0.1-1,0.3-1.6,0.4c-1.6,0.2-3.2,0.4-4.8,0.1c-0.4-0.1-0.8-0.1-1.2-0.1
		c-0.1,0-0.2,0.1-0.4,0.2c0.1,0.1,0.2,0.2,0.3,0.2c0.5,0.3,1,0.6,1.6,0.7c0.8,0.3,1.5,0.7,2.4,0.7C14.6,42.8,15.6,43,16.6,43.2z
		 M32.9,10.7C32.9,10.7,32.9,10.7,32.9,10.7c0-0.8,0-1.7,0-2.5c0-0.4-0.1-0.6-0.4-0.8c-0.6-0.3-1.2-0.7-1.8-1
		c-0.4-0.2-0.8-0.3-1.2-0.1c-1,0.4-2,0.7-3.1,1.1c-1.7,0.6-3.3,1.3-5,1.9c-0.2,0.1-0.4,0.3-0.4,0.4c-0.1,0.3,0.2,0.4,0.4,0.5
		c0.4,0.2,0.9,0.4,1.3,0.6c1,0.6,1.9,1.2,2.9,1.7c0.9,0.6,1.9,1.1,2.9,1.6c1,0.6,2.1,1.2,3.1,1.8c0.8,0.5,1.6,0.9,2.4,1.4
		c0.3,0.1,0.6,0.2,0.9,0.1c0.5-0.1,1-0.4,1.5-0.6c0.8-0.3,1.5-0.6,2.3-0.9c0.9-0.3,1.7-0.7,2.6-1c0.3-0.1,0.6-0.2,0.9-0.4
		c0.4-0.2,0.8-0.3,1.1-0.5c0.2-0.1,0.2-0.3,0-0.4c-0.2-0.2-0.4-0.3-0.7-0.5c-1-0.6-2-1.1-3-1.7c-0.3-0.2-0.7-0.4-1-0.5
		c-0.5-0.3-0.6-0.2-0.6,0.3c0,0.6,0,1.2,0,1.9c0,0.6-0.3,1.1-0.9,1.3c-1.1,0.5-2.1,0.6-3.3,0.1c-0.7-0.3-1-0.8-1-1.5
		C32.9,12.3,32.9,11.5,32.9,10.7z M12.8,40.4c1.2-0.1,2.1-0.1,3-0.2c0.5-0.1,1-0.3,1.5-0.5c1.2-0.3,2.3-0.8,3.4-1.4
		c1.1-0.6,2.2-1.3,3.3-1.9c1.3-0.7,2.6-1.4,3.8-2.2c0.8-0.5,1.7-1,2.5-1.5c1.1-0.6,2.1-1.2,3.2-1.9c1.4-0.8,2.8-1.6,4.3-2.5
		c0.5-0.3,1.1-0.6,1.6-0.9c1-0.6,2.1-1.2,3.1-1.8c0.8-0.5,1.6-1,2.4-1.5c0.5-0.4,0.9-0.9,1-1.5c0-0.1,0-0.3-0.1-0.3
		c-0.1,0-0.3,0-0.4,0c-0.8,0.5-1.6,1.1-2.4,1.6c-1.2,0.7-2.4,1.4-3.6,2.1c-1.5,0.9-3,1.7-4.5,2.6c-1.8,1-3.6,2.1-5.4,3.1
		c-1,0.6-2,1.1-3,1.7c-1,0.6-2.1,1.2-3.1,1.8c-0.8,0.4-1.5,0.9-2.3,1.3c-0.7,0.4-1.4,0.8-2.1,1.1c-0.8,0.4-1.6,0.7-2.5,0.8
		c-0.1,0-0.3,0.1-0.4,0.1c-0.3,0.1-0.7,0.2-1,0.2c-1.3,0-2.6,0.1-3.8,0c-0.6,0-1.2,0-1.8-0.2c-0.9-0.3-1.9-0.4-2.8-0.8
		c-1.1-0.5-2.2-1-3.2-1.7c-0.1-0.1-0.3-0.2-0.4-0.3c-0.1,0-0.2,0-0.2,0c0,0.1-0.1,0.2-0.1,0.2c0.2,0.4,0.3,0.7,0.5,1.1
		c0.5,0.9,1.4,1.3,2.3,1.7c0.5,0.2,1,0.4,1.5,0.6C8.1,39.7,9,40,9.8,40.2C10.9,40.3,12,40.3,12.8,40.4z M34.5,24.6
		C34.5,24.6,34.5,24.6,34.5,24.6c0-0.3,0-0.6,0-0.8c0-0.2-0.1-0.4-0.3-0.5c-0.8-0.5-1.6-1-2.5-1.5c-0.7-0.4-1.4-0.7-2.1-1.1
		c-1.1-0.6-2.3-1.3-3.4-2c-0.6-0.3-1.1-0.7-1.7-1c-0.1-0.1-0.3-0.2-0.4-0.1c-0.1,0.1-0.2,0.3-0.2,0.4c0,0.5-0.1,1,0,1.5
		c0,0.3,0.2,0.6,0.4,0.7c0.9,0.5,1.8,1,2.7,1.5c0.7,0.4,1.4,0.8,2.2,1.3c0.7,0.4,1.3,0.8,2,1.1c0.4,0.3,0.9,0.5,1.3,0.8
		c0.5,0.3,1.1,0.6,1.6,0.9c0.3,0.1,0.4,0,0.5-0.3C34.5,25.2,34.5,24.9,34.5,24.6z M23.2,18.7c-0.1-0.4-0.3-0.6-0.6-0.4
		c-0.5,0.3-1,0.6-1.5,0.9c-0.6,0.4-1.3,0.8-1.9,1.1c-1.2,0.7-2.5,1.4-3.7,2.1c-0.7,0.4-1.4,0.8-2.1,1.2c-1.3,0.7-2.5,1.4-3.8,2.2
		c-1.3,0.7-2.6,1.5-3.9,2.3c-0.8,0.5-1.6,1-2.2,1.8c-0.1,0.1-0.2,0.3-0.2,0.5c0,0.1,0,0.2,0,0.3c0.1,0,0.3,0,0.4-0.1
		c0.3-0.2,0.5-0.4,0.8-0.6c0.7-0.4,1.4-0.8,2.1-1.2c0.7-0.4,1.4-0.8,2.1-1.3c0.4-0.2,0.8-0.4,1.1-0.6c0.6-0.4,1.3-0.8,1.9-1.1
		c1-0.6,2-1.1,3-1.7c0.7-0.4,1.5-0.9,2.2-1.3c0.7-0.4,1.4-0.8,2.1-1.2c0.7-0.4,1.4-0.8,2.1-1.2c0.6-0.4,1.2-0.7,1.8-1.1
		C22.9,19.2,23,18.9,23.2,18.7z M23.9,14.6C23.9,14.6,23.9,14.6,23.9,14.6c0,0.5,0,0.9,0,1.4c0,0.5,0.2,0.8,0.7,1
		c0.1,0,0.2,0.1,0.3,0.1c1.1,0.6,2.1,1.2,3.2,1.8c0.5,0.3,0.8,0.2,0.8-0.4c0-0.9,0-1.8,0-2.7c0-0.3-0.2-0.6-0.3-0.8
		c-0.2-0.2-0.5-0.3-0.7-0.4c-1.1-0.6-2.2-1.2-3.3-1.9c-0.4-0.2-0.6-0.1-0.7,0.4C23.9,13.6,23.9,14.1,23.9,14.6z M34.5,20.3
		C34.5,20.3,34.4,20.3,34.5,20.3c0-0.4-0.1-0.8,0-1.3c0-0.5-0.2-0.8-0.6-1c-0.4-0.2-0.9-0.5-1.3-0.7c-0.7-0.4-1.5-0.9-2.2-1.3
		c-0.5-0.3-0.7-0.1-0.7,0.4c0,0.8,0,1.7,0,2.5c-0.1,0.7,0.2,1,0.8,1.3c0.5,0.2,0.9,0.5,1.4,0.7c0.7,0.4,1.4,0.8,2.1,1.2
		c0.4,0.2,0.6,0.1,0.6-0.4C34.5,21.3,34.5,20.8,34.5,20.3z M37.7,20.7C37.7,20.7,37.7,20.7,37.7,20.7c0,1,0,2.1,0,3.1
		c0,0.2,0,0.3,0.1,0.5c0.1,0.2,0.2,0.3,0.4,0.1c0.4-0.3,0.9-0.5,1.3-0.7c0.5-0.3,0.9-0.7,0.8-1.4c-0.1-0.5-0.1-1-0.1-1.5
		c0-1.3,0-2.6,0-3.9c0-0.5-0.3-0.7-0.8-0.5c-0.4,0.1-0.8,0.3-1.2,0.5c-0.5,0.2-0.5,0.3-0.5,0.8C37.7,18.7,37.7,19.7,37.7,20.7z
		 M37.3,11.4C37.3,11.4,37.3,11.4,37.3,11.4c0.1-0.6,0.1-1.2,0.1-1.8c0-0.4-0.2-0.6-0.5-0.5c-0.9,0.2-1.7,0.2-2.6,0
		c-0.4-0.1-0.6,0.1-0.6,0.5c0,1.2,0,2.4,0,3.6c0,0.6,0.3,0.9,0.9,0.9c0.6,0,1.2,0,1.8,0c0.6-0.1,0.9-0.4,0.9-1
		C37.3,12.5,37.3,12,37.3,11.4z M35.2,21.9C35.2,21.9,35.2,21.9,35.2,21.9c0,1,0,2.1,0,3.1c0,0.2,0,0.4,0.1,0.6
		c0,0.2,0.2,0.3,0.4,0.2c0.2-0.1,0.4-0.2,0.6-0.3c0.4-0.2,0.7-0.6,0.6-1.1c0-1.9,0-3.9,0-5.8c0-0.2,0-0.5-0.1-0.7
		c-0.1-0.1-0.2-0.3-0.4-0.3c-0.7-0.1-1.3,0.5-1.3,1.2C35.2,19.8,35.2,20.9,35.2,21.9z M40.9,19.2C40.9,19.2,40.9,19.2,40.9,19.2
		c0,0.2,0,0.5,0,0.7c0,0.8,0,1.5,0,2.3c0,0.4,0.3,0.6,0.6,0.4c0.4-0.2,0.7-0.5,1-0.8c0.1-0.1,0.2-0.4,0.2-0.6c0-1.5,0-3.1,0-4.6
		c0-0.4,0-0.7,0-1.1c0-0.4-0.2-0.4-0.5-0.3c-0.2,0.1-0.4,0.2-0.6,0.2c-0.5,0.2-0.7,0.3-0.7,0.9C40.9,17.4,40.9,18.3,40.9,19.2z
		 M35.4,8.7c0.4-0.1,0.8-0.2,1.2-0.3c0.5-0.1,0.6-0.4,0.6-0.9c0-0.5-0.2-0.6-0.7-0.5c-0.4,0.1-0.8,0.2-1.1,0.2
		c-0.4,0-0.7-0.1-1.1-0.2c-0.3-0.1-0.6-0.2-0.7,0.2c-0.2,0.3,0,1,0.4,1.1C34.5,8.5,35,8.6,35.4,8.7z M35.3,4.8
		c-0.3,0.1-0.7,0.1-1.1,0.2c-0.3,0.1-0.6,0.3-0.5,0.7c0,0.3,0.3,0.5,0.7,0.6c0.7,0.2,1.5,0.1,2.2,0c0.2,0,0.4-0.2,0.4-0.3
		c0.3-0.5,0-1-0.6-1.1C36.1,4.9,35.8,4.9,35.3,4.8z M43.4,15.3c0.1,0.2,0.2,0.5,0.3,0.6c0.5,0.4,1.1,0.7,1.7,1.1
		c0.1,0.1,0.2,0.1,0.4,0.1c0-0.2,0.1-0.4,0-0.5c-0.5-0.6-1-1.2-1.7-1.6c-0.1-0.1-0.4-0.2-0.4-0.1C43.5,14.9,43.5,15.1,43.4,15.3z
		 M19.6,40.7c0.5,0,0.5-0.3,0.6-0.5c0-0.2,0-0.4-0.1-0.6c0-0.1-0.2-0.1-0.3-0.1c-0.4,0-0.7,0.5-0.6,0.9
		C19.4,40.5,19.5,40.6,19.6,40.7z"/>
</g>
</svg>
