<?xml version="1.0" encoding="utf-8"?>
<!-- Generator: Adobe Illustrator 26.0.1, SVG Export Plug-In . SVG Version: 6.00 Build 0)  -->
<svg version="1.1" id="Layer_1" xmlns="http://www.w3.org/2000/svg" xmlns:xlink="http://www.w3.org/1999/xlink" x="0px" y="0px"
	 viewBox="0 0 49 48" style="enable-background:new 0 0 49 48;" xml:space="preserve">
<style type="text/css">
	.st0{fill:#00ADEE;}
</style>
<g>
	<path class="st0" d="M37.3,10.6l-1.1-0.4c-1-1.2-2.5-1.8-4.1-1.6L28.8,9l-4.2-4.1c-0.2-0.2-0.4-0.2-0.7-0.2l-2.2,0.7
		c-0.4,0.1-0.5,0.5-0.4,0.8c0,0,0,0.1,0,0.1L23,9.8L15,10.8l-0.8-0.9c-0.7-0.8-1.7-1.1-2.7-0.9l-0.5,0.1c-0.4,0.1-0.6,0.5-0.5,0.8
		c0,0,0,0.1,0,0.1l1.7,3.7c0.4,1,1.4,1.6,2.4,1.6c0.1,0,0.1,0,0.2,0l8.6-0.5l-0.6,4.4c-0.1,0.4,0.2,0.7,0.6,0.8c0,0,0.1,0,0.1,0
		l2.3,0h0c0.2,0,0.5-0.1,0.6-0.4l2.8-5.2l7.5-0.4c1-0.1,1.8-0.9,1.7-1.9C38.5,11.5,38,10.8,37.3,10.6L37.3,10.6z M22.9,6.5l1.1-0.3
		l3.2,3.1l-2.8,0.4L22.9,6.5z M25.4,18.8l-1.1,0l0.8-5.7l3.6-0.4L25.4,18.8z M36.7,12.8L30,13.2l0.5-1c0.2-0.3,0.1-0.7-0.3-0.9
		c-0.1-0.1-0.3-0.1-0.4-0.1l-5.4,0.6c-0.3,0-0.6,0.3-0.6,0.6l-0.2,1.2l-8.8,0.5c-0.6,0-1.1-0.3-1.3-0.8l-1.4-2.9
		c0.4,0,0.8,0.2,1,0.5l1,1.2c0.1,0.2,0.4,0.3,0.6,0.2l17.5-2.3c1.1-0.1,2.2,0.3,2.9,1.2c0.1,0.1,0.2,0.2,0.3,0.2l1.3,0.5
		c0.2,0.1,0.3,0.2,0.3,0.5C37.2,12.6,37,12.8,36.7,12.8L36.7,12.8z M43.1,32.7c-2.3,0-4.1,1.8-4.1,4.1c0,2.4,1.9,5.1,3.7,6.3
		c0.2,0.2,0.5,0.2,0.8,0c1.8-1.3,3.7-4,3.7-6.3C47.2,34.6,45.4,32.7,43.1,32.7L43.1,32.7z M43.1,41.8c-1.4-1.1-2.8-3.2-2.8-5
		c0-1.5,1.2-2.8,2.8-2.8s2.8,1.2,2.8,2.8C45.9,38.6,44.5,40.7,43.1,41.8L43.1,41.8z M5.9,32.7c-2.3,0-4.1,1.8-4.1,4.1
		c0,2.4,1.9,5.1,3.7,6.3c0.2,0.2,0.5,0.2,0.8,0c1.8-1.3,3.7-4,3.7-6.3C10,34.6,8.2,32.7,5.9,32.7z M5.9,41.8c-1.4-1.1-2.8-3.2-2.8-5
		c0-1.5,1.2-2.8,2.8-2.8s2.8,1.2,2.8,2.8C8.7,38.6,7.3,40.7,5.9,41.8L5.9,41.8z M11,28.4c-0.8,0.5-1.5,1-2.3,1.5
		c-0.3,0.2-0.4,0.6-0.1,0.9c0.2,0.3,0.6,0.4,0.9,0.1c0,0,0,0,0,0c0.7-0.5,1.4-1,2.2-1.5c0.3-0.2,0.4-0.6,0.3-0.9S11.3,28.2,11,28.4
		C11,28.4,11,28.4,11,28.4L11,28.4z M15.9,26.1c-0.9,0.3-1.7,0.6-2.6,1C13,27.3,12.9,27.7,13,28c0.1,0.3,0.5,0.5,0.9,0.3
		c0,0,0,0,0,0c0.8-0.4,1.6-0.7,2.4-1c0.4-0.1,0.5-0.5,0.4-0.8C16.7,26.2,16.3,26,15.9,26.1C16,26.1,15.9,26.1,15.9,26.1L15.9,26.1z
		 M26.8,24.8c-0.9-0.1-1.8-0.1-2.7-0.1c-0.4,0-0.7,0.3-0.7,0.7c0,0.4,0.3,0.7,0.7,0.7c0,0,0,0,0,0c0.9,0,1.8,0,2.6,0.1
		c0,0,0,0,0.1,0c0.4,0,0.7-0.3,0.7-0.7C27.4,25.1,27.1,24.9,26.8,24.8L26.8,24.8z M32.2,25.8c-0.9-0.3-1.8-0.5-2.7-0.6
		c-0.4-0.1-0.7,0.2-0.8,0.5c-0.1,0.4,0.2,0.7,0.5,0.8c0.9,0.2,1.7,0.4,2.5,0.6c0.1,0,0.1,0,0.2,0c0.4,0,0.7-0.3,0.7-0.7
		C32.7,26.2,32.5,25.9,32.2,25.8L32.2,25.8z M21.3,24.9c-0.9,0.1-1.8,0.3-2.7,0.5c-0.4,0.1-0.6,0.4-0.5,0.8c0.1,0.4,0.4,0.6,0.8,0.5
		c0.8-0.2,1.7-0.3,2.6-0.4c0.4,0,0.6-0.4,0.6-0.7C22,25.2,21.7,24.9,21.3,24.9C21.3,24.9,21.3,24.9,21.3,24.9z M37.3,28
		c-0.8-0.4-1.6-0.8-2.5-1.2c-0.3-0.1-0.7,0-0.9,0.4c-0.1,0.3,0,0.7,0.4,0.9c0.8,0.3,1.6,0.7,2.4,1.1c0.3,0.2,0.7,0.1,0.9-0.2
		C37.7,28.6,37.6,28.2,37.3,28C37.3,28,37.3,28,37.3,28L37.3,28z M39.9,31.1c0.4,0,0.7-0.3,0.7-0.7c0-0.2-0.1-0.4-0.3-0.5
		c-0.2-0.2-0.5-0.4-0.7-0.5c-0.3-0.2-0.7-0.1-0.9,0.2c-0.2,0.3-0.1,0.7,0.2,0.9c0.2,0.2,0.5,0.3,0.7,0.5
		C39.6,31.1,39.8,31.1,39.9,31.1L39.9,31.1z"/>
	<path class="st0" d="M43.1,35c-1,0-1.8,0.8-1.8,1.8c0,1,0.8,1.8,1.8,1.8s1.8-0.8,1.8-1.8C44.9,35.8,44.1,35,43.1,35z M43.1,37.3
		c-0.3,0-0.5-0.2-0.5-0.5c0-0.3,0.2-0.5,0.5-0.5s0.5,0.2,0.5,0.5C43.6,37.1,43.4,37.3,43.1,37.3z M5.9,35c-1,0-1.8,0.8-1.8,1.8
		c0,1,0.8,1.8,1.8,1.8s1.8-0.8,1.8-1.8C7.7,35.8,6.9,35,5.9,35z M5.9,37.3c-0.3,0-0.5-0.2-0.5-0.5c0-0.3,0.2-0.5,0.5-0.5
		c0.3,0,0.5,0.2,0.5,0.5C6.4,37.1,6.1,37.3,5.9,37.3z"/>
</g>
</svg>
