<?xml version="1.0" encoding="utf-8"?>
<!-- Generator: Adobe Illustrator 26.0.1, SVG Export Plug-In . SVG Version: 6.00 Build 0)  -->
<svg version="1.1" id="Layer_1" xmlns="http://www.w3.org/2000/svg" xmlns:xlink="http://www.w3.org/1999/xlink" x="0px" y="0px"
	 viewBox="0 0 49 48" style="enable-background:new 0 0 49 48;" xml:space="preserve">
<style type="text/css">
	.st0{fill-rule:evenodd;clip-rule:evenodd;}
</style>
<g>
	<path class="st0" d="M6.4,25.6c-1.4,0-2.6,0.7-3.3,1.9c-0.7,1.2-0.7,2.6,0,3.8l3.3,5.7l3.3-5.7c0.7-1.2,0.7-2.6,0-3.8
		C9,26.3,7.8,25.6,6.4,25.6L6.4,25.6z M6.4,38.5c-0.2,0-0.4-0.1-0.5-0.3l-3.7-6.4c-0.9-1.5-0.9-3.3,0-4.8c0.9-1.5,2.4-2.4,4.2-2.4
		c1.7,0,3.3,0.9,4.2,2.4c0.9,1.5,0.9,3.3,0,4.8l-3.7,6.4C6.8,38.4,6.6,38.5,6.4,38.5L6.4,38.5z"/>
	<path class="st0" d="M6.4,27.7c-0.8,0-1.5,0.7-1.5,1.5c0,0.8,0.7,1.5,1.5,1.5c0.8,0,1.5-0.7,1.5-1.5C7.9,28.4,7.3,27.7,6.4,27.7
		L6.4,27.7z M6.4,31.7c-1.4,0-2.5-1.1-2.5-2.5c0-1.4,1.1-2.5,2.5-2.5c1.4,0,2.5,1.1,2.5,2.5C9,30.6,7.8,31.7,6.4,31.7z M42.6,25.6
		c-1.4,0-2.6,0.7-3.3,1.9c-0.7,1.2-0.7,2.6,0,3.8l3.3,5.7l3.3-5.7c0.7-1.2,0.7-2.6,0-3.8C45.1,26.3,43.9,25.6,42.6,25.6L42.6,25.6z
		 M42.6,38.5c-0.2,0-0.4-0.1-0.5-0.3l-3.7-6.4c-0.9-1.5-0.9-3.3,0-4.8c0.9-1.5,2.4-2.4,4.2-2.4c1.7,0,3.3,0.9,4.2,2.4
		c0.9,1.5,0.9,3.3,0,4.8L43,38.2C42.9,38.4,42.7,38.5,42.6,38.5z"/>
	<path class="st0" d="M42.6,27.7c-0.8,0-1.5,0.7-1.5,1.5c0,0.8,0.7,1.5,1.5,1.5c0.8,0,1.5-0.7,1.5-1.5C44,28.4,43.4,27.7,42.6,27.7
		L42.6,27.7z M42.6,31.7c-1.4,0-2.5-1.1-2.5-2.5c0-1.4,1.1-2.5,2.5-2.5c1.4,0,2.5,1.1,2.5,2.5C45.1,30.6,44,31.7,42.6,31.7
		L42.6,31.7z M10.7,38.5H2.1c-0.3,0-0.5-0.2-0.5-0.5c0-0.3,0.2-0.5,0.5-0.5h8.6c0.3,0,0.5,0.2,0.5,0.5C11.3,38.2,11,38.5,10.7,38.5z
		 M46.9,38.5h-8.6c-0.3,0-0.5-0.2-0.5-0.5s0.2-0.5,0.5-0.5h8.6c0.3,0,0.5,0.2,0.5,0.5C47.4,38.2,47.1,38.5,46.9,38.5z M14.4,29.7h-1
		c-0.3,0-0.5-0.2-0.5-0.5c0-0.3,0.2-0.5,0.5-0.5h1c0.3,0,0.5,0.2,0.5,0.5C14.9,29.5,14.7,29.7,14.4,29.7z M17.9,29.7h-1
		c-0.3,0-0.5-0.2-0.5-0.5c0,0,0,0,0,0c0-0.3,0.2-0.5,0.5-0.5c0,0,0,0,0,0h1c0.3,0,0.5,0.2,0.5,0.5c0,0,0,0,0,0
		C18.4,29.5,18.2,29.7,17.9,29.7L17.9,29.7z M21.5,29.7h-1c-0.3,0-0.5-0.2-0.5-0.5c0-0.3,0.2-0.5,0.5-0.5h1c0.3,0,0.5,0.2,0.5,0.5
		C22,29.5,21.7,29.7,21.5,29.7L21.5,29.7z M25,29.7h-1c-0.3,0-0.5-0.3-0.5-0.5c0-0.3,0.2-0.5,0.5-0.5h1c0.3,0,0.5,0.2,0.5,0.5
		C25.5,29.5,25.3,29.7,25,29.7z M28.5,29.7h-1c-0.3,0-0.5-0.3-0.5-0.5c0-0.3,0.2-0.5,0.5-0.5h1c0.3,0,0.5,0.3,0.5,0.5
		C29,29.5,28.8,29.7,28.5,29.7z M32.1,29.7h-1c-0.3,0-0.5-0.2-0.5-0.5c0-0.3,0.2-0.5,0.5-0.5h1c0.3,0,0.5,0.2,0.5,0.5
		C32.6,29.5,32.4,29.7,32.1,29.7L32.1,29.7z M35.6,29.7h-1c-0.3,0-0.5-0.2-0.5-0.5c0,0,0,0,0,0c0-0.3,0.2-0.5,0.5-0.5c0,0,0,0,0,0h1
		c0.3,0,0.5,0.3,0.5,0.5C36.1,29.5,35.9,29.7,35.6,29.7L35.6,29.7z M16.2,22.3c-0.8,0-1.6-0.3-2.2-0.9l-4.7-4.3
		c-0.2-0.2-0.3-0.5-0.3-0.7c0-0.3,0.2-0.5,0.5-0.6l2.2-0.9c0.3-0.1,0.7-0.1,1,0l4.1,2.2c0,0,0.1,0,0.1,0l7.8-3.7l6.5-3
		c2.6-1.2,5.5-1.2,8.1,0c0.4,0.2,0.7,0.6,0.8,1.1c0.1,0.5-0.1,1-0.5,1.3c-2.6,2.2-5.9,4.2-9.8,5.8c-0.1,0-0.2,0.1-0.3,0.1l-0.1,0
		c-0.3,0.1-0.6,0-0.7-0.3c-0.1-0.3,0-0.5,0.3-0.7l0.1,0c0.1,0,0.2-0.1,0.3-0.1c3.7-1.6,6.9-3.4,9.5-5.6c0.2-0.1,0.1-0.3,0.1-0.4
		c0-0.1-0.1-0.2-0.2-0.3c-2.3-1.1-4.9-1.1-7.2,0l-14.3,6.7c-0.3,0.2-0.7,0.1-1,0l-4.1-2.2c0,0-0.1,0-0.1,0l-1.9,0.8l4.5,4.1
		c0.5,0.5,1.2,0.7,1.9,0.6c1.5-0.2,4.6-0.8,8.2-1.9c0.3-0.1,0.6,0.1,0.7,0.3c0.1,0.3-0.1,0.6-0.3,0.7l0,0c-3.6,1.1-6.8,1.7-8.3,1.9
		C16.5,22.3,16.3,22.3,16.2,22.3L16.2,22.3z"/>
	<path class="st0" d="M30.5,16.2L30.5,16.2L30.5,16.2z M29.6,16.5l-2.9,1.2c-0.1,0.1-0.2,0.1-0.3,0.3l-3.2,6.1l2.1-0.8
		c0.4-0.2,0.8-0.5,1-0.9l0,0L29.6,16.5z M22.4,24.5L22.4,24.5L22.4,24.5z M22.8,24.9L22.8,24.9C22.8,24.9,22.8,24.9,22.8,24.9z
		 M22.5,25.5c-0.2,0-0.4-0.1-0.5-0.2c-0.2-0.2-0.3-0.6-0.1-0.8l3.6-6.9c0.2-0.3,0.5-0.6,0.8-0.7l3.8-1.6c0.3-0.1,0.6,0,0.8,0.2
		c0.2,0.2,0.2,0.6,0.1,0.9L27.1,23c-0.3,0.6-0.9,1.1-1.5,1.3l-2.8,1.2C22.7,25.5,22.6,25.5,22.5,25.5L22.5,25.5z M20.6,12.6
		L20.6,12.6C20.6,12.6,20.6,12.6,20.6,12.6z M24.9,14.5c-0.1,0-0.1,0-0.2,0L20.3,13c-0.3-0.1-0.5-0.4-0.5-0.7c0-0.3,0.2-0.6,0.5-0.7
		l2.8-1.2c0.6-0.3,1.3-0.3,2-0.1l4.2,1.1c0.3,0.1,0.4,0.4,0.4,0.6c-0.1,0.3-0.4,0.4-0.6,0.4l0,0l-4.2-1.1c-0.4-0.1-0.9-0.1-1.3,0.1
		l-2.1,0.9l3.7,1.2c0.3,0.1,0.4,0.4,0.3,0.7C25.4,14.3,25.2,14.5,24.9,14.5L24.9,14.5z M34.7,12.7c-0.3,0-0.5-0.2-0.5-0.5
		c0-0.2,0.1-0.4,0.3-0.5l3.7-1.5c0.3-0.1,0.6,0,0.7,0.3c0,0,0,0,0,0c0.1,0.3,0,0.6-0.3,0.7c0,0,0,0,0,0l-3.7,1.6
		C34.8,12.7,34.8,12.7,34.7,12.7L34.7,12.7z"/>
</g>
</svg>
