<?xml version="1.0" encoding="utf-8"?>
<!-- Generator: Adobe Illustrator 26.0.1, SVG Export Plug-In . SVG Version: 6.00 Build 0)  -->
<svg version="1.1" id="Layer_1" xmlns="http://www.w3.org/2000/svg" xmlns:xlink="http://www.w3.org/1999/xlink" x="0px" y="0px"
	 viewBox="0 0 49 48" style="enable-background:new 0 0 49 48;" xml:space="preserve">
<g>
	<path d="M46,41.3h-0.7v-2.4c1.4-1.3,1.4-3,1.4-3c0-0.2-0.1-0.4-0.3-0.6l-1.1-0.9v-4.2c0-0.4-0.3-0.7-0.7-0.7h-2.3l-1.5-5.7l1.7-4.3
		c0.1-0.4,0-0.8-0.4-0.9c0,0,0,0,0,0L15.4,7.9l-0.9-4.5c0-0.2-0.2-0.4-0.4-0.5l-2.6-1c-0.3-0.1-0.6,0-0.8,0.2
		C10.6,2.2,8,4.9,6.5,8.8C4,15,5.5,20.5,5.8,21.3v16.5H4.4c-0.4,0-0.7,0.3-0.7,0.7v2.8H3c-0.4,0-0.7,0.3-0.7,0.7v3.5
		c0,0.4,0.3,0.7,0.7,0.7h43c0.4,0,0.7-0.3,0.7-0.7V42C46.7,41.6,46.4,41.3,46,41.3L46,41.3z M39.6,35.9c0.2,0.9,1,2.1,2.6,1.6
		c0.6-0.2,1-0.5,1.3-1c0.3-0.4,0.3-1,0.2-1.5l1.5,1.2c-0.1,0.7-0.5,1.4-1.1,1.9c-0.4,0.4-1,0.7-1.7,0.8c-2.2,0.5-3.3-0.6-3.7-1.1
		L39.6,35.9L39.6,35.9z M9.1,22.6c0.4,0.1,0.7-0.1,0.8-0.4l3.4-8.3l7.6,3l-0.6,3.4l-6.1,20.9h-5v-2.8c0-0.4-0.3-0.7-0.7-0.7H7.2
		V22.1L9.1,22.6L9.1,22.6z M21.6,21.2h1.3L17,41.3h-1.3L21.6,21.2z M21.9,29.5l1.9-6.5l1.4,4.7L21.9,29.5L21.9,29.5z M25.6,29.1
		l1.2,4l-4.4-2.2L25.6,29.1z M21.9,19.8l0.5-2.9l1.6-1.1l1.4,0.6l0.5,3.5H21.9L21.9,19.8z M21.2,31.9l5.3,2.6l-7.7,5.7L21.2,31.9z
		 M27.4,35.6l1.7,5.8h-9.5L27.4,35.6z M24.7,21.2h1.3l5.8,20.1h-1.3L24.7,21.2L24.7,21.2z M27.3,20.4l-0.1-1l9,3.6l1.8,6.5H37
		c-1.5,0-2.8,1.2-2.8,2.8v5.4L33,40.1L27.3,20.4L27.3,20.4z M33.9,41.3l1.7-3.3v-5.7c0-0.8,0.6-1.4,1.4-1.4h1.3l0.8,2.9l-1.8,3.8
		c-0.1,0.2-0.1,0.4,0,0.6c0.4,0.9,1.8,2.3,4,2.3c0.4,0,0.9-0.1,1.4-0.2c0.4-0.1,0.8-0.2,1.1-0.4v1.5L33.9,41.3L33.9,41.3z
		 M43.9,30.9v2.5l-0.8-0.6l-0.5-1.9L43.9,30.9L43.9,30.9z M42.4,35.3c0.1,0.2,0,0.4-0.1,0.6c-0.1,0.2-0.3,0.3-0.5,0.4
		c-0.2,0.1-0.3,0-0.4,0c-0.2-0.1-0.3-0.3-0.4-0.5l-3.3-12l1.7,0.7L42.4,35.3z M40.9,19.7l-1.3,3.2l-2-0.8l1.3-3.2L40.9,19.7
		L40.9,19.7z M15.2,9.3l22.4,9l-1.3,3.2l-9.4-3.8l-0.3-2c0-0.2-0.2-0.4-0.4-0.5l-2.1-0.9c-0.2-0.1-0.5-0.1-0.7,0.1l-1.8,1.3
		l-7.8-3.1L15.2,9.3z M7.7,9.3c1.2-2.9,3-5.2,3.7-6l1.8,0.7l0.9,4.3L8.8,21.1L7,20.7C6.7,19.3,5.6,14.5,7.7,9.3L7.7,9.3z M5.1,39.2
		h2.8v2.1H5.1V39.2z M45.3,44.8H3.7v-2.1h41.6V44.8z"/>
	<circle cx="11.3" cy="7.4" r="0.7"/>
	<circle cx="9.9" cy="10.1" r="0.7"/>
</g>
</svg>
