<?xml version="1.0" encoding="utf-8"?>
<!-- Generator: Adobe Illustrator 26.0.1, SVG Export Plug-In . SVG Version: 6.00 Build 0)  -->
<svg version="1.1" id="Layer_1" xmlns="http://www.w3.org/2000/svg" xmlns:xlink="http://www.w3.org/1999/xlink" x="0px" y="0px"
	 viewBox="0 0 49 48" style="enable-background:new 0 0 49 48;" xml:space="preserve">
<style type="text/css">
	.st0{fill-rule:evenodd;clip-rule:evenodd;}
</style>
<g>
	<path class="st0" d="M30.1,43H28c-0.2,0.9-1,1.5-1.9,1.5h-6.4c-0.9,0-1.7-0.6-1.9-1.5h-2.2c-0.4,2.2-2.6,3.6-4.8,3.2
		C9.2,45.9,8,44.6,7.6,43H5.7c-0.1,0-0.3-0.1-0.4-0.1l-3.5-2.6c-0.2-0.1-0.3-0.3-0.3-0.5V22c0-0.3,0.3-0.6,0.6-0.6c0,0,0,0,0,0h4
		c-0.9-1.9-1.7-3.7-1.7-4.9c0-3.2,2.6-5.8,5.8-5.8c0.4,0,0.9,0,1.3,0.1c3.8-6.4,11-10,18.4-9c0,0,0,0,0.1,0
		c10.2,1.3,17.5,10.7,16.1,20.9c-0.3,2.5-1.1,4.9-2.4,7.1c0.3,0.8,0.6,1.6,0.8,2.4l0.5,1.6c0,0,0,0.1,0,0.1l1.6,5.6
		c0.1,0.2,0,0.4,0,0.6c0.5,0,0.8,0.5,0.8,0.9v1c0,0.5-0.3,0.9-0.8,0.9v0.4c0,0.3-0.3,0.6-0.6,0.6c0,0,0,0,0,0h-1.8
		c-1.2,2.6-4.6,3.2-6.6,1.2c-0.3-0.3-0.6-0.8-0.8-1.2h-6.3c-0.3,0-0.6-0.3-0.6-0.6c0,0,0,0,0,0L30.1,43z M37,24.5
		c-0.4-1.4-0.1-2.4,0.4-3.8c0.6-1.8,0.6-2-0.7-3.4c-0.5-0.6-1-1.1-1.1-1.7c-0.3-1.3,1-2.3,1.7-3.4c0.7-0.9,0.8-2.1,1.8-2.5
		c0.6-0.2,1.5-0.1,2.4,0.1C38.8,6.1,34.6,3.7,30,3c-0.5,0.4-1.1,0.8-1.5,1.3c-0.2,0.2-0.4,0.5-0.4,0.5C28.1,5,29.9,5.6,31,7.2
		c1.1,1.8,1.7,5.2-0.5,6.3c-1.9,0.9-5.8-0.5-6.9,0.2c-0.4,0.2-0.5,0.9-0.6,1.7c-0.1,1.2-0.3,2.5-1.5,3.3c-1.5,0.9-4.3,0.8-6.2,0.7
		c-0.3,0.7-0.6,1.4-1,2.1h11.3c0.1,0,1.5-1.7,5.1-1.9c1.7-0.1,3.6,0.2,4.5,1.4c0.8,1.1,0.7,2.6-0.1,3.6L37,24.5z M42.6,11.3
		c-1.2-0.4-2.4-0.7-3-0.5c-0.3,0.1-0.5,0.5-0.7,1c-0.4,0.9-0.6,1.2-1.3,2c-0.5,0.6-1,1.2-0.9,1.6c0.2,0.8,1.9,1.9,2.2,3.3
		c0.3,1.5-0.9,2.9-0.9,4.5c0,0.5,0.1,0.9,0.2,1.3c2.3,0.3,3.8,2.1,4.8,4C45.9,23.2,45.8,16.6,42.6,11.3L42.6,11.3z M33.3,24.5
		c0.4-0.2,0.8-0.5,1.1-0.9c0.5-0.9,0.3-1.9-0.6-2.5c-0.7-0.4-1.8-0.5-3-0.5c-1.1,0.1-2.3,0.3-3.2,0.8h3.1c0.3,0,0.6,0.3,0.6,0.6v2.5
		H33.3z M14.3,18.6c0-0.1,0-0.1,0.1-0.2c0.3-0.7,0.4-1.4,0.4-1.9c0-2.6-2.1-4.7-4.7-4.7c-2.6,0-4.6,2.1-4.7,4.7
		c0,1.1,0.9,3.1,1.9,5.1c0,0.1,0.1,0.1,0.1,0.2c1,1.8,2.1,3.6,2.7,4.6C11.3,24.5,13.4,21,14.3,18.6L14.3,18.6z M15.7,18.2
		c1.5,0.1,4.1,0.2,5.2-0.5c1.6-1,0.4-4,2.1-5c1.6-1,5.7,0.6,7.1-0.3c0.5-0.3,0.7-0.9,0.7-1.6c0-1-0.3-2-0.8-2.9
		c-1-1.6-2.7-1.7-3-2.7c-0.3-0.9,0.7-1.8,1.4-2.3C22,2.6,15.9,5.8,12.6,11.3c2.1,0.9,3.4,3,3.4,5.3C16,17,15.9,17.6,15.7,18.2
		L15.7,18.2z M42.5,30.1C42.5,30.1,42.5,30,42.5,30.1c-0.2-0.5-0.4-0.9-0.6-1.2h-5.2v4.7h7C43.3,32.3,43,31.3,42.5,30.1L42.5,30.1z
		 M10.1,18.6c-0.4,0-0.8-0.2-1.1-0.5c-1-1.1-0.2-2.8,1.2-2.8c0.9,0,1.7,0.8,1.7,1.7c0,0.1,0,0.2,0,0.3c0,0.1-0.1,0.2-0.1,0.3
		c-0.1,0.3,0,0.6,0.3,0.8c0.3,0.1,0.6,0,0.8-0.3c0,0,0,0,0,0c0.1-0.2,0.1-0.4,0.2-0.6h0c0.3-1.5-0.6-3-2.2-3.3
		c-0.9-0.2-1.9,0.1-2.6,0.8c-1.7,1.7-0.6,4.7,1.8,4.8c0.3,0,0.6-0.2,0.6-0.5C10.6,18.9,10.4,18.6,10.1,18.6L10.1,18.6z M6.6,22.5h-4
		v16.6H9c1.5-1.3,3.8-1.3,5.3,0h15.8V22.5H13.7c-1.5,2.7-3.1,5.2-3.1,5.2c-0.2,0.3-0.5,0.3-0.8,0.2c-0.1,0-0.1-0.1-0.2-0.2
		C9.6,27.6,8,25.2,6.6,22.5L6.6,22.5z M25,32.7h-3.7c-0.3,0-0.6,0.3-0.6,0.6s0.3,0.6,0.6,0.6H25c0.3,0,0.6-0.3,0.6-0.6
		S25.3,32.7,25,32.7z M25,29.5h-7.5c-0.3,0-0.6,0.3-0.6,0.6c0,0.3,0.3,0.6,0.6,0.6H25c0.3,0,0.6-0.3,0.6-0.6
		C25.5,29.8,25.3,29.5,25,29.5z M25,26.3H13.2c-0.3,0-0.6,0.3-0.6,0.6c0,0.3,0.3,0.6,0.6,0.6l0,0H25c0.3,0,0.6-0.3,0.6-0.6
		C25.5,26.6,25.3,26.3,25,26.3z M5.2,41.3v-1H3.8L5.2,41.3z M6.3,40.3v1.6h1.3c0-0.6,0.2-1.1,0.5-1.6H6.3z M20.5,43.3v-1.7h-0.8
		c-0.5,0-0.8,0.4-0.8,0.8c0,0.5,0.4,0.8,0.8,0.8H20.5z M21.6,41.7v1.7h2.5v-1.7H21.6z M25.3,41.7v1.7h0.8c0.5,0,0.8-0.4,0.8-0.8
		c0-0.5-0.4-0.8-0.8-0.8H25.3z M33,36h0.5c0.3,0,0.6-0.3,0.6-0.6c0-0.3-0.3-0.6-0.6-0.6H33c-0.3,0-0.6,0.2-0.6,0.6
		C32.4,35.7,32.6,36,33,36C32.9,36,32.9,36,33,36z M44,34.6h-7.9c-0.3,0-0.6-0.3-0.6-0.6v-5.8c0-0.3,0.3-0.6,0.6-0.6h5
		c-0.9-1.2-2.1-2.1-3.6-2.1h-6.3v13.5H38c1.5-1.3,3.8-1.3,5.3,0h2.1L44,34.6L44,34.6z M40.6,41.1c-0.6,0-1.1,0.5-1.1,1.1
		c0,0.6,0.5,1.1,1.1,1.1c0.3,0,0.6-0.1,0.8-0.3c0.4-0.4,0.4-1.1,0-1.6C41.2,41.3,40.9,41.1,40.6,41.1z M11.6,41.1
		c-1,0-1.5,1.2-0.8,1.9l0,0c0.4,0.4,1.1,0.4,1.6,0c0.4-0.4,0.4-1.1,0-1.6C12.2,41.3,11.9,41.1,11.6,41.1z M37.1,40.3h-5.8v2.5h5.4
		C36.5,41.9,36.6,41.1,37.1,40.3L37.1,40.3z M44.2,40.3c0.4,0.8,0.6,1.6,0.5,2.5h0.9v-2.5H44.2z M42.7,40.2c-1.1-1.1-3-1.1-4.1,0
		c-1.1,1.1-1.1,3,0,4.1c1.1,1.1,3,1.1,4.1,0C43.8,43.2,43.8,41.3,42.7,40.2z M14.5,42.4l0-0.2c0-1.6-1.3-2.9-2.9-2.9
		c-1.6,0-2.9,1.3-2.9,2.9s1.3,2.9,2.9,2.9C13.2,45.2,14.4,44,14.5,42.4z M15.7,41.9h2.1c0.3-0.8,1-1.4,1.9-1.4h6.4
		c0.9,0,1.6,0.5,1.9,1.4h2.1v-1.6H15.2C15.5,40.8,15.6,41.3,15.7,41.9L15.7,41.9z"/>
</g>
</svg>
