<?xml version="1.0" encoding="utf-8"?>
<!-- Generator: Adobe Illustrator 26.0.1, SVG Export Plug-In . SVG Version: 6.00 Build 0)  -->
<svg version="1.1" id="Layer_1" xmlns="http://www.w3.org/2000/svg" xmlns:xlink="http://www.w3.org/1999/xlink" x="0px" y="0px"
	 viewBox="0 0 49 48" style="enable-background:new 0 0 49 48;" xml:space="preserve">
<g>
	<path d="M15.7,34c-0.5,0-0.9,0.4-0.9,0.9s0.4,0.9,0.9,0.9c0.5,0,0.9-0.4,0.9-0.9S16.2,34,15.7,34z"/>
	<path d="M41.5,18.2l5.2-5.2c0.3-0.3,0.3-0.9,0-1.2c-0.1-0.1-0.2-0.2-0.4-0.2L33.8,7.7c-1.1-3.6-4.5-6.2-8.4-6.2
		c-3.6,0-6.8,2.2-8.1,5.5L2.6,11.6c-0.5,0.1-0.7,0.6-0.6,1.1c0,0.1,0.1,0.3,0.2,0.4l5.3,5.3l-3.3,5.6c-0.2,0.4-0.1,1,0.3,1.2
		c0.1,0,0.1,0.1,0.2,0.1l4.9,1.6v13.5c0,0.4,0.2,0.7,0.6,0.8c3,1.1,14,5.3,14.1,5.3c0.2,0.1,0.4,0.1,0.6,0c0,0,0,0,0,0l15.8-5.3
		c0.4-0.1,0.6-0.5,0.6-0.8V26.5l5.2-1.6c0.5-0.1,0.7-0.6,0.6-1.1c0-0.1-0.1-0.3-0.2-0.4L41.5,18.2L41.5,18.2z M34.2,10.3
		c0-0.2,0-0.4,0-0.7l10.3,3.2l-4.4,4.4l-7.2-2.4C33.7,13.5,34.2,11.9,34.2,10.3z M18.7,8c1-2.8,3.6-4.7,6.6-4.7c3.2,0,6,2.2,6.8,5.3
		c0.1,0.6,0.2,1.1,0.2,1.7c0,1.6-0.5,3.2-1.6,4.4c-1.3,1.7-3.3,2.6-5.5,2.6c-2.3,0-4.5-1.1-5.8-3c-0.8-1.2-1.3-2.6-1.3-4
		C18.4,9.5,18.5,8.8,18.7,8L18.7,8z M4.6,12.8L16.7,9c-0.1,0.4-0.1,0.8-0.1,1.3c0,1.4,0.3,2.8,1,4l-8.6,2.9
		C8.9,17.2,4.6,12.8,4.6,12.8z M6.3,23.9l2.8-4.6L23.2,24l-2.8,4.6L6.3,23.9L6.3,23.9z M23.6,44.3l-12.3-4.6V27.4
		c9.7,3.2,9.2,3.1,9.5,3.1c0.3,0,0.6-0.2,0.8-0.4l2.1-3.5V44.3L23.6,44.3z M24.5,22.5l-13-4.3l7.1-2.4c1.7,2,4.2,3.2,6.8,3.2
		c2.5,0,4.8-1,6.4-2.8l5.7,1.9L24.5,22.5z M39.4,39.7l-14,4.7V26l3.1,3.9c0.2,0.3,0.6,0.4,0.9,0.3l10-3.1V39.7z M29.5,28.3L26,23.9
		l14.1-4.7l4.4,4.4L29.5,28.3L29.5,28.3z"/>
	<path d="M21.3,36l-2-0.7c-0.5-0.2-1,0.1-1.1,0.5c-0.2,0.5,0.1,1,0.5,1.1l2,0.7c0.5,0.2,1-0.1,1.1-0.5C22,36.6,21.8,36.1,21.3,36z
		 M21.3,39.7l-5.3-2c-0.5-0.2-1,0.1-1.1,0.5c-0.2,0.5,0.1,1,0.5,1.1l5.3,2c0.1,0,0.2,0.1,0.3,0.1c0.4,0,0.7-0.2,0.8-0.6
		C22,40.4,21.8,39.9,21.3,39.7z M30.4,7.1c-0.3-0.3-0.9-0.3-1.2,0l-4.6,4.6l-1.1-1.1c-0.3-0.3-0.9-0.3-1.2,0s-0.3,0.9,0,1.2l1.8,1.8
		c0.3,0.3,0.9,0.3,1.2,0l5.3-5.3C30.7,8,30.7,7.4,30.4,7.1z"/>
</g>
</svg>
