<?xml version="1.0" encoding="utf-8"?>
<!-- Generator: Adobe Illustrator 26.0.1, SVG Export Plug-In . SVG Version: 6.00 Build 0)  -->
<svg version="1.1" id="Layer_1" xmlns="http://www.w3.org/2000/svg" xmlns:xlink="http://www.w3.org/1999/xlink" x="0px" y="0px"
	 viewBox="0 0 496.1 496.1" style="enable-background:new 0 0 496.1 496.1;" xml:space="preserve">
<style type="text/css">
	.st0{fill:#00A774;}
</style>
<g>
	<path class="st0" d="M337.2,158.3c-1.8,0-3.2,0-4.6,0c-55.4,0-110.8,0-166.1,0.1c-2.6,0-4.4-0.7-6.3-2.6
		c-21.4-21.7-43-43.3-64.4-64.9C83.5,78.6,71.4,66.3,59.2,54c-0.5-0.5-1-1-1.7-1.9c1-0.2,1.7-0.4,2.3-0.4c0.8-0.1,1.7,0,2.5,0
		c124.7,0,249.4,0,374.1,0c6.4,0,6-0.4,6,5.8c0,72.7,0,145.5,0,218.2c0,53.3,0.2,106.5,0.4,159.8c0,1.1,0,2.3,0,3.9
		c-1-0.8-1.7-1.2-2.3-1.8c-12.3-12.2-24.7-24.5-37-36.8c-13.8-13.8-27.6-27.7-41.4-41.6c-7.5-7.5-14.9-15.1-22.5-22.6
		c-1.5-1.5-2.2-3.1-2.2-5.2c0.1-12.3,0-24.6,0-36.8c0-43.7,0-87.4,0-131.1C337.5,161.9,337.3,160.3,337.2,158.3z"/>
	<path class="st0" d="M161.8,181.6c0,50.9,0,101.7,0,153c1.7,0.1,3.2,0.3,4.7,0.3c47.7,0,95.4,0,143,0c1.2,0,2.5,0,4.4,0
		c-0.9,1-1.4,1.7-1.9,2.3c-16.5,16.6-32.9,33.3-49.4,49.9c-17.9,18-35.8,36-53.6,54.1c-2.1,2.1-4.2,3.1-7.3,3.1
		c-47.9-0.1-95.8-0.1-143.7-0.1c-4.5,0-4.7,0.7-4.7-4.5c0-48.6,0-97.2,0-145.8c0-2.8,0.8-4.9,2.8-6.9c9.7-9.6,19.3-19.3,28.9-28.9
		c23.5-23.7,47.1-47.4,70.6-71.2c1.9-1.9,3.7-3.9,5.6-5.8C161.3,181.4,161.6,181.5,161.8,181.6z"/>
</g>
</svg>
