<?xml version="1.0" encoding="utf-8"?>
<!-- Generator: Adobe Illustrator 26.0.1, SVG Export Plug-In . SVG Version: 6.00 Build 0)  -->
<svg version="1.1" id="Layer_1" xmlns="http://www.w3.org/2000/svg" xmlns:xlink="http://www.w3.org/1999/xlink" x="0px" y="0px"
	 viewBox="0 0 1572.5 496.1" style="enable-background:new 0 0 1572.5 496.1;" xml:space="preserve">
<style type="text/css">
	.st0{fill:#049FD9;}
</style>
<g>
	<g>
		<path class="st0" d="M159.8,368.2L159.8,368.2c-16,0-29-13.1-29-29v-59.7c0-16,13.1-29,29-29h0c16,0,29,13.1,29,29v59.7
			C188.8,355.1,175.7,368.2,159.8,368.2z"/>
		<path class="st0" d="M316.5,368.2L316.5,368.2c-16,0-29-13.1-29-29V202.4c0-16,13.1-29,29-29h0c16,0,29,13.1,29,29v136.8
			C345.5,355.1,332.4,368.2,316.5,368.2z"/>
		<path class="st0" d="M787.5,369.9L787.5,369.9c16,0,29-13.1,29-29v-59.7c0-16-13.1-29-29-29h0c-16,0-29,13.1-29,29v59.7
			C758.5,356.9,771.6,369.9,787.5,369.9z"/>
		<path class="st0" d="M630.8,369.9L630.8,369.9c16,0,29-13.1,29-29V204.1c0-16-13.1-29-29-29h0c-16,0-29,13.1-29,29v136.8
			C601.8,356.9,614.9,369.9,630.8,369.9z"/>
		<path class="st0" d="M475.2,425.3L475.2,425.3c-16,0-29-13.1-29-29V95c0-16,13.1-29,29-29h0c16,0,29,13.1,29,29v301.3
			C504.2,412.3,491.2,425.3,475.2,425.3z"/>
	</g>
	<g>
		<path class="st0" d="M784.9,372.9L784.9,372.9c-16,0-29-13.1-29-29v-59.7c0-16,13.1-29,29-29l0,0c16,0,29,13.1,29,29v59.7
			C813.9,359.9,800.9,372.9,784.9,372.9z"/>
		<path class="st0" d="M941.7,372.9L941.7,372.9c-16,0-29-13.1-29-29V207.1c0-16,13.1-29,29-29h0c16,0,29,13.1,29,29v136.8
			C970.7,359.9,957.6,372.9,941.7,372.9z"/>
		<path class="st0" d="M1412.7,374.7L1412.7,374.7c16,0,29-13.1,29-29v-59.7c0-16-13.1-29-29-29l0,0c-16,0-29,13.1-29,29v59.7
			C1383.7,361.6,1396.8,374.7,1412.7,374.7z"/>
		<path class="st0" d="M1256,374.7L1256,374.7c16,0,29-13.1,29-29V208.8c0-16-13.1-29-29-29l0,0c-16,0-29,13.1-29,29v136.8
			C1227,361.6,1240,374.7,1256,374.7z"/>
		<path class="st0" d="M1100.4,430.1L1100.4,430.1c-16,0-29-13.1-29-29V99.7c0-16,13.1-29,29-29h0c16,0,29,13.1,29,29v301.3
			C1129.4,417,1116.3,430.1,1100.4,430.1z"/>
	</g>
</g>
</svg>
