<?xml version="1.0" encoding="utf-8"?>
<!-- Generator: Adobe Illustrator 26.0.1, SVG Export Plug-In . SVG Version: 6.00 Build 0)  -->
<svg version="1.1" id="Layer_1" xmlns="http://www.w3.org/2000/svg" xmlns:xlink="http://www.w3.org/1999/xlink" x="0px" y="0px"
	 viewBox="0 0 496.1 496.1" style="enable-background:new 0 0 496.1 496.1;" xml:space="preserve">
<style type="text/css">
	.st0{fill:#00285E;}
</style>
<g>
	<path class="st0" d="M418.2,66.2c-0.1,19.4-11.2,35.4-28.5,41.9c-51.4,19.1-102.8,38.2-154.3,57.2c-31.5,11.7-63,23.4-94.5,35.1
		c-20.7,7.7-41.9,1.7-54.3-15.3c-17.3-23.8-7.8-58,19.7-68.5c29.8-11.5,60-22.1,90-33.1c53.4-19.5,106.7-39,160.1-58.5
		c27.8-10.2,55.9,5.7,61.3,34.8C418,62.3,418,64.9,418.2,66.2z"/>
	<path class="st0" d="M418.2,337.5c0,18.1-11.2,34.5-28.4,40.9c-63.8,23.7-127.7,47.4-191.5,71.1c-19.5,7.2-39,14.5-58.5,21.6
		c-27.4,10-55.3-5.6-61.1-34c-4.4-21.4,8.1-43.2,29.4-51c81.3-29.7,162.7-59.4,244-89c6.4-2.3,12.7-4.6,19.7-4.8
		C397.4,291.7,418.2,311.9,418.2,337.5z"/>
	<path class="st0" d="M418.2,202.5c0,18-11.2,34.3-28.2,40.6c-83.1,30.9-166.3,61.6-249.3,92.6c-27.4,10.3-55-5.5-61.4-31
		c-5.7-22.5,6.5-45.6,28.6-53.7c37.9-13.9,75.9-27.7,113.8-41.5c45.3-16.5,90.6-33.2,136-49.6C387.4,149.1,418.2,170.9,418.2,202.5z
		"/>
</g>
</svg>
