<?xml version="1.0" encoding="utf-8"?>
<!-- Generator: Adobe Illustrator 26.0.1, SVG Export Plug-In . SVG Version: 6.00 Build 0)  -->
<svg version="1.1" id="Layer_1" xmlns="http://www.w3.org/2000/svg" xmlns:xlink="http://www.w3.org/1999/xlink" x="0px" y="0px"
	 viewBox="0 0 1597.5 496.1" style="enable-background:new 0 0 1597.5 496.1;" xml:space="preserve">
<g>
	<path d="M1348,316.4c4.5,5.9,9.1,12.1,14.1,18.6c-12.4,9.5-25.4,17-39.5,22.7c-27.5,11-56.2,13.2-85.4,11.6
		c-16-0.9-31.7-3.4-46.9-8.8c-35.6-12.6-55.8-38.7-64.6-74.6c-6.6-26.9-7.3-54.2-6.4-81.7c0.7-20.5,3.2-40.8,9.7-60.3
		c13.6-40.8,42.9-63.2,84.5-70.5c24.1-4.2,48.3-4.4,72.5-0.2c40.2,7.1,65,30.5,74.2,70.3c6,26.1,6.2,52.7,6,79.4
		c0,0.3-0.3,0.6-0.7,1.5c-73.2,0-146.8,0-220.1,0c0,7.2-0.3,13.8,0.1,20.3c0.8,14.8,3.1,29.4,7.9,43.5c8.8,25.6,25.7,43.6,51.8,51.1
		c37,10.6,74.1,10.3,110-4.6C1326.6,330.1,1336.8,322.8,1348,316.4z M1340.5,200c-0.9-18.7-1.7-36.9-6.5-54.6
		c-6.9-25.7-23.3-41.4-49.3-47.4c-19.6-4.5-39.2-4.4-59-1.9c-39.8,4.9-65,26.8-75,65.4c-3.2,12.5-4.9,25.3-5.3,38.5
		C1210.6,200,1275.1,200,1340.5,200z"/>
	<path d="M884.1,264.6c0,33.2,0,65.9,0,98.9c-8.7,0-16.8,0-25.4,0c-0.1-1.8-0.3-3.6-0.3-5.3c0-91.7,0-183.3-0.1-275
		c0-4.5,1.1-5.9,5.8-5.8c43.8,0.2,87.6-0.3,131.4,0.4c13.1,0.2,26.6,2.3,39.3,5.9c27,7.6,43.9,26.1,50.6,53.3
		c5.7,23.2,5.5,46.6-1.1,69.5c-9.2,31.7-31.3,49.3-63.1,55.2c-10.2,1.9-20.8,2.7-31.2,2.8c-33.1,0.4-66.3,0.1-99.4,0.1
		C888.6,264.6,886.7,264.6,884.1,264.6z M884.4,103.2c-0.1,2.1-0.3,3.7-0.3,5.3c0,41.6,0.1,83.2-0.1,124.8c0,4.7,1.7,5.4,5.8,5.4
		c34.3-0.1,68.6,0,102.9-0.2c6.8,0,13.7-0.5,20.4-1.7c24-4.2,40.3-17.5,46.3-41.6c4-15.9,4.1-32,0.2-47.9c-4.9-20-17.1-33.8-37-39.5
		c-9.3-2.7-19.3-4.3-29-4.4c-34.6-0.5-69.3-0.2-103.9-0.2C888.1,103.2,886.5,103.2,884.4,103.2z"/>
	<path d="M735.7,363.6c-9,0-17.4,0-26.6,0c0-2.1,0-4.1,0-6c0-56.6,0.1-113.1-0.1-169.7c-0.1-13.1-0.6-26.3-2.2-39.3
		c-3-24.1-16.9-39.4-40-46.5C650.2,97,633.2,95.9,616,96c-14.9,0.1-29.6,1.1-44,5.1c-26.4,7.3-40.5,23.8-43,51.1
		c-0.8,8.6-1.2,17.3-1.2,25.9c-0.1,59.7-0.1,119.4-0.1,179.2c0,2,0,3.9,0,6.3c-8.8,0-17.2,0-26.5,0c0-1.7,0-3.4,0-5.2
		c0-59.9-0.3-119.8,0.2-179.7c0.1-14.7,1.4-29.6,4-44.1c5.6-31.4,25.6-49.6,56-57.3c24.3-6.1,49.1-7.3,73.9-5.3
		c14.8,1.2,29.8,3.4,44.1,7.3c31,8.4,48.6,29.7,53.1,61.1c2.1,14.6,3.1,29.4,3.1,44.2c0.3,58.1,0.1,116.1,0.1,174.2
		C735.9,360.2,735.8,361.7,735.7,363.6z"/>
	<path d="M222.2,77.3c9.3,0,17.7,0,26.8,0c0,2.1,0,4.1,0,6c0,57.6-0.2,115.1,0.1,172.7c0.1,13.4,0.9,27,3,40.2
		c3.3,21.1,16.3,34.7,36.4,41.7c17.7,6.2,36.1,7.2,54.7,7.1c15.5-0.1,30.9-1.4,45.9-5.9c24.1-7.2,37-23.7,39.9-48.2
		c1.1-9.1,1.6-18.2,1.6-27.3c0.1-59.7,0.1-119.5,0.1-179.2c0-2.1,0-4.3,0-6.8c8.8,0,17.2,0,26.3,0c0,1.7,0,3.5,0,5.3
		c0,60.1,0.3,120.1-0.2,180.2c-0.1,15.5-1.8,31.2-4.8,46.5c-5.2,27.1-22.5,44-48.6,52.3c-16.3,5.2-33.2,7.2-50.2,7.7
		c-23.2,0.7-46.3,0-68.9-5.9c-25.8-6.7-46.2-20.3-54.5-46.8c-3.5-11.1-6-23-6.3-34.7c-1.1-38.1-1-76.2-1.2-114.2
		c-0.2-28.3,0-56.6,0-84.9C222.2,81.3,222.2,79.5,222.2,77.3z"/>
	<path d="M51.6,425.9c0-8.4,0-16.2,0-25.1c9.1,0,18.1,0.6,27-0.2c10.1-0.9,20.2-2.4,29.9-5c24.4-6.5,37.9-23.1,40.7-48
		c1.3-11.2,1.9-22.5,1.9-33.8c0.2-76.5,0.1-153,0.1-229.5c0-2.1,0-4.3,0-6.8c8.7,0,17.1,0,26.1,0c0,1.9,0,3.6,0,5.4
		c0,75.7,0.2,151.3-0.2,227c-0.1,17.4-1.3,34.9-4,52.1c-4.7,29.9-23,48.4-51.9,56.9C98.5,425.6,75.3,426.3,51.6,425.9z"/>
	<path d="M1430.4,363.6c-8.9,0-17.2,0-26,0c-0.1-1.9-0.3-3.7-0.3-5.4c0-61.1-0.3-122.1,0.2-183.2c0.1-14,1.7-28.2,4.2-42
		c5.2-27.7,22.3-45.2,49-53.8c17.5-5.6,35.5-7.4,53.6-7.8c11.5-0.3,22.9-0.1,34.8-0.1c0,9.2,0,17.3,0,24.7c-8.1,0-16.2,0-24.3,0
		c-15.5-0.1-30.9,0.7-46,4.8c-27.7,7.5-41.6,23.8-44.2,52.2c-0.7,7.6-1.1,15.3-1.1,22.9c-0.1,60.4,0,120.8,0,181.2
		C1430.4,359.1,1430.4,361.1,1430.4,363.6z"/>
	<path d="M810.2,363.6c-8.8,0-16.8,0-25.1,0c0-95.3,0-190.4,0-286.1c7.6,0,15.2-0.1,22.8,0.1c0.7,0,1.9,1.3,2,2.1
		c0.3,1.6,0.2,3.3,0.2,5c0,90.7,0,181.4,0,272C810.2,358.9,810.2,361,810.2,363.6z"/>
	<path d="M1487.9,365.1c-10.2,0.1-18.2-7.7-18.4-17.7c-0.2-10.2,8-18.6,18.1-18.5c10,0,18,8,18.1,18.1
		C1505.8,357.1,1498,365,1487.9,365.1z M1487.8,331.5c-8.9-0.1-16.1,7-16,15.6c0.1,8.4,7.2,15.6,15.6,15.7c8.6,0.1,16-7.2,15.9-15.8
		C1503.4,338.6,1496.4,331.6,1487.8,331.5z"/>
	<path d="M1496.4,357.7c-6.3-0.6-5.1-11.1-12.7-7.6c-0.4,2.4-0.8,4.9-1.3,7.4c-0.5,0-1-0.1-1.5-0.1c0-6.6,0-13.2,0-20.4
		c3.6,0,7.5-0.4,11.3,0.1c4.4,0.6,6.1,6.5,3.2,10.2c-0.8,1-1.9,1.7-3.1,2.6c0.7,1.2,1.3,2.4,1.9,3.5
		C1494.8,354.5,1495.4,355.7,1496.4,357.7z M1483.4,347.8c3.9-1.1,7-1.8,9.9-3c0.4-0.2,0.3-3.8-0.2-3.9c-3-0.9-6.2-1.2-9.7-1.8
		C1483.4,342.2,1483.4,344.3,1483.4,347.8z"/>
</g>
<g>
	<path d="M922.4,450.6v-74.1h10.5l23.8,37.5c5.5,8.7,9.8,16.5,13.3,24.1l0.2-0.1c-0.9-9.9-1.1-18.9-1.1-30.5v-31h9v74.1h-9.7
		L944.9,413c-5.2-8.2-10.1-16.7-13.9-24.8l-0.3,0.1c0.6,9.4,0.8,18.3,0.8,30.6v31.7H922.4z"/>
	<path d="M1033.2,415.8h-28.8v26.7h32.1v8h-41.7v-74.1h40v8h-30.5v23.4h28.8V415.8z"/>
	<path d="M1064.8,384.6h-22.6v-8.1h54.9v8.1h-22.7v66h-9.7V384.6z"/>
	<path d="M1121.9,450.6l-18.8-74.1h10.1l8.8,37.5c2.2,9.2,4.2,18.5,5.5,25.6h0.2c1.2-7.4,3.5-16.2,6-25.7l9.9-37.4h10l9,37.6
		c2.1,8.8,4.1,17.6,5.2,25.4h0.2c1.5-8.1,3.6-16.4,5.9-25.6l9.8-37.4h9.8l-21,74.1h-10l-9.3-38.6c-2.3-9.5-3.9-16.7-4.8-24.2h-0.2
		c-1.3,7.4-3,14.6-5.7,24.2l-10.6,38.6H1121.9z"/>
	<path d="M1266.2,412.8c0,25.5-15.5,39-34.4,39c-19.6,0-33.3-15.2-33.3-37.6c0-23.5,14.6-38.9,34.4-38.9
		C1253.1,375.2,1266.2,390.8,1266.2,412.8z M1208.7,414c0,15.8,8.6,30,23.6,30c15.2,0,23.8-14,23.8-30.8c0-14.7-7.7-30.1-23.7-30.1
		C1216.6,383.1,1208.7,397.7,1208.7,414z"/>
	<path d="M1278.6,377.4c4.8-1,11.8-1.5,18.4-1.5c10.2,0,16.8,1.9,21.5,6c3.7,3.3,5.8,8.4,5.8,14.1c0,9.8-6.2,16.3-14,18.9v0.3
		c5.7,2,9.1,7.3,10.9,15c2.4,10.3,4.2,17.5,5.7,20.4h-9.9c-1.2-2.1-2.9-8.5-5-17.7c-2.2-10.2-6.2-14.1-14.8-14.4h-9v32.1h-9.6V377.4
		z M1288.2,411.2h9.8c10.2,0,16.7-5.6,16.7-14.1c0-9.6-6.9-13.8-17-13.9c-4.6,0-7.9,0.4-9.5,0.9V411.2z"/>
	<path d="M1337.8,376.5h9.6v35.8h0.3c2-2.9,4-5.5,5.8-7.9l22.7-27.8h11.9l-26.8,31.5l28.9,42.7h-11.3l-24.4-36.4l-7,8.1v28.3h-9.6
		V376.5z"/>
	<path d="M1396.1,438.9c4.3,2.6,10.6,4.8,17.2,4.8c9.8,0,15.5-5.2,15.5-12.6c0-6.9-4-10.9-14-14.7c-12.1-4.3-19.6-10.6-19.6-21
		c0-11.5,9.6-20.1,24-20.1c7.6,0,13.1,1.8,16.4,3.6l-2.6,7.8c-2.4-1.3-7.4-3.5-14.1-3.5c-10.1,0-14,6.1-14,11.1
		c0,6.9,4.5,10.3,14.7,14.3c12.5,4.8,18.9,10.9,18.9,21.8c0,11.4-8.5,21.3-26,21.3c-7.2,0-15-2.1-18.9-4.7L1396.1,438.9z"/>
</g>
</svg>
