<?xml version="1.0" encoding="utf-8"?>
<!-- Generator: Adobe Illustrator 26.0.1, SVG Export Plug-In . SVG Version: 6.00 Build 0)  -->
<svg version="1.1" id="Layer_1" xmlns="http://www.w3.org/2000/svg" xmlns:xlink="http://www.w3.org/1999/xlink" x="0px" y="0px"
	 viewBox="0 0 1597.5 496.1" style="enable-background:new 0 0 1597.5 496.1;" xml:space="preserve">
<style type="text/css">
	.st0{fill:#3F6FC9;}
	.st1{fill:#D2DE3E;}
</style>
<g>
	<path class="st0" d="M1512.6,154.1c8.5,0,17-0.1,25.4,0.1c1.6,0,3.1,1.2,4.6,1.9c-0.8,1.3-1.4,3-2.5,3.9
		c-28.6,24.6-57.2,49-85.7,73.6c-2.2,1.9-3.7,2.1-5.9,0.2c-8.2-7.2-16.5-14.4-24.9-21.5c-2.6-2.2-2.9-4-0.1-6.4
		c19.4-16.6,38.8-33.3,58.2-49.9c1.5-1.2,3.9-1.9,5.9-2C1496,154,1504.3,154.1,1512.6,154.1z"/>
	<g>
		<path class="st0" d="M232.4,278.9c0-2.9,0-4.8,0-6.7c0-37,0-73.9,0-110.9c0-7.2,0-7.2,7.2-7.2c9.7,0,19.3,0.1,29,0
			c3.8-0.1,5.3,1.3,5.3,5.2c-0.1,52.2,0,104.5-0.1,156.7c0,9.6-4.7,16.8-13.2,21.2c-8.4,4.4-17.3,5-25-0.9
			c-11.3-8.8-22-18.2-32.7-27.7c-34.6-30.6-69.1-61.4-103.6-92.1c-0.6-0.5-1.3-0.9-2.9-2c0,2.8,0,4.7,0,6.6c0,36.8,0,73.6,0,110.4
			c0,7.6,0,7.6-7.8,7.6c-9.3,0-18.7-0.2-28,0.1c-4.2,0.1-5.9-1.1-5.9-5.6c0.1-52.2,0-104.5,0.1-156.7c0-17.8,20.3-29.8,35.9-21.1
			c4.7,2.6,9,6.3,13.1,9.9c41.6,36.8,83,73.7,124.5,110.5C229.4,276.9,230.5,277.6,232.4,278.9z"/>
		<path class="st0" d="M1011.9,214.5c0,3,0,4.9,0,6.9c-0.2,37.6-0.4,75.3-0.5,112.9c0,3.4-0.8,4.8-4.4,4.8c-10.7-0.1-21.3-0.2-32,0
			c-3.8,0.1-4.8-1.5-4.8-5.1c0.1-52.6-0.1-105.1,0.1-157.7c0.1-17.5,20.5-29.2,35.9-20.6c4.7,2.6,9,6.3,13.1,9.9
			c41.6,36.8,83,73.7,124.5,110.5c0.9,0.8,2,1.5,4,2.8c0-2.9,0-4.8,0-6.7c0-37.1,0-74.3,0-111.4c0-6.6,0.1-6.7,6.6-6.8
			c9.8,0,19.7,0.1,29.5-0.1c3.8-0.1,5.4,1.2,5.3,5.2c-0.1,52.2,0,104.4-0.1,156.7c0,9.6-4.6,16.8-13.1,21.3
			c-8.6,4.5-17.6,5-25.4-1.2c-11.4-9.1-22.4-18.7-33.4-28.4c-34.3-30.4-68.6-60.9-102.9-91.4C1014,215.8,1013.4,215.5,1011.9,214.5z
			"/>
		<path class="st0" d="M928.3,339c-6,0-12-0.3-18,0.1c-4.2,0.3-6.6-1.4-8.9-4.8c-6.9-10.2-13.9-20.2-21.2-30.1c-1.2-1.6-3.9-3-6-3
			c-42-0.2-83.9-0.1-125.9-0.2c-3,0-4.8,1-6.5,3.5c-7.1,10.4-14.6,20.6-21.7,30.9c-1.8,2.6-3.6,3.7-6.9,3.7c-12.7-0.2-25.3,0-38-0.2
			c-2,0-3.9-1-5.9-1.6c0.7-1.8,1-3.8,2.1-5.3c22.6-32.1,45.3-64.2,68-96.3c16.3-23,32.6-46,48.9-69c5.7-8.1,12.7-13.9,23.4-13.8
			c10.1,0.2,16.6,5.8,22,13.4c22.9,32.4,45.7,64.8,68.6,97.2c16.2,22.9,32.4,45.8,48.5,68.7c1.1,1.5,1.4,3.5,2.1,5.3
			c-1.8,0.5-3.6,1.3-5.4,1.4C941.3,339.1,934.8,339,928.3,339z M811.3,207.1c-13.6,19-26.6,37.2-40,56c26.9,0,52.7,0,79.5,0
			C837.6,244.3,824.8,226.1,811.3,207.1z"/>
		<path class="st0" d="M296.4,223.5c0-21.1,0.1-42.1-0.1-63.2c0-4.7,1.3-6.5,6.2-6.4c9.8,0.3,19.7,0.3,29.5,0
			c4.9-0.2,6.3,1.7,6.3,6.4c-0.1,37.8,0.2,75.6-0.2,113.4c-0.2,16.6,5.6,24.5,23.6,28.1c5.4,1.1,10.9,1.8,16.3,1.7
			c20.1-0.3,40.2-0.9,60.3-1.5c2.3-0.1,4.6-0.8,6.8-1.5c12.9-3.8,18.3-11,18.3-24.3c0-38,0-75.9,0-113.9c0-1.3,0.1-2.7,0-4
			c-0.2-3,1.2-4.3,4.1-4.3c11.2,0,22.3,0,33.5,0c2.9,0,4.3,1.3,4.3,4.2c0,1.3,0,2.7,0,4c0,38.5-0.7,76.9,0.2,115.4
			c0.9,37.8-27.2,60.2-58,63.2c-31.4,3.1-62.8,3.1-94.2,0c-26.9-2.7-48.8-19.7-55-43c-1.5-5.8-1.9-12.1-2-18.2
			C296.2,261,296.4,242.3,296.4,223.5z"/>
		<path class="st0" d="M645.4,192.1c0,2.8,0,4.8,0,6.8c0,44.4,0,88.8,0,133.3c0,6.9,0,6.9-6.9,6.9c-9.3,0-18.6,0-28,0
			c-6.7,0-6.8,0-6.8-6.6c0-44.6,0-89.2,0-133.8c0-2,0-3.9,0-6.6c-2.3,0-4.3,0-6.2,0c-21.5,0-43,0-64.4,0c-6.3,0-6.5-0.3-6.5-6.4
			c0-8.6,0.2-17.2-0.1-25.9c-0.1-4.3,1.3-5.9,5.7-5.8c11,0.2,22,0.1,33,0.1c49.9,0,99.9,0,149.8,0c7.9,0,7.9,0,7.9,8
			c0,7.6,0,15.2,0,22.9c0,6.8-0.3,7.1-7,7.1c-21.3,0-42.6,0-63.9,0C649.9,192.1,648,192.1,645.4,192.1z"/>
		<path class="st1" d="M1376.1,246.9c-20.9-18-41.6-35.7-62.3-53.5c-12.7-10.9-25.5-21.9-38.1-32.9c-1.2-1.1-1.7-2.9-2.5-4.4
			c1.6-0.5,3.3-1.5,4.9-1.5c16.7-0.1,33.3-0.1,50,0c2.1,0,4.7,0.7,6.3,2.1c33.6,28.7,67,57.7,100.6,86.4c3.6,3,3.3,4.8-0.1,7.7
			c-32.1,27.4-64.3,54.7-96.1,82.5c-5.1,4.4-9.9,6.1-16.4,6c-14.8-0.4-29.6-0.1-44.5-0.2c-1.6,0-3.2-1-4.8-1.5
			c0.8-1.5,1.4-3.3,2.6-4.4c29.6-25.5,59.2-50.9,88.9-76.4C1368.4,253.5,1372.1,250.3,1376.1,246.9z"/>
		<path class="st0" d="M1211.9,246.4c0-28.5,0-57,0-85.5c0-6.5,0.3-6.8,6.7-6.8c9.7,0,19.3,0.1,29-0.1c4.4-0.1,5.8,1.6,5.8,5.9
			c-0.1,57.8-0.1,115.7,0,173.5c0,4.4-1.5,5.8-5.8,5.7c-10-0.2-20-0.2-30,0c-4.4,0.1-5.8-1.4-5.8-5.7
			C1212,304.4,1211.9,275.4,1211.9,246.4z"/>
		<path class="st0" d="M1512,339c-8.2,0-16.3,0.2-24.5-0.1c-2.4-0.1-5.3-1-7.1-2.5c-18.5-15.7-36.8-31.6-55.1-47.5
			c-5.3-4.5-5.2-4.8,0-9.2c7.6-6.5,15.2-12.9,22.7-19.5c2.7-2.4,4.5-2.3,7.2,0.1c28.2,24.5,56.6,48.8,84.9,73.2
			c1.1,1,1.7,2.5,2.6,3.8c-1.6,0.6-3.1,1.6-4.7,1.7C1529.4,339.1,1520.7,339,1512,339z"/>
	</g>
</g>
</svg>
