<?xml version="1.0" encoding="utf-8"?>
<!-- Generator: Adobe Illustrator 26.0.1, SVG Export Plug-In . SVG Version: 6.00 Build 0)  -->
<svg version="1.1" id="Layer_1" xmlns="http://www.w3.org/2000/svg" xmlns:xlink="http://www.w3.org/1999/xlink" x="0px" y="0px"
	 viewBox="0 0 1597.5 496.1" style="enable-background:new 0 0 1597.5 496.1;" xml:space="preserve">
<g>
	<path d="M694,347.6c-17.5,0-34.4,0-52.3,0c0-49.6,0-99.1,0-148.1c-4.5-2-4.7,0.5-5.1,2.7c-3.2,17.7-6.4,35.4-9.6,53.1
		c-5.4,29.6-10.7,59.3-16.1,88.9c-0.2,1.1-0.6,2.1-0.9,3.4c-17.9,0-35.8,0-54.1,0c-1.4-7.3-2.8-14.7-4.1-22
		c-7.6-41.1-15.1-82.3-22.6-123.5c-0.5-2.6-1-4.4-4.9-2.9c0,49.2,0,98.6,0,148.3c-17.6,0-34.5,0-52,0c0-1.5,0-2.9,0-4.4
		c1.4-63,2.8-126.1,4.1-189.1c0.1-2.9,0.3-4.6,4-4.5c26.8,0.1,53.6,0.1,80.4,0.1c0.8,0,1.6,0.1,2.9,0.2c1.2,7.8,2.5,15.6,3.7,23.4
		c4.2,27.2,8.4,54.3,12.7,81.4c0.2,1.2,1.6,2.3,2.5,3.4c0.9-1.2,2.3-2.2,2.5-3.5c5.5-33.7,10.9-67.5,16.1-101.2
		c0.5-3.4,1.5-4.9,5.4-4.8c25.7,0.2,51.4,0.1,77.1,0.1c1.4,0,2.7,0.1,4.7,0.2C690.2,215,692.1,281,694,347.6z"/>
	<path d="M1217.4,227c1,40.1,2,80.1,3,120.5c-17.3,0-34.3,0-51.7,0c0-1.5,0-2.9,0-4.2c0-63.2,0-126.4-0.1-189.6c0-4,1-5.2,5.1-5.1
		c18.2,0.2,36.3,0.2,54.5,0c3.1,0,4.6,1,5.9,3.9c16.6,38.1,33.3,76.2,50,114.2c0.5,1.2,1.4,2.3,2.2,3.4c0.5-0.1,0.9-0.3,1.4-0.4
		c-1.2-40.2-2.4-80.3-3.7-120.7c17.6,0,34.7,0,52.1,0c0,66.2,0,132.1,0,198.7c-1.1,0.1-2.4,0.3-3.6,0.3c-17.9,0-35.8-0.1-53.6,0.1
		c-3.1,0-4.6-0.9-5.9-3.8c-16.9-37.5-33.9-75-50.9-112.4c-0.8-1.8-1.9-3.5-2.8-5.2C1218.5,226.6,1218,226.8,1217.4,227z"/>
	<path d="M955.2,149c19,0,37.5,0,56.4,0c0.1,1.4,0.2,2.7,0.2,4c0,47.4,0.1,94.9,0.1,142.3c0,1.9,0.1,3.9,0.3,5.8
		c0.9,8.2,6.4,13.1,15,13.4c8.1,0.3,13.4-4,14.8-12.3c0.4-2,0.4-4.2,0.4-6.2c0-47.4,0-94.9,0-142.3c0-1.5,0-3,0-4.7
		c18.6,0,36.7,0,55.5,0c0,1.7,0,3.3,0,4.9c0,48.1-0.1,96.3,0.1,144.4c0.1,22.8-10.2,38.9-31.1,47.5c-27.5,11.3-55.4,11.4-82.6-0.8
		c-19.8-8.9-29.2-25.3-29.2-47.2c0.1-47.8,0.1-95.7,0.1-143.5C955.2,152.6,955.2,150.9,955.2,149z"/>
	<path d="M752,283.5c18.7,0,36.9,0,55.7,0c0,5.7-0.1,11.3,0,16.8c0.2,10.8,9.8,17.4,20.1,14c8.2-2.6,12.6-12.9,9.2-21.8
		c-2.6-7-7.7-11.9-14.2-15.3c-12.7-6.8-25.6-13.1-38-20.3c-13.6-7.8-24.9-17.9-27.4-34.5c-2.3-15.1-2.4-30.4,0.6-45.4
		c2.7-13.2,11.6-21.6,23.6-26.9c12.6-5.6,26-7.4,39.6-7.5c14.9-0.1,29.6,1,43.5,7.2c16.3,7.3,25.6,19.2,25.2,37.7
		c-0.2,7.3,0,14.7,0,22.3c-17.6,0-34.6,0-52.2,0c0-4.8,0-9.4,0-13.9c0-7.8-2.1-11.6-8.2-14c-6.3-2.5-12.4-2.2-17.6,2.6
		c-4.4,4-5.6,11.6-3.1,17.5c2.2,5.2,5.8,9.2,10.8,11.9c9.5,5.1,19.1,9.9,28.5,14.9c8.1,4.3,16.4,8.4,24.1,13.4
		c11.2,7.3,18.3,18.1,19.9,31.2c1.5,12.5,1.6,25.4,0.5,37.9c-1.2,14.7-10.3,25-23,32C850,354.1,828.8,356,807,353.9
		c-10.8-1.1-21.3-3.5-30.8-8.8c-15.7-8.9-24.4-22-24.2-40.5C752.1,297.7,752,290.9,752,283.5z"/>
	<path d="M69.1,283.4c18.9,0,37,0,55.8,0c0,5.8-0.1,11.5,0,17.1c0.2,9,6.4,14.8,15.4,14.6c10.3-0.3,17.3-10.2,14.5-20.8
		c-2.1-7.9-7.5-13.2-14.5-17c-12.7-6.8-25.6-13.2-38.1-20.3c-10.9-6.2-20.5-14.1-25.3-26.4c-0.5-1.3-1-2.6-1.3-4
		c-3.6-17.2-3.5-34.4,0.1-51.5C78,164.5,86,157.8,95.3,153c16.7-8.5,34.6-11.3,53.2-10.1c12.3,0.8,24.5,2.4,35.7,8.1
		c15,7.6,23.4,19.4,22.8,36.7c-0.2,7.2,0,14.5,0,22.1c-17.2,0-34.3,0-52.1,0c0-4.5-0.1-9.1,0-13.6c0.2-6.5-1.8-11.5-8.2-14.1
		c-6.6-2.7-13.9-1.8-17.9,2.7c-4.6,5.2-5.4,11.2-2.8,17.6c2.2,5.4,6.2,9.3,11.2,12c9.1,4.9,18.3,9.5,27.4,14.3
		c7.8,4.1,15.7,8,23.1,12.6c13.7,8.6,20.9,21.7,22.3,37.4c0.9,10.1,0.9,20.4,0,30.5c-1.5,16.4-10.7,28.2-25.3,35
		c-28.9,13.6-58.7,14.6-88.1,2.3c-18.4-7.7-28-22.4-27.8-42.8C69.1,297.1,69.1,290.5,69.1,283.4z"/>
	<path d="M1526.7,208.6c-17.1,0-34.1,0-51.6,0c-0.1-1.6-0.2-3.1-0.2-4.6c-0.1-4.5,0.2-9-0.3-13.4c-1-7.9-6.5-12.1-14.2-11.6
		c-8.6,0.6-13.3,5.2-13.3,13.4c0,35.4,0,70.9,0.1,106.3c0,8.2,4.2,13.3,11.6,14.6c8.8,1.5,16.2-3.8,16.5-12.8
		c0.4-11,0.1-22,0.1-33.6c-4.6,0-9.1,0-13.9,0c0-10,0-19.4,0-29.1c22.3,0,44.4,0,66.7,0c0.2,0.7,0.4,1.2,0.4,1.7
		c-0.2,22.6-0.2,45.2-0.7,67.8c-0.4,20.3-11,33.3-30.2,39.5c-26.1,8.4-52,8.4-77.3-2.7c-18.4-8.1-27.2-22.8-27.2-42.8
		c0-33.2,0-66.4,0-99.6c0-5.2-0.3-10.4,0.4-15.4c2.6-19.3,13.3-32.8,31.5-39.3c24.7-8.8,49.7-8.2,74.2,1.1
		c16.3,6.2,25.9,18.2,27.3,35.8C1527.3,192.1,1526.7,200.2,1526.7,208.6z"/>
	<path d="M382.3,149.4c11.5,66.1,22.9,131.9,34.3,198c-18.6,0-36.9,0-55.5,0c-1-7.2-2-14.3-2.9-21.5c-5.7-42.7-11.3-85.4-16.9-128.2
		c-0.4-3.3-1.6-4.5-5.2-3.2c-6.7,50.7-13.5,101.6-20.2,152.7c-18.4,0-36.8,0-55.5,0c1.7-9.7,3.3-19.2,4.9-28.6
		c9.5-54.7,19-109.4,28.3-164.1c0.7-4.1,2.2-5.3,6.4-5.2c25.6,0.2,51.1,0.1,76.7,0.1C378.4,149.4,380.2,149.4,382.3,149.4z"/>
</g>
</svg>
