<svg width="49" height="48" viewBox="0 0 49 48" fill="none" xmlns="http://www.w3.org/2000/svg">
<path d="M44.9029 23.6936L35.6269 20.538C35.351 20.4426 35.0511 20.4426 34.7753 20.538L25.4993 23.6936C25.2368 23.7821 25.0088 23.9509 24.8475 24.1759C24.6861 24.401 24.5995 24.6712 24.6 24.9481V32.0473C24.6 40.712 34.2717 44.9242 34.6834 45.0991C34.8476 45.167 35.0236 45.2019 35.2013 45.2016C35.3789 45.2013 35.5548 45.1658 35.7188 45.0973C36.1304 44.9224 45.8022 40.712 45.8022 32.0473V24.9481C45.8027 24.6712 45.7161 24.401 45.5547 24.1759C45.3933 23.9509 45.1653 23.7821 44.9029 23.6936ZM41.007 30.3936L36.1481 36.5775C36.0009 36.765 35.8173 36.9208 35.6083 37.0354C35.3994 37.1501 35.1694 37.2213 34.9322 37.2447C34.695 37.2682 34.4555 37.2434 34.2281 37.1718C34.0007 37.1003 33.7902 36.9835 33.6091 36.8284L30.5172 34.1782C30.3337 34.0295 30.1818 33.8456 30.0706 33.6373C29.9594 33.4289 29.8911 33.2004 29.8697 32.9653C29.8483 32.7301 29.8743 32.493 29.9461 32.268C30.0179 32.0431 30.1341 31.8348 30.2877 31.6555C30.4414 31.4762 30.6295 31.3295 30.8408 31.2241C31.0521 31.1187 31.2824 31.0567 31.5181 31.0419C31.7538 31.027 31.9901 31.0596 32.213 31.1376C32.4359 31.2156 32.6409 31.3375 32.8158 31.4961L34.5085 32.9467L38.2277 28.2133C38.3708 28.0305 38.5486 27.8778 38.7509 27.764C38.9532 27.6501 39.1759 27.5773 39.4064 27.5497C39.6369 27.5221 39.8705 27.5403 40.0939 27.6033C40.3174 27.6662 40.5262 27.7726 40.7084 27.9164C40.8911 28.0591 41.0439 28.2365 41.1579 28.4384C41.2718 28.6403 41.3448 28.8627 41.3725 29.0929C41.4003 29.3231 41.3823 29.5565 41.3195 29.7797C41.2568 30.0029 41.1506 30.2115 41.007 30.3936ZM36.9679 2.79883H8.69827C7.29247 2.79883 5.94425 3.35728 4.9502 4.35133C3.95616 5.34538 3.39771 6.69359 3.39771 8.09939C3.39771 9.50519 3.95616 10.8534 4.9502 11.8475C5.94425 12.8415 7.29247 13.4 8.69827 13.4H36.9679C38.3737 13.4 39.722 12.8415 40.716 11.8475C41.71 10.8534 42.2685 9.50519 42.2685 8.09939C42.2685 6.69359 41.71 5.34538 40.716 4.35133C39.722 3.35728 38.3737 2.79883 36.9679 2.79883ZM8.69827 9.86625C8.22967 9.86625 7.78026 9.6801 7.44891 9.34875C7.11756 9.0174 6.93141 8.56799 6.93141 8.09939C6.93141 7.63079 7.11756 7.18139 7.44891 6.85004C7.78026 6.51869 8.22967 6.33254 8.69827 6.33254C9.16687 6.33254 9.61627 6.51869 9.94762 6.85004C10.279 7.18139 10.4651 7.63079 10.4651 8.09939C10.4651 8.56799 10.279 9.0174 9.94762 9.34875C9.61627 9.6801 9.16687 9.86625 8.69827 9.86625ZM15.7657 9.86625C15.2971 9.86625 14.8477 9.6801 14.5163 9.34875C14.185 9.0174 13.9988 8.56799 13.9988 8.09939C13.9988 7.63079 14.185 7.18139 14.5163 6.85004C14.8477 6.51869 15.2971 6.33254 15.7657 6.33254C16.2343 6.33254 16.6837 6.51869 17.015 6.85004C17.3464 7.18139 17.5325 7.63079 17.5325 8.09939C17.5325 8.56799 17.3464 9.0174 17.015 9.34875C16.6837 9.6801 16.2343 9.86625 15.7657 9.86625Z" fill="#00ADEE"/>
<path d="M8.69827 16.9336C5.76529 16.9336 3.39771 19.3012 3.39771 22.2342C3.39771 25.1671 5.76529 27.5347 8.69827 27.5347H21.0662V24.9551C21.0662 22.8702 22.3914 21.015 24.3703 20.3436L33.6286 17.1986C34.141 17.0219 34.671 16.9336 35.2011 16.9336H8.69827ZM8.69827 24.001C7.7265 24.001 6.93141 23.2059 6.93141 22.2342C6.93141 21.2624 7.7265 20.4673 8.69827 20.4673C9.67004 20.4673 10.4651 21.2624 10.4651 22.2342C10.4651 23.2059 9.67004 24.001 8.69827 24.001ZM15.7657 24.001C14.7939 24.001 13.9988 23.2059 13.9988 22.2342C13.9988 21.2624 14.7939 20.4673 15.7657 20.4673C16.7375 20.4673 17.5325 21.2624 17.5325 22.2342C17.5325 23.2059 16.7375 24.001 15.7657 24.001ZM21.0662 32.0402V31.0684H8.69827C5.76529 31.0684 3.39771 33.436 3.39771 36.369C3.39771 39.302 5.76529 41.6696 8.69827 41.6696H24.5469C22.5151 39.0899 21.0662 35.8566 21.0662 32.0402ZM8.69827 38.1358C7.7265 38.1358 6.93141 37.3408 6.93141 36.369C6.93141 35.3972 7.7265 34.6021 8.69827 34.6021C9.67004 34.6021 10.4651 35.3972 10.4651 36.369C10.4651 37.3408 9.67004 38.1358 8.69827 38.1358ZM15.7657 38.1358C14.7939 38.1358 13.9988 37.3408 13.9988 36.369C13.9988 35.3972 14.7939 34.6021 15.7657 34.6021C16.7375 34.6021 17.5325 35.3972 17.5325 36.369C17.5325 37.3408 16.7375 38.1358 15.7657 38.1358Z" fill="#00ADEE"/>
</svg>
