<svg width="15" height="17" viewBox="0 0 15 17" fill="none" xmlns="http://www.w3.org/2000/svg">
<path fill-rule="evenodd" clip-rule="evenodd" d="M14.9524 2.97459V10.9558C14.9527 11.3088 14.8834 11.6584 14.7485 11.9846C14.6135 12.3107 14.4156 12.6071 14.1661 12.8567C13.9165 13.1064 13.6202 13.3044 13.2941 13.4394C12.9679 13.5744 12.6184 13.6438 12.2654 13.6436H6.26492C6.14678 13.6435 6.03236 13.6849 5.94162 13.7605L3.0453 16.1741C2.96375 16.2423 2.86443 16.2858 2.75902 16.2995C2.65361 16.3132 2.54648 16.2965 2.4502 16.2515C2.35392 16.2064 2.2725 16.1349 2.21547 16.0452C2.15845 15.9555 2.12821 15.8513 2.12829 15.745L2.12903 13.5847C1.52677 13.4566 0.986738 13.1256 0.599217 12.6471C0.211696 12.1686 0.000170134 11.5716 0 10.9558V2.97459C0 2.26168 0.283076 1.57857 0.787398 1.075C1.03676 0.825363 1.33287 0.62733 1.65882 0.492222C1.98477 0.357114 2.33415 0.287581 2.68699 0.287598H12.2654C12.9775 0.287598 13.6614 0.570674 14.165 1.075C14.4146 1.32433 14.6127 1.62044 14.7478 1.94639C14.8829 2.27235 14.9524 2.62174 14.9524 2.97459ZM7.47619 9.14192L9.67077 10.4925C9.70366 10.5131 9.74189 10.5237 9.78071 10.5228C9.81954 10.5219 9.85725 10.5096 9.88915 10.4875C9.92106 10.4653 9.94575 10.4343 9.96017 10.3982C9.97458 10.3622 9.97808 10.3227 9.97024 10.2847L9.46294 7.75112L11.1428 6.07203C11.1697 6.04506 11.1883 6.0109 11.1964 5.97364C11.2045 5.93638 11.2017 5.89759 11.1884 5.86187C11.175 5.82616 11.1517 5.79503 11.1211 5.7722C11.0906 5.74936 11.0542 5.73579 11.0161 5.73309L8.66809 5.56548L7.6587 3.20999C7.64328 3.17439 7.61778 3.14408 7.58536 3.12279C7.55293 3.10149 7.51498 3.09015 7.47619 3.09015C7.4374 3.09015 7.39945 3.10149 7.36702 3.12279C7.33459 3.14408 7.3091 3.17439 7.29368 3.20999L6.28429 5.56548L3.93625 5.73309C3.89822 5.73579 3.86176 5.74936 3.83123 5.7722C3.8007 5.79503 3.77737 5.82616 3.76403 5.86187C3.75068 5.89759 3.74788 5.93638 3.75597 5.97364C3.76405 6.0109 3.78267 6.04506 3.80961 6.07203L5.48944 7.75112L4.98214 10.2847C4.97429 10.3227 4.97779 10.3622 4.99221 10.3982C5.00663 10.4343 5.03132 10.4653 5.06322 10.4875C5.09513 10.5096 5.13284 10.5219 5.17166 10.5228C5.21049 10.5237 5.24872 10.5131 5.2816 10.4925L7.47619 9.14192Z" fill="#00ADEE"/>
</svg>
