<svg width="39" height="39" viewBox="0 0 39 39" fill="none" xmlns="http://www.w3.org/2000/svg">
<path fill-rule="evenodd" clip-rule="evenodd" d="M35.367 30.454H27.5866C26.3922 30.454 25.2467 29.9795 24.4022 29.1349C23.5576 28.2904 23.0831 27.1449 23.0831 25.9505V22.6752C23.0831 21.4808 23.5576 20.3353 24.4022 19.4908C25.2467 18.6462 26.3922 18.1717 27.5866 18.1717H35.367V16.1247C35.367 14.9308 34.8921 13.7845 34.0487 12.9395C33.2033 12.0957 32.0579 11.6217 30.8635 11.6212H7.93661C6.74277 11.6212 5.59642 12.0961 4.7514 12.9395C3.90769 13.7849 3.43361 14.9303 3.43311 16.1247V32.501C3.43311 33.6949 3.90802 34.8412 4.7514 35.6862C5.59679 36.53 6.74223 37.004 7.93661 37.0045H30.8635C32.0574 37.0045 33.2037 36.5296 34.0487 35.6862C34.8924 34.8409 35.3665 33.6954 35.367 32.501V30.454ZM35.367 20.6282V27.9975H27.5866C26.4566 27.9975 25.5396 27.0805 25.5396 25.9505V22.6752C25.5396 21.5452 26.4566 20.6282 27.5866 20.6282H35.367ZM28.4071 22.6752C28.8414 22.6752 29.2579 22.8478 29.565 23.1549C29.8722 23.462 30.0447 23.8785 30.0447 24.3129C30.0447 24.7472 29.8722 25.1637 29.565 25.4708C29.2579 25.778 28.8414 25.9505 28.4071 25.9505C27.9727 25.9505 27.5562 25.778 27.2491 25.4708C26.942 25.1637 26.7694 24.7472 26.7694 24.3129C26.7694 23.8785 26.942 23.462 27.2491 23.1549C27.5562 22.8478 27.9727 22.6752 28.4071 22.6752ZM26.0947 9.98353H30.8635C31.1763 9.98353 31.4875 10.0081 31.7937 10.054L32.5699 8.38684C32.7073 8.09189 32.7221 7.75447 32.6109 7.44866C32.4998 7.14286 32.2718 6.89365 31.9771 6.75575L21.5863 1.90998C21.2912 1.7727 20.9536 1.7582 20.6477 1.86966C20.3419 1.98113 20.0928 2.20944 19.9552 2.50444L19.0758 4.38936L24.48 6.90805C25.0487 7.17321 25.5147 7.6177 25.8064 8.17328C26.0981 8.72886 26.1994 9.36482 26.0947 9.98353ZM9.04201 9.98353H24.4014C24.5248 9.69073 24.53 9.36149 24.4158 9.06497C24.3016 8.76845 24.0769 8.52773 23.7889 8.39339L13.3981 3.54762C13.103 3.41034 12.7654 3.39583 12.4596 3.5073C12.1537 3.61876 11.9046 3.84708 11.767 4.14208L9.04201 9.98353Z" fill="#00ADEE"/>
</svg>
