<svg width="17" height="16" viewBox="0 0 17 16" fill="none" xmlns="http://www.w3.org/2000/svg">
<path d="M13.701 4.60851L10.9753 4.21243L9.75631 1.74254C9.28568 0.788769 7.92422 0.788415 7.45336 1.74251L6.23436 4.21243L3.50864 4.60851C2.45612 4.76142 2.03515 6.05607 2.797 6.79876L4.76936 8.72134L4.30376 11.436C4.12396 12.4842 5.22503 13.2847 6.1669 12.7897L8.60484 11.5079L11.0428 12.7897C11.9858 13.2853 13.0853 12.4818 12.9059 11.436L12.4403 8.72134L14.4127 6.79876C15.1742 6.05633 14.754 4.76152 13.701 4.60851ZM4.69439 1.30264L4.03621 0.396786C3.85754 0.150942 3.51338 0.0964141 3.26753 0.27509C3.02166 0.453733 2.96716 0.797895 3.1458 1.04377L3.80398 1.94963C3.98275 2.1956 4.32694 2.24994 4.57266 2.07132C4.81854 1.89271 4.87303 1.54852 4.69439 1.30264ZM2.51023 9.42078C2.4163 9.13176 2.1059 8.97343 1.81678 9.06746L0.73025 9.42053C0.441196 9.51439 0.283029 9.82489 0.376929 10.114C0.471023 10.4036 0.782069 10.5611 1.07038 10.4673L2.15694 10.1142C2.446 10.0204 2.60417 9.70987 2.51023 9.42078ZM13.9422 0.27509C13.6963 0.0964141 13.3522 0.15091 13.1735 0.396786L12.5153 1.30264C12.3366 1.54852 12.3912 1.89271 12.637 2.07132C12.883 2.25003 13.2271 2.19541 13.4057 1.94963L14.0639 1.04377C14.2426 0.797895 14.1881 0.453733 13.9422 0.27509ZM16.4795 9.42053L15.3929 9.06746C15.1038 8.97337 14.7934 9.13173 14.6994 9.42078C14.6055 9.70984 14.7637 10.0203 15.0528 10.1142L16.1393 10.4673C16.4278 10.5611 16.7387 10.4034 16.8328 10.114C16.9267 9.82492 16.7685 9.51446 16.4795 9.42053ZM8.60484 13.6869C8.30092 13.6869 8.05453 13.9333 8.05453 14.2372V15.3541C8.05453 15.658 8.30092 15.9044 8.60484 15.9044C8.90876 15.9044 9.15515 15.658 9.15515 15.3541V14.2372C9.15518 13.9333 8.90879 13.6869 8.60484 13.6869Z" fill="#00ADEE"/>
</svg>
