<svg width="14" height="13" viewBox="0 0 14 13" fill="none" xmlns="http://www.w3.org/2000/svg">
<path fill-rule="evenodd" clip-rule="evenodd" d="M8.49845 12.016C8.49845 11.5501 8.12075 11.1724 7.65486 11.1724H6.62186C6.39812 11.1724 6.18355 11.2612 6.02535 11.4194C5.86714 11.5776 5.77826 11.7922 5.77826 12.016C5.77826 12.4819 6.15596 12.8595 6.62186 12.8595H7.65486C8.12075 12.8595 8.49845 12.4819 8.49845 12.016ZM2.17191 9.84067C2.31281 9.85144 2.48328 9.85763 2.65452 9.84759C2.76185 10.3918 3.05477 10.8819 3.48327 11.2341C3.91177 11.5864 4.44926 11.779 5.00396 11.779H5.32585C5.29725 11.9357 5.29718 12.0962 5.32563 12.2529H5.00396C4.32227 12.2529 3.66285 12.0101 3.1439 11.5681C2.62494 11.1261 2.28036 10.5137 2.17191 9.84067ZM1.93085 9.33641C1.50241 9.26418 1.11342 9.0425 0.832888 8.71071C0.552361 8.37893 0.39844 7.95849 0.398438 7.52401L0.398438 6.40394C0.398437 5.91648 0.592079 5.44898 0.936765 5.10429C1.28145 4.7596 1.74895 4.56595 2.23641 4.56595H2.35875C2.55432 2.09756 4.61952 0.155273 7.13836 0.155273C9.65719 0.155273 11.7224 2.09756 11.918 4.56595H12.0403C12.5278 4.56595 12.9953 4.7596 13.3399 5.10429C13.6846 5.44898 13.8783 5.91648 13.8783 6.40394V7.52401C13.8783 8.01147 13.6846 8.47897 13.3399 8.82366C12.9953 9.16835 12.5278 9.362 12.0403 9.362H11.4979C11.273 9.362 11.0906 9.17963 11.0906 8.95471V4.95004C11.0906 2.76726 9.32114 0.997763 7.13836 0.997763C4.95557 0.997763 3.18608 2.76726 3.18608 4.95004V8.95471C3.18608 9.11352 3.09517 9.25114 2.96253 9.3183C2.59742 9.44499 2.03118 9.35334 1.93085 9.33641Z" fill="#00ADEE"/>
</svg>
