<svg width="39" height="39" viewBox="0 0 39 39" fill="none" xmlns="http://www.w3.org/2000/svg">
<path d="M32.6138 10.9134H29.605L22.2227 18.2924C22.477 18.9404 22.5003 19.6562 22.2889 20.3194C22.0775 20.9826 21.6441 21.5528 21.0618 21.9341C20.4794 22.3153 19.7835 22.4845 19.0911 22.413C18.3986 22.3415 17.752 22.0338 17.2597 21.5416C16.7675 21.0493 16.4598 20.4027 16.3883 19.7103C16.3169 19.0178 16.486 18.3219 16.8672 17.7395C17.2485 17.1572 17.8187 16.7238 18.4819 16.5124C19.1451 16.301 19.8609 16.3244 20.5089 16.5786L27.8895 9.19797V6.18912C27.8897 5.7865 28.0496 5.4004 28.3342 5.11557L31.1312 2.31852C31.183 2.26643 31.248 2.22942 31.3192 2.21147C31.3904 2.19353 31.4651 2.19532 31.5354 2.21667C31.6793 2.2587 31.786 2.37834 31.8151 2.52547L32.5588 6.24571L36.2775 6.98943C36.423 7.01853 36.5426 7.12524 36.5846 7.26913C36.6059 7.33903 36.6078 7.41338 36.5901 7.48427C36.5725 7.55515 36.5359 7.61993 36.4844 7.67172L33.6857 10.4688C33.4013 10.7529 33.0159 10.9128 32.6138 10.9134Z" fill="#00ADEE"/>
<path d="M4.24403 19.4015C4.24403 23.4214 5.84097 27.2768 8.68354 30.1194C11.5261 32.9619 15.3814 34.5589 19.4014 34.5589C21.3919 34.5589 23.3629 34.1668 25.2019 33.4051C27.0409 32.6433 28.7119 31.5269 30.1193 30.1194C31.5268 28.7119 32.6433 27.0409 33.4051 25.2019C34.1668 23.363 34.5589 21.3919 34.5589 19.4015C34.5589 17.9496 34.3551 16.5462 33.9752 15.2188C33.8997 14.914 33.9453 14.5918 34.1025 14.32C34.2597 14.0482 34.5163 13.848 34.8181 13.7615C35.1199 13.675 35.4436 13.7089 35.7209 13.8562C35.9982 14.0035 36.2076 14.2526 36.305 14.5511C36.748 16.0935 36.984 17.72 36.984 19.4015C36.984 29.1119 29.1119 36.984 19.4014 36.984C9.691 36.984 1.81885 29.1119 1.81885 19.4015C1.81885 9.69101 9.691 1.81886 19.4014 1.81886C21.0425 1.81724 22.6738 2.04521 24.2518 2.49629C24.4057 2.53945 24.5495 2.61259 24.675 2.71152C24.8005 2.81044 24.9052 2.9332 24.9831 3.07272C25.061 3.21225 25.1105 3.36579 25.1289 3.52453C25.1472 3.68327 25.134 3.84407 25.09 3.99769C25.046 4.15131 24.9721 4.29472 24.8725 4.41967C24.7729 4.54463 24.6496 4.64866 24.5096 4.72579C24.3697 4.80293 24.2159 4.85164 24.057 4.86913C23.8982 4.88662 23.7375 4.87254 23.5841 4.8277C22.2238 4.43944 20.816 4.24299 19.4014 4.24404C15.3814 4.24404 11.5261 5.84098 8.68354 8.68354C5.84097 11.5261 4.24403 15.3815 4.24403 19.4015Z" fill="#00ADEE"/>
<path d="M11.5196 19.4015C11.5241 20.4724 11.7469 21.5311 12.1742 22.513C12.6015 23.4948 13.2245 24.3793 14.005 25.1124C14.7856 25.8455 15.7074 26.4118 16.7141 26.7768C17.7209 27.1418 18.7914 27.2977 19.8604 27.2351C20.9295 27.1725 21.9745 26.8927 22.9318 26.4127C23.889 25.9328 24.7384 25.2627 25.4281 24.4435C26.1178 23.6243 26.6332 22.6732 26.943 21.6481C27.2528 20.6231 27.3505 19.5456 27.23 18.4816C27.196 18.2661 27.221 18.0454 27.3023 17.843C27.3835 17.6405 27.518 17.4638 27.6915 17.3316C27.865 17.1993 28.0711 17.1165 28.2878 17.0918C28.5046 17.0671 28.724 17.1015 28.9228 17.1914C29.3286 17.3725 29.6018 17.7589 29.6374 18.2019C29.8884 20.3284 29.4707 22.4802 28.4424 24.3584C27.414 26.2365 25.8261 27.7476 23.8993 28.6817C21.9726 29.6157 19.8027 29.9263 17.6912 29.5702C15.5798 29.2142 13.6317 28.2092 12.1178 26.6949C10.6044 25.1823 9.59908 23.2361 9.24145 21.1265C8.88381 19.0168 9.19154 16.8481 10.1219 14.9212C11.0524 12.9942 12.5593 11.4046 14.4339 10.3727C16.3084 9.34083 18.4576 8.91784 20.5834 9.16242C20.7441 9.17733 20.9002 9.22417 21.0425 9.30019C21.1849 9.37622 21.3106 9.4799 21.4124 9.60515C21.5142 9.73041 21.5899 9.87472 21.6352 10.0296C21.6805 10.1845 21.6944 10.3469 21.6761 10.5073C21.6578 10.6676 21.6077 10.8227 21.5287 10.9634C21.4497 11.1042 21.3434 11.2277 21.216 11.3268C21.0886 11.4259 20.9427 11.4986 20.7869 11.5406C20.6311 11.5826 20.4684 11.5931 20.3085 11.5714C19.2043 11.4438 18.0855 11.5511 17.0257 11.8863C15.9659 12.2215 14.9889 12.777 14.159 13.5165C13.329 14.2559 12.6648 15.1625 12.2099 16.1767C11.755 17.191 11.5198 18.29 11.5196 19.4015Z" fill="#00ADEE"/>
</svg>
