<svg width="39" height="39" viewBox="0 0 39 39" fill="none" xmlns="http://www.w3.org/2000/svg">
<path fill-rule="evenodd" clip-rule="evenodd" d="M15.836 3.26041C16.9431 2.70696 18.1638 2.41882 19.4015 2.41882C20.6392 2.41882 21.86 2.70696 22.967 3.26041L31.5383 7.54438C32.3052 7.92786 32.9501 8.51732 33.4007 9.2467C33.8514 9.97607 34.09 10.8165 34.0899 11.6739V24.3429C34.09 25.6952 33.7462 27.0253 33.0907 28.2081C32.4353 29.391 31.4898 30.3877 30.3431 31.1046L21.849 36.4142C21.1152 36.8731 20.2671 37.1164 19.4015 37.1164C18.536 37.1164 17.6879 36.8731 16.954 36.4142L8.45993 31.1046C7.31327 30.3877 6.36776 29.391 5.71232 28.2081C5.05688 27.0253 4.71304 25.6952 4.71313 24.3429V11.6739C4.71301 10.8165 4.95165 9.97607 5.40232 9.2467C5.85299 8.51732 6.49788 7.92786 7.26472 7.54438L15.836 3.26041ZM25.3272 17.2035C25.4509 17.0882 25.5502 16.9492 25.619 16.7948C25.6878 16.6403 25.7248 16.4736 25.7278 16.3046C25.7307 16.1355 25.6996 15.9676 25.6363 15.8108C25.573 15.6541 25.4788 15.5117 25.3592 15.3921C25.2396 15.2726 25.0972 15.1783 24.9405 15.115C24.7837 15.0517 24.6158 15.0206 24.4467 15.0236C24.2777 15.0265 24.111 15.0635 23.9565 15.1324C23.8021 15.2012 23.6631 15.3004 23.5479 15.4241L17.7229 21.2491L15.2552 18.7814C15.0165 18.559 14.7009 18.438 14.3747 18.4437C14.0485 18.4495 13.7373 18.5816 13.5067 18.8123C13.276 19.0429 13.1439 19.3541 13.1381 19.6803C13.1323 20.0065 13.2534 20.3222 13.4758 20.5608L16.8332 23.9182C17.0692 24.1539 17.3892 24.2864 17.7229 24.2864C18.0565 24.2864 18.3765 24.1539 18.6125 23.9182L25.3272 17.2035Z" fill="#00ADEE"/>
</svg>
