<svg width="17" height="17" viewBox="0 0 17 17" fill="none" xmlns="http://www.w3.org/2000/svg">
<path d="M10.4468 14.5904C9.78421 14.8845 9.06111 15.0392 8.31433 15.0392C7.56756 15.0392 6.84459 14.8845 6.18198 14.5904C5.96039 14.8929 5.67679 15.1328 5.35295 15.2972C6.25271 15.7818 7.26371 16.0392 8.31433 16.0392C9.36509 16.0392 10.3761 15.7818 11.2758 15.2972C10.9519 15.1328 10.6683 14.893 10.4468 14.5904ZM11.9394 5.97379C11.9705 6.0035 12.0014 6.03363 12.032 6.06424C12.4612 6.4935 12.8068 6.98402 13.0612 7.51594C13.3006 7.45122 13.5474 7.41839 13.7953 7.41833C13.9045 7.41833 14.0125 7.42529 14.1193 7.43757C13.8086 6.66802 13.3435 5.96161 12.739 5.35709C12.5433 5.16146 12.335 4.97884 12.1155 4.8104C12.1575 5.20168 12.0987 5.60032 11.9394 5.97376V5.97379ZM3.56747 7.51591C3.82195 6.98402 4.16756 6.4935 4.59681 6.06424C4.62743 6.03363 4.6583 6.0035 4.68947 5.97379C4.52998 5.60032 4.47115 5.20168 4.5133 4.81043C4.29376 4.97886 4.08548 5.16147 3.88979 5.35709C3.2854 5.96161 2.82018 6.66802 2.5095 7.43761C2.61703 7.425 2.72519 7.41857 2.83346 7.41833C3.08136 7.41837 3.32817 7.45118 3.56747 7.51591ZM5.6926 4.36863C5.44178 4.79167 5.43796 5.30027 5.68236 5.72917C5.92874 6.16169 6.37267 6.42012 6.86977 6.42012H9.7589C10.2561 6.42012 10.6999 6.16169 10.9464 5.72917C11.1908 5.30027 11.1869 4.79167 10.9362 4.36863C10.6398 3.86875 10.2087 3.47189 9.70548 3.21298C9.96644 2.89381 10.1083 2.49786 10.1083 2.0801C10.1083 1.60086 9.92176 1.15031 9.58286 0.811575C9.24412 0.472673 8.79358 0.286133 8.31433 0.286133C7.83519 0.286133 7.38471 0.472673 7.04581 0.811575C6.70704 1.15035 6.52037 1.60086 6.52037 2.0801C6.52037 2.49786 6.66236 2.89381 6.92332 3.21298C6.42013 3.47189 5.98887 3.86875 5.6926 4.36863ZM5.46547 13.8605C5.7098 13.4316 5.70601 12.9231 5.4552 12.5001C5.15896 12.0002 4.72766 11.6033 4.22451 11.3444C4.48543 11.0252 4.62743 10.6293 4.62743 10.2115C4.62743 9.7323 4.44079 9.28175 4.10189 8.94289C3.40245 8.24357 2.26435 8.24357 1.56494 8.94289C1.22607 9.28175 1.03937 9.7323 1.03937 10.2114C1.03937 10.6293 1.18136 11.0252 1.44232 11.3444C0.939163 11.6032 0.507995 12.0002 0.21163 12.5001C-0.0392174 12.923 -0.0430078 13.4316 0.20136 13.8605C0.44777 14.2931 0.891702 14.5514 1.3888 14.5514H4.27793C4.77513 14.5514 5.21906 14.2931 5.46543 13.8605H5.46547ZM15.1865 11.3444C15.4473 11.0252 15.5893 10.6293 15.5893 10.2115C15.5893 9.7323 15.4026 9.28175 15.0638 8.94301C14.3644 8.24357 13.2262 8.24357 12.5268 8.94301C12.1879 9.28179 12.0014 9.7323 12.0014 10.2115C12.0014 10.6293 12.1432 11.0252 12.4042 11.3444C11.901 11.6033 11.4698 12.0002 11.1735 12.5001C10.9228 12.9231 10.9188 13.4317 11.1632 13.8606C11.4097 14.2931 11.8537 14.5514 12.3506 14.5514H15.2398C15.7368 14.5514 16.1808 14.2931 16.4273 13.8606C16.6717 13.4317 16.6678 12.9231 16.417 12.5001C16.1208 12.0002 15.6896 11.6033 15.1865 11.3444Z" fill="#00ADEE"/>
</svg>
