<svg width="49" height="48" viewBox="0 0 49 48" fill="none" xmlns="http://www.w3.org/2000/svg">
<path d="M27.0585 30.5832L38.1496 21.0184V4.71627C38.1496 4.32286 37.9934 3.94556 37.7152 3.66738C37.437 3.38919 37.0597 3.23291 36.6663 3.23291H12.9325C12.539 3.23291 12.1617 3.38919 11.8836 3.66738C11.6054 3.94556 11.4491 4.32286 11.4491 4.71627V21.0184L22.5595 30.598C23.1929 31.1219 23.9898 31.4072 24.8117 31.4045C25.6336 31.4018 26.4286 31.1112 27.0585 30.5832ZM20.6638 6.76925C20.8025 6.59177 20.9799 6.44824 21.1825 6.34954C21.385 6.25084 21.6073 6.19958 21.8326 6.19964H27.7661C27.9916 6.19964 28.2141 6.25105 28.4167 6.34996C28.6193 6.44886 28.7968 6.59266 28.9355 6.77042C29.0742 6.94818 29.1706 7.15522 29.2173 7.37581C29.264 7.5964 29.2598 7.82474 29.205 8.04346L26.2382 19.9104C26.1578 20.2311 25.9726 20.5158 25.7119 20.7192C25.4512 20.9226 25.13 21.0331 24.7994 21.0331C24.4687 21.0331 24.1475 20.9226 23.8868 20.7192C23.6261 20.5158 23.4409 20.2311 23.3605 19.9104L20.3938 8.04346C20.3389 7.82476 20.3347 7.59642 20.3815 7.37585C20.4282 7.15528 20.5248 6.94831 20.6638 6.77073V6.76925ZM24.8172 22.5166H24.8468C26.4815 22.5166 27.8076 23.8457 27.8076 25.4834C27.8076 27.121 26.4815 28.4501 24.8483 28.4501C23.2122 28.4501 21.8742 27.121 21.8742 25.4834C21.8742 23.8457 23.184 22.5166 24.8172 22.5166Z" fill="#00ADEE"/>
<path d="M45.1827 18.8736L28.9784 32.8439C27.8061 33.8269 26.3253 34.3662 24.7954 34.3673C23.3164 34.3673 21.842 33.8629 20.639 32.8602L4.41839 18.8721C4.16736 19.62 4.03717 20.4031 4.03271 21.1921V40.4847C4.03429 41.6202 4.48618 42.7088 5.28928 43.5116C6.09238 44.3145 7.18111 44.766 8.31667 44.7672H41.2829C42.4188 44.766 43.5077 44.3143 44.3109 43.5111C45.114 42.708 45.5657 41.619 45.5669 40.4832V21.1906C45.5669 20.3925 45.426 19.6138 45.1827 18.8736Z" fill="#00ADEE"/>
<path d="M42.3581 15.0687C42.3163 15.04 42.2733 15.0133 42.229 14.9886L39.6332 13.5571V19.7398L43.6857 16.2465C43.2918 15.8023 42.846 15.4069 42.3581 15.0687ZM9.96588 13.5571L7.36999 14.9886C7.32549 15.0123 7.28248 15.039 7.24094 15.0687C6.74698 15.4099 6.30345 15.8074 5.91333 16.2465L9.96588 19.7398V13.5571Z" fill="#00ADEE"/>
</svg>
