<svg width="18" height="16" viewBox="0 0 18 16" fill="none" xmlns="http://www.w3.org/2000/svg">
<path d="M15.1689 11.1162L14.5662 11.9201L15.3702 12.5233H13.5563C13.3316 11.6586 12.5516 11.0156 11.6174 11.0156H6.59183C5.65764 11.0156 4.87763 11.6586 4.65292 12.5233H3.54296C2.43431 12.5233 1.53271 11.6217 1.53271 10.513C1.53271 9.40438 2.43431 8.50278 3.54296 8.50278H4.65292C4.87763 9.36749 5.65764 10.0105 6.59183 10.0105H11.6175C12.5516 10.0105 13.3317 9.36749 13.5564 8.50278H14.6663C16.3291 8.50278 17.6817 7.15019 17.6817 5.48741C17.6817 3.82464 16.3291 2.47204 14.6663 2.47204H13.5564C13.3317 1.60733 12.5516 0.964355 11.6175 0.964355H6.59183C5.65764 0.964355 4.87763 1.60733 4.65292 2.47204H4.21304L2.33654 1.065L1.734 1.86883L2.53797 2.47204H0.527588V3.47717H2.53797L1.734 4.08037L2.33654 4.8842L4.21304 3.47717H4.65292C4.87763 4.34187 5.65764 4.98485 6.59183 4.98485H11.6175C12.5516 4.98485 13.3317 4.34187 13.5564 3.47717H14.6663C15.775 3.47717 16.6766 4.37876 16.6766 5.48741C16.6766 6.59606 15.775 7.49766 14.6663 7.49766H13.5564C13.3317 6.63295 12.5516 5.98997 11.6175 5.98997H6.59183C5.65764 5.98997 4.87763 6.63295 4.65292 7.49766H3.54296C1.88018 7.49766 0.527588 8.85026 0.527588 10.513C0.527588 12.1758 1.88018 13.5284 3.54296 13.5284H4.65292C4.87763 14.3931 5.65764 15.0361 6.59183 15.0361H11.6175C12.5516 15.0361 13.3317 14.3931 13.5564 13.5284H15.3702L14.5662 14.1316L15.1689 14.9354L17.6817 13.0258L15.1689 11.1162Z" fill="#00ADEE"/>
</svg>
