<svg width="17" height="18" viewBox="0 0 17 18" fill="none" xmlns="http://www.w3.org/2000/svg">
<path d="M9.32027 8.69643V12.6072L12.7071 10.6518V6.74104L9.32027 8.69643ZM5.42008 5.8519L8.80693 7.80732L12.1938 5.8519L8.80693 3.89648L5.42008 5.8519ZM8.29359 8.69643L4.90674 6.74104V10.6518L8.29359 12.6072V8.69643Z" fill="#00ADEE"/>
<path d="M15.5051 3.02557C15.136 3.02557 14.7979 3.15996 14.5364 3.38203L8.824 0.0839844L3.09104 3.3939C2.82773 3.16478 2.4842 3.02557 2.10858 3.02557C1.28203 3.02557 0.609619 3.69797 0.609619 4.52452C0.609619 5.18321 1.03689 5.74364 1.6287 5.94422V12.5465L7.30359 15.8229C7.28547 15.9165 7.27631 16.0117 7.27624 16.107C7.27624 16.9335 7.94865 17.606 8.7752 17.606C9.60171 17.606 10.2741 16.9335 10.2741 16.107C10.2741 16.0278 10.2678 15.95 10.2559 15.874L16.0193 12.5465V5.93262C16.5933 5.72235 17.0041 5.17051 17.0041 4.52452C17.0041 3.69801 16.3316 3.02557 15.5051 3.02557ZM14.991 11.9529L9.75619 14.9752C9.49306 14.7469 9.15011 14.6081 8.77517 14.6081C8.41884 14.6081 8.09133 14.7333 7.8338 14.9418L2.65699 11.9529V5.9191C3.21294 5.6997 3.6075 5.15751 3.6075 4.52452C3.6075 4.44591 3.60134 4.36874 3.58963 4.29338L8.824 1.27131L14.0273 4.27541C14.0133 4.35772 14.0063 4.44104 14.0062 4.52452C14.0062 5.17051 14.417 5.72235 14.991 5.93262V11.9529Z" fill="#00ADEE"/>
</svg>
