<svg width="39" height="39" viewBox="0 0 39 39" fill="none" xmlns="http://www.w3.org/2000/svg">
<path d="M24.6124 15.9646C26.8055 13.9651 29.7713 11.2609 30.0416 4.80048H31.9998V2.8623H6.80347V4.80048H8.76161C9.03192 11.2609 11.9977 13.9651 14.1908 15.9646C15.662 17.3059 16.4944 18.1268 16.4944 19.4014C16.4944 20.676 15.662 21.497 14.1908 22.8383C11.9977 24.8377 9.03192 27.5419 8.76161 34.0023H6.80347V35.9405H31.9998V34.0023H30.0416C29.7713 27.5419 26.8055 24.8377 24.6124 22.8383C23.1413 21.497 22.3089 20.676 22.3089 19.4014C22.3089 18.1268 23.1413 17.3059 24.6124 15.9646ZM18.4325 26.6656C18.1301 26.7279 17.8343 26.8186 17.5489 26.9366L11.6131 29.3928C12.5825 26.9281 14.1437 25.504 15.4966 24.2706C17.0065 22.894 18.4325 21.5938 18.4325 19.4014V26.6656ZM23.3066 24.2706C24.6595 25.504 26.2207 26.9281 27.1901 29.3928L21.2543 26.9365C20.969 26.8185 20.6731 26.7278 20.3707 26.6655V19.4014C20.3707 21.5938 21.7967 22.894 23.3066 24.2706ZM11.5791 9.32289C11.1105 8.10191 10.7869 6.62767 10.7022 4.80048H28.101C28.0163 6.62767 27.6927 8.10191 27.2241 9.32289H11.5791Z" fill="#00ADEE"/>
</svg>
