<svg width="48" height="48" viewBox="0 0 48 48" fill="none" xmlns="http://www.w3.org/2000/svg">
<path d="M30.9956 27.7887C26.332 25.9337 21.6684 25.9337 17.0049 27.7887C16.7626 27.8853 16.5549 28.0524 16.4085 28.2683C16.2622 28.4842 16.184 28.739 16.1841 28.9998V33.4765C16.1841 38.4589 18.9948 42.9935 23.4091 45.2232C23.5924 45.3158 23.7949 45.3641 24.0003 45.3641C24.2057 45.3641 24.4082 45.3158 24.5915 45.2232C29.0056 42.9935 31.8163 38.4588 31.8163 33.4764V28.9997C31.8164 28.7389 31.7382 28.4841 31.5919 28.2682C31.4455 28.0523 31.2378 27.8853 30.9956 27.7887ZM27.6848 35.0294L24.0002 38.714C23.4914 39.2228 22.6666 39.2228 22.1579 38.714L20.3156 36.8717C19.8069 36.363 19.8069 35.5382 20.3156 35.0295C20.8244 34.5207 21.6492 34.5207 22.1579 35.0295L23.0791 35.9507L25.8425 33.1872C26.3513 32.6785 27.1761 32.6785 27.6848 33.1872C28.1935 33.6959 28.1935 34.5206 27.6848 35.0294Z" fill="#00ADEE"/>
<path d="M23.2601 15.0823C23.1411 15.2608 22.98 15.4071 22.7909 15.5083C22.6018 15.6095 22.3907 15.6624 22.1762 15.6624H1.76733V35.2029C1.76733 37.3578 3.5205 39.111 5.67542 39.111H14.6216C13.9324 37.3123 13.5788 35.4025 13.5784 33.4763V28.9996C13.5784 27.3886 14.5453 25.963 16.0415 25.3677C18.6703 24.322 21.3479 23.7919 24 23.7919C26.6521 23.7919 29.3297 24.322 31.9583 25.3676C33.4547 25.9629 34.4216 27.3886 34.4216 28.9996V33.4763C34.4216 35.4123 34.0639 37.3199 33.3783 39.111H42.3246C44.4795 39.111 46.2327 37.3578 46.2327 35.2029V10.4517H26.3472L23.2601 15.0823Z" fill="#00ADEE"/>
<path d="M42.3246 2.63574H5.67542C3.5205 2.63574 1.76733 4.38891 1.76733 6.54383V13.0573H21.4791L24.5662 8.42666C24.6852 8.24819 24.8463 8.10185 25.0354 8.00064C25.2245 7.89943 25.4356 7.84649 25.6501 7.84653H46.2327V6.54383C46.2327 4.38891 44.4795 2.63574 42.3246 2.63574ZM8.28081 9.14922C7.56138 9.14922 6.97812 8.56596 6.97812 7.84653C6.97812 7.12709 7.56138 6.54383 8.28081 6.54383C9.00025 6.54383 9.58351 7.12709 9.58351 7.84653C9.58351 8.56596 9.00025 9.14922 8.28081 9.14922ZM13.4916 9.14922C12.7722 9.14922 12.1889 8.56596 12.1889 7.84653C12.1889 7.12709 12.7722 6.54383 13.4916 6.54383C14.211 6.54383 14.7943 7.12709 14.7943 7.84653C14.7943 8.56596 14.211 9.14922 13.4916 9.14922ZM18.7024 9.14922C17.9829 9.14922 17.3997 8.56596 17.3997 7.84653C17.3997 7.12709 17.9829 6.54383 18.7024 6.54383C19.4218 6.54383 20.0051 7.12709 20.0051 7.84653C20.0051 8.56596 19.4218 9.14922 18.7024 9.14922Z" fill="#00ADEE"/>
</svg>
