<svg width="18" height="17" viewBox="0 0 18 17" fill="none" xmlns="http://www.w3.org/2000/svg">
<path fill-rule="evenodd" clip-rule="evenodd" d="M12.3358 9.38205V7.15747C12.6095 7.04815 12.8029 6.78063 12.8029 6.46792C12.8029 6.05799 12.4706 5.72564 12.0606 5.72564C11.8869 5.72564 11.7271 5.78535 11.6006 5.88535L9.67424 4.77314C9.73884 4.32669 9.39379 3.92378 8.9397 3.92378C8.48554 3.92378 8.14069 4.32665 8.20515 4.77311L6.27877 5.88531C6.14788 5.78167 5.98576 5.72538 5.8188 5.72564C5.40884 5.72564 5.07655 6.05796 5.07655 6.46792C5.07655 6.78063 5.26994 7.04812 5.54361 7.15747V9.38208C5.26994 9.4914 5.07655 9.75892 5.07655 10.0716C5.07655 10.4816 5.40887 10.8139 5.8188 10.8139C5.98576 10.8141 6.14788 10.7578 6.27877 10.6542L8.20515 11.7664C8.14066 12.2129 8.48554 12.6157 8.9397 12.6157C9.39379 12.6157 9.73884 12.2128 9.67424 11.7664L11.6006 10.6542C11.7315 10.7578 11.8936 10.8141 12.0606 10.8139C12.4706 10.8139 12.8029 10.4816 12.8029 10.0716C12.8029 9.75892 12.6095 9.4914 12.3358 9.38205ZM6.09399 9.38205V7.15747C6.1606 7.13085 6.223 7.0947 6.27922 7.05015L8.07819 8.08877C8.05336 8.20796 8.05331 8.33099 8.07805 8.45019L6.27877 9.48903C6.22265 9.44465 6.16041 9.40862 6.09399 9.38205ZM8.66451 11.1839C8.59807 11.2105 8.53583 11.2465 8.47972 11.2909L6.55334 10.1787C6.56359 10.1077 6.56359 10.0356 6.55334 9.96455L8.35279 8.92565C8.44315 9.00663 8.54928 9.06804 8.66451 9.10603V11.1839ZM8.66451 7.43352C8.54908 7.47156 8.44279 7.53311 8.35234 7.61428L6.55327 6.57559C6.56359 6.50448 6.56366 6.43197 6.55334 6.36084L8.47972 5.24863C8.53584 5.29302 8.59808 5.32905 8.66451 5.35561V7.43352ZM9.21488 5.35561C9.28132 5.32907 9.34357 5.29303 9.39967 5.24863L11.3261 6.36084C11.3158 6.43184 11.3158 6.50396 11.3261 6.57497L9.5266 7.61387C9.43624 7.53288 9.3301 7.47146 9.21485 7.43348V5.35561H9.21488ZM11.3261 10.1787L9.39967 11.2909C9.34355 11.2465 9.28131 11.2105 9.21488 11.1839V9.106C9.33032 9.06797 9.43661 9.00642 9.52705 8.92524L11.3262 9.96393C11.3158 10.0351 11.3158 10.1075 11.3261 10.1787ZM11.7854 9.38208C11.7188 9.40872 11.6564 9.44487 11.6002 9.4894L9.80121 8.45078C9.82604 8.33197 9.82611 8.20813 9.80134 8.08932L11.6006 7.05049C11.6567 7.09487 11.719 7.1309 11.7854 7.15747V9.38208ZM15.8276 6.62605C15.654 5.89704 15.3652 5.20039 14.9721 4.56238L15.5674 3.22215L13.9873 1.64213L12.6467 2.23753C12.0088 1.84456 11.3124 1.55583 10.5836 1.38222L10.057 0.0141602H7.82247L7.29583 1.38222C6.56703 1.55583 5.87058 1.84456 5.23272 2.23753L3.89208 1.64213L2.31202 3.22222L2.90739 4.56273C2.51438 5.20062 2.22564 5.89712 2.05204 6.62598L0.684082 7.15255V9.38707L2.05183 9.91354C2.22542 10.6425 2.5142 11.3392 2.90728 11.9772L2.31202 13.3174L3.89211 14.8975L5.23275 14.302C5.87062 14.695 6.56707 14.9837 7.29587 15.1573L7.82247 16.5254H10.057L10.5835 15.1576C11.3125 14.9841 12.0091 14.6953 12.6471 14.3022L13.9873 14.8975L15.5674 13.3174L14.972 11.9767C15.3649 11.3389 15.6536 10.6424 15.8273 9.91361L17.1953 9.38704V7.15252L15.8276 6.62605ZM8.9397 13.4248C6.09268 13.4248 3.78468 11.1168 3.78468 8.26978C3.78468 5.42276 6.09268 3.11476 8.9397 3.11476C11.7867 3.11476 14.0947 5.42276 14.0947 8.26978C14.0947 11.1168 11.7867 13.4248 8.9397 13.4248Z" fill="#00ADEE"/>
</svg>
